<svg width="30" height="30" viewBox="0 0 30 30" fill="none" xmlns="http://www.w3.org/2000/svg">
<rect width="30" height="30" fill="white"/>
<path d="M18.5335 9.43741C18.5335 7.58871 20.3272 7.58871 22.1209 7.58871H24.2734C24.6328 7.5912 24.9895 7.55655 25.3224 7.48682C25.6554 7.41711 25.958 7.3137 26.2119 7.18274C26.4663 7.05177 26.6668 6.8959 26.8021 6.7243C26.9373 6.55272 27.0048 6.3689 26.9997 6.18371V4.44593C26.9997 4.25985 26.928 4.07564 26.7888 3.90395C26.6496 3.73228 26.4455 3.57656 26.1886 3.44585C25.9318 3.31514 25.6268 3.21203 25.2919 3.14252C24.957 3.07301 24.5985 3.03848 24.2375 3.04093L19.1434 3.00395C17.6601 2.97439 16.182 3.11103 14.8112 3.40446C13.4403 3.69789 12.2094 4.14111 11.2032 4.70354C10.1971 5.26597 9.43977 5.9342 8.98352 6.66212C8.52724 7.39004 8.38292 8.16031 8.56049 8.91977V11.6004H5.72644C5.00336 11.6004 4.30987 11.7484 3.79856 12.0119C3.28724 12.2754 3 12.6328 3 13.0054V14.7432C3 15.1158 3.28724 15.4732 3.79856 15.7367C4.30987 16.0001 5.00336 16.1482 5.72644 16.1482H8.56049V26.0756C8.56049 26.3208 8.74948 26.556 9.08587 26.7294C9.42226 26.9027 9.87847 27 10.3542 27H16.8474C17.3042 26.9858 17.7333 26.8822 18.0468 26.7103C18.3602 26.5386 18.5343 26.3116 18.5335 26.0756V16.1482H21.6904C22.4136 16.1482 23.107 16.0001 23.6183 15.7367C24.1296 15.4732 24.4169 15.1158 24.4169 14.7432V13.0054C24.4169 12.6328 24.1296 12.2754 23.6183 12.0119C23.107 11.7484 22.4136 11.6004 21.6904 11.6004H18.5335V9.43741Z" fill="white" stroke="black" stroke-width="1.5" stroke-linecap="round" stroke-linejoin="round"/>
</svg>
