<svg width="76" height="92" viewBox="0 0 76 92" fill="none" xmlns="http://www.w3.org/2000/svg">
<path d="M40.1047 14.8149C39.7162 12.2243 38.4443 9.84754 36.5044 8.08713C34.5645 6.32672 32.0758 5.29085 29.4597 5.15494C26.521 5.07634 23.6208 5.83781 21.0997 7.34994C15.9997 10.3249 13.8997 17.2549 15.8447 22.4699C15.4152 22.5379 15.0206 22.7466 14.7228 23.0635C14.425 23.3803 14.241 23.7871 14.1997 24.2199C14.1997 26.8449 17.5947 28.1499 18.5247 26.3899C22.5247 29.8899 30.7547 30.3449 36.4797 25.3499C39.2647 22.8499 40.6447 18.4999 40.1047 14.8149ZM32.4147 15.1999C31.5547 15.7499 30.1797 15.1249 30.1097 14.1249C31.0719 13.7659 31.9726 13.2599 32.7797 12.6249C33.0687 13.0163 33.1923 13.5055 33.124 13.9871C33.0558 14.4688 32.801 14.9043 32.4147 15.1999Z" fill="#FFF4EE"/>
<path d="M28.035 1.1099C28.535 2.0849 27.29 3.0349 26.235 3.3049C24.19 3.8049 22 3.6749 20 4.3499C16.845 5.4099 14 9.1449 14.785 12.5899C14.8406 12.7505 14.8543 12.9225 14.825 13.0899C14.7537 13.2523 14.6418 13.3935 14.5 13.4999C12.575 15.3399 12.5 18.8549 14.035 21.1699C12.82 23.9299 10.585 24.5299 8.53496 25.6699C4.87034 27.6879 2.14869 31.0688 0.959961 35.0799C2.85996 33.9249 5.33996 34.3499 7.36496 35.2799C9.38996 36.2099 11.19 37.5949 13.29 38.3699C17.26 39.8249 21.68 38.8699 24.14 36.4199C26 34.4999 26.535 31.7099 26.55 29.0499C24.8449 29.0386 23.1542 28.7377 21.55 28.1599C20.4522 27.7541 19.4361 27.1546 18.55 26.3899C17.62 28.1499 14.205 26.8449 14.225 24.2199C14.259 23.8835 14.3777 23.5612 14.5701 23.2831C14.7624 23.0051 15.0222 22.7803 15.325 22.6299C16.5393 23.6821 18.0835 24.2764 19.69 24.3099C16.22 24.1699 18.5 17.7549 18.5 16.2449C18.4504 15.4378 18.2591 14.6457 17.935 13.9049C21.0703 12.5452 24.059 10.8699 26.855 8.9049C28.29 7.9049 29.82 6.7299 30.355 5.0349C30.89 3.3399 29.81 1.0699 28.035 1.1099Z" fill="#FFFDA9"/>
<path d="M22.21 46.5852L13.385 36.4002C12.7177 35.9692 11.9394 35.7416 11.145 35.7452C11.3375 35.7614 11.5165 35.8509 11.645 35.9952L20.47 46.1852C20.5976 46.3341 20.6613 46.5274 20.6472 46.7231C20.6332 46.9187 20.5426 47.1009 20.395 47.2302L13.145 53.8152C13.0711 53.8787 12.9853 53.9269 12.8926 53.9569C12.7999 53.9869 12.7021 53.9982 12.605 53.9902C13.165 54.2502 14.605 54.4502 14.87 54.2152L22.12 47.6352C22.1949 47.5721 22.2566 47.495 22.3017 47.4081C22.3467 47.3212 22.3742 47.2263 22.3826 47.1288C22.3909 47.0313 22.38 46.9331 22.3504 46.8398C22.3208 46.7465 22.2731 46.66 22.21 46.5852Z" fill="#A2CCCB"/>
<path d="M12.115 53.7448L3.28999 43.5548C3.16086 43.4055 3.09623 43.2111 3.11029 43.0143C3.12435 42.8174 3.21596 42.6342 3.36499 42.5048L10.61 35.9198C10.7603 35.7931 10.9541 35.7301 11.1502 35.7441C11.3463 35.7581 11.5292 35.848 11.66 35.9948L20.5 46.1848C20.6276 46.3338 20.6912 46.527 20.6772 46.7227C20.6632 46.9183 20.5725 47.1005 20.425 47.2298L13.175 53.8148C13.1012 53.8805 13.015 53.931 12.9215 53.9631C12.828 53.9952 12.729 54.0084 12.6303 54.0019C12.5317 53.9954 12.4353 53.9693 12.3468 53.9251C12.2583 53.881 12.1795 53.8197 12.115 53.7448Z" fill="#DFEDED"/>
<path d="M43.96 35.1556C43.932 34.8303 43.8207 34.5177 43.6368 34.248C43.4529 33.9783 43.2026 33.7605 42.91 33.6156C42.23 33.3356 41.46 33.6156 40.78 33.9106C34.89 36.3706 31.545 37.6506 27.615 43.7206C26.94 46.2206 26.265 48.7206 25.79 51.2206C25.6896 51.5481 25.7001 51.8997 25.82 52.2206C25.9663 52.457 26.1927 52.6331 26.458 52.7166C26.7232 52.8001 27.0096 52.7855 27.265 52.6756C27.7608 52.4433 28.1867 52.0846 28.5 51.6356C30.29 49.4206 31.74 46.9456 33.53 44.7356C35.03 42.8706 37.215 40.1556 39.75 39.9156C39.905 40.4556 40.015 41.0106 40.135 41.5656C40.16 41.7327 40.2196 41.8928 40.31 42.0356C41.765 44.0006 43.57 37.6256 43.71 37.0806C43.9153 36.4608 44.0002 35.8073 43.96 35.1556Z" fill="#FEDAF6"/>
<path d="M30.0551 52.0003L36.0001 46.1953L17.8151 55.7453C17.6668 55.8159 17.5404 55.9254 17.4493 56.062C17.3582 56.1987 17.3057 56.3574 17.2975 56.5214C17.2893 56.6855 17.3257 56.8487 17.4027 56.9937C17.4797 57.1388 17.5946 57.2603 17.7351 57.3453C19.8344 58.6339 22.1146 59.6012 24.5001 60.2153C25.1801 56.8953 27.6051 54.4303 30.0551 52.0003Z" fill="#FFFDA9"/>
<path d="M43.7198 70.5457C42.7989 71.6497 41.6902 72.5823 40.4448 73.3007C41.1248 77.7157 41.1748 78.4157 41.6998 80.1207C42.3148 82.2707 44.1498 78.7407 44.5198 77.8757C46.7398 72.7024 48.9582 67.5257 51.1748 62.3457C48.7248 65.1157 46.2398 67.849 43.7198 70.5457Z" fill="#FFFDA9"/>
<path d="M44.91 15.47C44.8744 15.2215 44.7706 14.9879 44.61 14.795C43.89 14.14 42.94 14.655 42.29 15.38C41.545 16.115 40.835 16.88 40.155 17.68C39.86 20.57 38.565 23.5 36.5 25.35C33.6982 27.7984 30.0851 29.1157 26.365 29.045C26.2423 29.6158 26.1423 30.1913 26.065 30.77C23.0098 33.195 20.3219 36.0496 18.085 39.245C17.9738 39.374 17.901 39.5317 17.875 39.7C17.835 40.165 18.425 40.42 18.875 40.41C20.105 40.38 21.17 39.595 22.14 38.845L25.875 35.955C26.0673 38.8873 26.4431 41.8047 27 44.69C29.5 40.395 33.695 36.385 38.465 35C37.025 33.915 36.51 32.75 36.2 30.97C36.055 30.135 35.94 29.295 35.86 28.47C38.86 25.77 41.76 22.885 43.86 19.42C44.555 18.195 45.185 16.83 44.91 15.47Z" fill="#ABFFE1"/>
<path d="M22.0249 15.9156C22.0249 16.5296 22.2688 17.1184 22.7029 17.5525C23.1371 17.9867 23.7259 18.2306 24.3399 18.2306C24.9539 18.2306 25.5427 17.9867 25.9769 17.5525C26.411 17.1184 26.6549 16.5296 26.6549 15.9156C26.6549 15.3016 26.411 14.7128 25.9769 14.2786C25.5427 13.8445 24.9539 13.6006 24.3399 13.6006C23.7259 13.6006 23.1371 13.8445 22.7029 14.2786C22.2688 14.7128 22.0249 15.3016 22.0249 15.9156Z" fill="#FFCECC"/>
<path d="M11.7046 75.7354L11.7996 75.8904C11.7646 75.8404 11.7346 75.7854 11.7046 75.7354Z" fill="#E57676"/>
<path d="M36.9197 74.0803C36.6447 74.0803 36.3697 74.0803 36.0947 74.0453C30.4997 73.6603 25.3497 70.0003 24.3897 64.3203C22.9297 64.5353 21.1747 64.6103 20.2947 65.8203C19.8797 66.3903 19.7447 67.1253 19.3497 67.7103C18.0297 69.6503 15.8497 68.8103 14.0197 69.4703C11.6247 70.3203 10.4647 73.5453 11.7047 75.7403C10.6547 73.7403 15.2747 72.7853 14.2997 75.6453C14.0472 76.2251 13.6639 76.7385 13.1797 77.1453C12.3597 77.9603 11.5697 78.9003 11.3947 80.0403C11.0597 82.1503 12.9297 84.1953 12.1397 86.2553C11.7597 87.2553 10.4647 87.9303 9.59473 87.3253C9.92473 87.5553 10.1797 88.7703 10.5147 89.1603C10.9953 89.7087 11.6055 90.1281 12.2897 90.3803C13.5797 90.9503 15.3747 91.2553 16.2397 89.8203C16.6947 89.0653 16.6797 88.1253 16.9497 87.2853C17.2197 86.4453 18.0447 85.6203 18.8747 85.9153C19.8747 86.2703 19.8747 87.8453 20.8097 88.3453C21.1346 88.4739 21.4922 88.4948 21.8297 88.4047C22.1673 88.3147 22.4671 88.1186 22.6847 87.8453C23.0447 87.4553 23.3447 86.9103 23.8697 86.8453C24.6997 86.7203 25.1397 87.9803 24.6397 88.6553C24.1397 89.3303 23.2197 89.4903 22.3897 89.5703C22.7576 89.973 23.2208 90.2768 23.7367 90.4538C24.2527 90.6308 24.8048 90.6753 25.3425 90.5832C25.8801 90.4911 26.3859 90.2654 26.8135 89.9268C27.2412 89.5881 27.5768 89.1475 27.7897 88.6453C28.0547 88.0053 28.1147 87.2903 28.4147 86.6453C28.7147 86.0003 29.4147 85.4753 30.0597 85.6803C30.3178 85.7939 30.5698 85.9207 30.8147 86.0603C33.3147 87.0603 33.3897 83.1353 33.1397 81.8003C33.0448 81.4857 33.0448 81.15 33.1397 80.8353C33.3259 80.5405 33.5982 80.3101 33.9197 80.1753C34.7437 79.696 35.4424 79.0284 35.9586 78.2271C36.4748 77.4258 36.7939 76.5137 36.8897 75.5653C36.9347 75.0753 36.9197 74.5753 36.9197 74.0803Z" fill="#E57676"/>
<path d="M37.12 74.0754H36.62V74.8804C36.6293 75.6922 36.4716 76.4972 36.1568 77.2455C35.842 77.9938 35.3768 78.6694 34.79 79.2304C34.3965 79.5853 33.9637 79.8939 33.5 80.1504C33.2917 80.2496 33.1148 80.4043 32.9886 80.5974C32.8625 80.7906 32.792 81.0148 32.785 81.2454C32.785 81.6004 32.905 81.9454 32.935 82.3004C32.9952 82.9393 32.9699 83.5833 32.86 84.2154C32.811 84.8055 32.5499 85.3579 32.125 85.7704C31.9092 85.9244 31.6428 85.9905 31.38 85.9554C30.88 85.9004 30.555 85.5604 30.11 85.4554C29.025 85.1304 28.235 86.2154 27.96 87.1054C27.8275 87.7636 27.6072 88.4009 27.305 89.0004C27.0797 89.3523 26.7834 89.6532 26.4351 89.8839C26.0868 90.1145 25.6941 90.2699 25.2822 90.3401C24.8704 90.4102 24.4484 90.3935 24.0433 90.2911C23.6383 90.1887 23.2591 90.0029 22.93 89.7454C23.2976 89.7252 23.6569 89.6285 23.9849 89.4615C24.3129 89.2944 24.6025 89.0608 24.835 88.7754C25.485 87.8004 24.745 86.3054 23.66 86.6304C23.2686 86.7903 22.9354 87.066 22.705 87.4204C22.5687 87.6374 22.3899 87.8245 22.1794 87.9706C21.9689 88.1167 21.731 88.2187 21.48 88.2704C20.135 88.3654 20.27 86.5104 19.2 85.8504C18.38 85.3504 17.47 85.9004 17.005 86.6154C16.405 87.5304 16.575 88.7054 16.06 89.6504C15.8475 90.0187 15.5264 90.3124 15.1407 90.4914C14.755 90.6703 14.3235 90.7259 13.905 90.6504C12.8438 90.5364 11.8434 90.0981 11.04 89.3954C10.6185 88.9582 10.3215 88.4161 10.18 87.8254C11.54 87.9854 12.74 86.5504 12.585 85.0304C12.53 83.8954 12.045 82.8554 11.78 81.7654C11.6036 81.2273 11.562 80.6542 11.6587 80.0963C11.7555 79.5383 11.9877 79.0127 12.335 78.5654C13.225 77.2804 15.08 76.3604 14.645 74.5354C14.25 73.3604 12.335 73.4404 11.57 74.4954C11.427 73.6795 11.5189 72.8397 11.8349 72.0739C12.151 71.3082 12.6782 70.648 13.355 70.1704C14.0019 69.7693 14.7399 69.5388 15.5 69.5004C16.2433 69.4839 16.9832 69.3968 17.71 69.2404C18.4362 69.0555 19.0716 68.6153 19.5 68.0004C20.04 67.2704 20.14 66.2754 20.845 65.6554C21.5016 65.1654 22.2833 64.8707 23.1 64.8054C23.545 64.7304 23.99 64.6654 24.43 64.6004C24.395 64.4204 24.365 64.2454 24.34 64.0654C24.005 64.1204 23.67 64.1754 23.34 64.2104C22.4829 64.2896 21.6492 64.5341 20.885 64.9304C20.5501 65.1364 20.2609 65.4086 20.035 65.7304C19.788 66.1518 19.5773 66.5934 19.405 67.0504C19.2407 67.456 18.9822 67.8167 18.651 68.1027C18.3197 68.3887 17.9252 68.5919 17.5 68.6954C16.7325 68.8287 15.9578 68.9171 15.18 68.9604C11.91 69.1654 10.015 72.7804 11.4 75.6904C11.4476 75.8263 11.515 75.9543 11.6 76.0704C11.77 76.3354 12.2 76.0704 12.03 75.8154C11.985 75.7304 11.93 75.6254 11.89 75.5404C11.8444 75.4119 11.8256 75.2755 11.8347 75.1394C11.8438 75.0034 11.8807 74.8706 11.9429 74.7494C12.0052 74.6281 12.0916 74.5208 12.1969 74.4341C12.3022 74.3475 12.424 74.2833 12.555 74.2454C13.055 74.0354 13.925 73.9954 14.13 74.6404C14.51 76.7754 11.215 77.3454 11.09 80.4904C11.1543 81.4904 11.3753 82.4741 11.745 83.4054C12.03 84.3454 12.31 85.5404 11.745 86.4354C11.335 87.0904 10.42 87.5604 9.70502 87.0904C9.47002 86.9404 9.20503 87.3054 9.40503 87.4854C9.42489 87.5075 9.44326 87.5309 9.46002 87.5554H9.48502C9.89502 88.0954 9.76502 88.4504 10.295 89.2604C10.8942 89.9609 11.6768 90.4804 12.555 90.7604C13.2765 91.0684 14.0701 91.1672 14.845 91.0454C15.2399 90.9724 15.6094 90.7994 15.9184 90.5429C16.2274 90.2864 16.4655 89.9551 16.61 89.5804C16.995 88.6704 16.885 87.5804 17.48 86.7404C17.5981 86.5393 17.7693 86.3746 17.9748 86.2644C18.1803 86.1541 18.4122 86.1026 18.645 86.1154C18.8179 86.1658 18.9775 86.2537 19.1123 86.373C19.2472 86.4923 19.354 86.64 19.425 86.8054C19.765 87.4154 19.98 88.1704 20.625 88.5354C21.415 88.9854 22.375 88.5654 22.925 87.9354C23.185 87.6254 23.51 87.0554 23.98 87.0804C24.36 87.0804 24.55 87.5454 24.575 87.8704C24.655 88.9854 23.185 89.2304 22.365 89.3104C22.3161 89.3111 22.2684 89.3261 22.228 89.3537C22.1875 89.3812 22.156 89.42 22.1374 89.4652C22.1187 89.5105 22.1138 89.5602 22.1232 89.6082C22.1325 89.6563 22.1558 89.7005 22.19 89.7354C24.19 91.8204 27.76 90.9404 28.31 87.6554C28.4049 87.0393 28.7192 86.4781 29.195 86.0754C29.3032 85.9949 29.4283 85.94 29.5608 85.9148C29.6934 85.8897 29.8299 85.895 29.96 85.9304C30.25 86.0154 30.49 86.2304 30.78 86.3404C31.0975 86.4658 31.4424 86.5055 31.78 86.4554C33.135 86.2154 33.385 84.4054 33.43 83.2954C33.4594 82.615 33.4074 81.9335 33.275 81.2654C33.275 80.6354 33.995 80.4304 34.43 80.1304C35.1381 79.6367 35.7366 79.0022 36.1883 78.2667C36.64 77.5311 36.935 76.7102 37.055 75.8554C37.1135 75.264 37.1352 74.6695 37.12 74.0754Z" fill="#FFFDA9"/>
<path d="M32.7251 73.4355C29.9816 72.5741 27.6087 70.8125 25.9902 68.4355C25.0147 68.5495 24.0542 68.7674 23.1251 69.0855C22.7864 69.2004 22.4936 69.4213 22.2901 69.7155C21.7901 70.5755 22.6801 71.6555 22.4751 72.6305C22.2551 73.6955 20.9751 74.0505 19.8951 74.3055C18.8151 74.5605 17.5801 75.3055 17.8101 76.3655C17.9527 76.8336 18.2695 77.2292 18.6951 77.4705C19.2227 77.7776 19.7244 78.1271 20.1951 78.5155C20.4328 78.7087 20.6152 78.9611 20.7241 79.2473C20.833 79.5335 20.8644 79.8433 20.8151 80.1455C20.5101 81.2505 18.9401 81.3756 18.2001 82.2456C19.0087 82.7703 19.9782 82.9886 20.9336 82.8612C21.889 82.7337 22.7674 82.2689 23.4101 81.5506C23.8751 81.0206 24.2201 80.3255 24.8801 80.0905C25.5401 79.8555 26.3801 80.2255 27.0651 80.5155C27.7501 80.8055 28.6951 80.9605 29.2001 80.3955C29.3891 80.1479 29.5144 79.8578 29.5651 79.5506C29.7805 78.6118 29.8596 77.6469 29.8001 76.6855C30.5711 76.7016 31.317 76.411 31.8738 75.8776C32.4307 75.3442 32.7531 74.6115 32.7701 73.8405C32.7675 73.7045 32.7524 73.5689 32.7251 73.4355Z" fill="#FFFDA9"/>
<path d="M39.1249 58C39.0049 58.11 38.8849 58.23 38.7749 58.35C38.8634 58.7967 39.1074 59.1975 39.4635 59.4813C39.8196 59.7651 40.2648 59.9134 40.7199 59.9L41.0449 59.535C40.2498 59.255 39.5731 58.7139 39.1249 58Z" fill="#ABFFE1"/>
<path d="M37.7501 59.6904C37.6125 59.8676 37.5307 60.0817 37.5151 60.3054C37.587 60.6144 37.7549 60.8926 37.9947 61.1001C38.2346 61.3076 38.5341 61.4338 38.8501 61.4604C39.1099 61.4391 39.3556 61.3338 39.5501 61.1604C39.1402 61.1154 38.752 60.9527 38.4326 60.6918C38.1132 60.4309 37.8761 60.0831 37.7501 59.6904Z" fill="#ABFFE1"/>
<path d="M38.3851 58.8057C38.3001 58.9157 38.2201 59.0257 38.1401 59.1407C38.1414 59.3643 38.1961 59.5844 38.2996 59.7827C38.403 59.981 38.5524 60.1517 38.7351 60.2807C38.9171 60.4304 39.1292 60.5392 39.357 60.5996C39.5848 60.66 39.8229 60.6706 40.0551 60.6307L40.2951 60.3707C39.8652 60.3063 39.4607 60.1269 39.1245 59.8514C38.7882 59.5759 38.5328 59.2145 38.3851 58.8057Z" fill="#ABFFE1"/>
<path d="M45.8149 50.2748C44.868 49.9194 43.8189 49.9541 42.8975 50.3712C41.9761 50.7883 41.2578 51.5538 40.8999 52.4998C40.2599 54.1948 40.6549 56.3198 39.5649 57.7348C39.6342 57.8466 39.711 57.9535 39.7949 58.0548C40.2421 57.5891 40.6501 57.0874 41.0149 56.5548C41.0599 56.4898 41.1249 56.4748 41.1149 56.3348C41.1049 56.1948 40.9649 56.0598 40.9049 55.9398C40.865 55.8753 40.8389 55.8033 40.8284 55.7282C40.8179 55.6531 40.8231 55.5766 40.8438 55.5037C40.8645 55.4307 40.9002 55.3629 40.9486 55.3046C40.997 55.2462 41.0571 55.1986 41.1249 55.1648C41.2709 55.1061 41.432 55.0968 41.5837 55.1384C41.7353 55.1799 41.8693 55.2699 41.9649 55.3948C42.1799 55.6698 42.2349 56.0298 42.4999 56.2698C42.7445 56.4604 43.0405 56.5736 43.3499 56.5948C43.4265 56.6121 43.4972 56.6492 43.555 56.7023C43.6128 56.7553 43.6557 56.8226 43.6794 56.8974C43.7032 56.9722 43.707 57.052 43.6904 57.1287C43.6738 57.2054 43.6375 57.2764 43.5849 57.3348C43.3599 57.5698 42.9949 57.5248 42.7049 57.5998C42.0374 57.857 41.4983 58.3673 41.2049 59.0198L41.3949 59.0848C41.6379 58.7381 41.9525 58.4475 42.3173 58.2327C42.6822 58.018 43.0889 57.884 43.5099 57.8398C44.5099 57.6398 45.5949 57.6398 46.5099 57.0448C47.1012 56.6624 47.5754 56.124 47.8799 55.4891C48.1844 54.8542 48.3075 54.1474 48.2356 53.4469C48.1637 52.7464 47.8996 52.0795 47.4724 51.5197C47.0452 50.9599 46.4716 50.529 45.8149 50.2748Z" fill="#ABFFE1"/>
<path d="M40.1401 58.4152C40.3225 58.578 40.522 58.7205 40.7351 58.8402C41.0625 58.1309 41.6289 57.5592 42.3351 57.2252C42.5941 57.142 42.8633 57.0949 43.1351 57.0852C43.2101 57.0852 43.1751 57.0402 43.1351 57.0352C42.8418 57.0085 42.5617 56.9009 42.326 56.7243C42.0903 56.5478 41.9082 56.3092 41.8001 56.0352C41.7533 55.8879 41.6767 55.7517 41.5751 55.6352C41.2801 55.3902 41.4101 55.6752 41.4101 55.7252C41.5008 55.8335 41.5666 55.9604 41.6029 56.0969C41.6392 56.2334 41.6451 56.3762 41.6201 56.5152C41.1998 57.2021 40.7033 57.8395 40.1401 58.4152Z" fill="#ABFFE1"/>
<path d="M63.2147 47.0756C59.5558 47.0542 56.0377 45.6629 53.3537 43.1761C50.6697 40.6893 49.0147 37.2873 48.7147 33.6406L30.0547 52.0006C27.9447 54.0756 25.7897 56.2506 24.7897 59.0306C24.2167 60.7606 24.0853 62.6063 24.4076 64.4C24.7298 66.1937 25.4954 67.8783 26.6347 69.3006C27.8072 70.6903 29.251 71.8261 30.8776 72.6385C32.5042 73.4509 34.2794 73.9229 36.0947 74.0256C37.5633 74.1424 39.0382 73.8969 40.3897 73.3106C41.6572 72.5886 42.785 71.6454 43.7197 70.5256C50.7897 62.9656 57.5531 55.1323 64.0097 47.0256C63.7466 47.0648 63.4807 47.0816 63.2147 47.0756ZM44.4997 42.3006C44.5697 41.9856 45.0597 42.1206 44.9997 42.4356C44.7539 43.6685 44.7539 44.9378 44.9997 46.1706C45.0447 46.4856 44.5647 46.6156 44.4997 46.3006C44.2148 44.9825 44.2148 43.6187 44.4997 42.3006ZM46.8797 57.3906C46.0428 57.9002 45.0931 58.1956 44.1147 58.2506C43.4251 58.2996 42.7608 58.5308 42.1897 58.9206C41.6897 59.3306 41.7397 59.7606 39.9547 61.4606C39.0347 62.4606 37.4547 61.8256 37.0347 60.5606C36.8547 59.8806 37.4147 59.2456 37.7847 58.7456C38.7847 57.3406 39.1697 57.6206 39.5247 56.7106C39.795 55.8569 39.9628 54.974 40.0247 54.0806C40.1697 51.9306 41.4797 50.0306 43.6447 49.5806C44.2012 49.4732 44.7734 49.4764 45.3286 49.5902C45.8839 49.7039 46.4113 49.9259 46.8807 50.2435C47.3501 50.5611 47.7523 50.968 48.0645 51.4411C48.3766 51.9142 48.5924 52.4441 48.6997 53.0006C48.8452 53.8292 48.7518 54.6821 48.4304 55.4595C48.109 56.2369 47.5729 56.9067 46.8847 57.3906H46.8797ZM49.9997 48.7106L52.8797 46.0256C53.1147 45.8056 53.4697 46.1606 53.2347 46.3806L50.3497 49.0656C50.0947 49.2856 49.7397 48.9306 49.9997 48.7106ZM56.0747 54.1106C54.6147 54.7656 52.2747 54.6656 52.4247 54.1106C52.4329 54.0776 52.4475 54.0465 52.4679 54.0192C52.4882 53.9919 52.5138 53.9689 52.5432 53.9517C52.5726 53.9344 52.6051 53.9232 52.6388 53.9188C52.6726 53.9143 52.7069 53.9166 52.7397 53.9256C53.7627 54.2093 54.8523 54.1316 55.8247 53.7056C55.853 53.6851 55.8853 53.6706 55.9195 53.6633C55.9537 53.656 55.9891 53.656 56.0233 53.6632C56.0575 53.6704 56.0899 53.6847 56.1182 53.7052C56.1466 53.7257 56.1703 53.7519 56.1879 53.7822C56.2055 53.8124 56.2165 53.846 56.2203 53.8808C56.2241 53.9155 56.2205 53.9507 56.2099 53.984C56.1992 54.0174 56.1817 54.0481 56.1584 54.0742C56.1351 54.1003 56.1066 54.1212 56.0747 54.1356V54.1106Z" fill="#ABFFE1"/>
<path d="M73.4997 20.1053C70.9197 20.0503 55.8497 26.5503 51.9647 28.1053C51.299 28.3154 50.676 28.6422 50.1247 29.0703C48.7897 30.1303 48.5797 32.0703 48.7347 33.7703C49.0653 37.3937 50.7337 40.7639 53.4145 43.2238C56.0954 45.6837 59.5964 47.0568 63.2347 47.0753C64.202 47.1448 65.1676 46.9199 66.0047 46.4303C67.0047 45.7403 67.5047 44.4853 67.8747 43.3253C69.1897 39.3253 76.2397 22.7203 74.6047 20.5403C74.4663 20.3878 74.2947 20.2692 74.103 20.1937C73.9114 20.1183 73.7049 20.088 73.4997 20.1053Z" fill="#FEDAF6"/>
<path d="M54.1098 20.375C53.9457 20.4358 53.7677 20.4493 53.5962 20.4139C53.4247 20.3786 53.2666 20.2958 53.1398 20.175C53.0329 20.0142 52.9707 19.8278 52.9598 19.635L52.7398 18.21C52.5498 19.845 52.2398 20.855 50.5898 20.855C51.1327 20.8765 51.6654 21.0092 52.1548 21.245C52.3917 21.3648 52.5908 21.5477 52.7303 21.7736C52.8697 21.9995 52.9439 22.2595 52.9448 22.525C52.9994 21.9526 53.241 21.4142 53.6324 20.993C54.0238 20.5718 54.543 20.2913 55.1098 20.195C54.7684 20.1946 54.4297 20.2555 54.1098 20.375Z" fill="#FFE7AB"/>
<path d="M55.1302 19.9448C54.2102 19.9148 54.0352 20.3448 53.4252 20.0898C53.1802 19.9348 53.1902 19.5048 53.1552 19.2498L53.0002 18.1348C52.9502 17.8348 52.5352 17.9498 52.5002 18.2048C52.3002 19.6248 52.1202 20.5948 50.5902 20.5998C50.2602 20.5998 50.2802 21.0648 50.5902 21.0998C51.4152 21.1948 52.7402 21.4348 52.7152 22.5348C52.7152 22.8598 53.1802 22.8548 53.2152 22.5348C53.2727 22.0151 53.4997 21.5288 53.8612 21.1511C54.2227 20.7733 54.6985 20.5251 55.2152 20.4448C55.5002 20.3948 55.3902 19.9998 55.1302 19.9448ZM52.9402 21.6198C52.644 21.2046 52.2067 20.9113 51.7102 20.7948C52.7102 20.2248 52.4552 19.9648 52.6652 19.4148L52.6952 19.6098C52.6983 19.7787 52.7374 19.9449 52.8099 20.0975C52.8823 20.2501 52.9864 20.3856 53.1152 20.4948C53.2622 20.5981 53.4357 20.6571 53.6152 20.6648C53.3263 20.9329 53.0965 21.2581 52.9402 21.6198Z" fill="#EFAC54"/>
<path d="M63.78 63.2051C63.4915 63.1346 63.2281 62.9857 63.019 62.7748C62.8098 62.5639 62.6631 62.2992 62.595 62.0101C62.4702 61.4297 62.455 60.8311 62.55 60.2451C62.205 62.0751 61.685 63.5901 59.79 63.6201L61.37 64.4401C61.608 64.5345 61.8034 64.7122 61.92 64.9401C62.08 65.3651 61.735 66.0301 62.155 66.2001C62.1919 65.4487 62.514 64.7396 63.0557 64.2174C63.5973 63.6953 64.3177 63.3994 65.07 63.3901C64.72 63.1151 64.215 63.2801 63.78 63.2051Z" fill="#FFE7AB"/>
<path d="M65.185 63.1606C64.8936 62.991 64.5549 62.9208 64.22 62.9605C64.039 62.9823 63.8553 62.9636 63.6823 62.9057C63.5094 62.8477 63.3515 62.752 63.22 62.6255C62.59 62.0105 62.7201 61.0306 62.7851 60.2306C62.8151 59.9506 62.3451 59.8905 62.2851 60.1655C62.1136 61.0132 61.8417 61.8373 61.475 62.6205C61.2563 62.8478 60.9948 63.0297 60.7057 63.1558C60.4166 63.2819 60.1054 63.3498 59.79 63.3556C59.7351 63.355 59.6814 63.3726 59.6375 63.4056C59.5935 63.4387 59.5616 63.4853 59.5468 63.5382C59.532 63.5912 59.5351 63.6475 59.5556 63.6986C59.576 63.7496 59.6128 63.7925 59.6601 63.8205L60.815 64.4305C61.085 64.5705 61.595 64.7305 61.69 65.0605C61.825 65.5155 61.455 66.1155 62.02 66.4005C62.0579 66.4224 62.1009 66.434 62.1447 66.434C62.1884 66.4341 62.2314 66.4227 62.2694 66.4009C62.3074 66.3792 62.3389 66.3478 62.361 66.31C62.383 66.2722 62.3948 66.2293 62.395 66.1855C62.427 65.4988 62.7213 64.8504 63.2171 64.3742C63.7129 63.8979 64.3725 63.6299 65.06 63.6255C65.1146 63.625 65.1675 63.6066 65.2106 63.5732C65.2537 63.5398 65.2848 63.4931 65.2989 63.4405C65.3131 63.3878 65.3096 63.3319 65.2891 63.2813C65.2685 63.2308 65.232 63.1884 65.185 63.1606ZM62.185 65.0105C62.149 64.8416 62.0697 64.6848 61.955 64.5555C61.6869 64.331 61.3869 64.1474 61.065 64.0105L60.565 63.7455C61.0092 63.6549 61.415 63.4305 61.7278 63.1025C62.0407 62.7744 62.2456 62.3585 62.315 61.9106C62.3706 62.2788 62.5343 62.6222 62.7853 62.8972C63.0364 63.1723 63.3634 63.3666 63.725 63.4555C63.0476 63.7757 62.503 64.3221 62.185 65.0005V65.0105Z" fill="#EFAC54"/>
<path d="M17.29 37.5002L15.165 39.3402L15.82 40.0802L17.12 38.9552C17.1512 38.9279 17.1874 38.907 17.2267 38.8937C17.2659 38.8804 17.3074 38.875 17.3488 38.8778C17.3901 38.8806 17.4305 38.8915 17.4676 38.91C17.5047 38.9284 17.5378 38.9539 17.565 38.9852L19.325 41.0002C19.383 41.0727 19.4116 41.1644 19.4051 41.257C19.3986 41.3496 19.3575 41.4364 19.29 41.5002L18 42.6202L18.65 43.3652L20.775 41.5402C20.8454 41.4784 20.889 41.3916 20.8965 41.2983C20.9039 41.2049 20.8747 41.1123 20.815 41.0402L17.785 37.5402C17.7553 37.5049 17.7188 37.4759 17.6777 37.4548C17.6367 37.4337 17.5919 37.4209 17.5459 37.4172C17.4999 37.4134 17.4536 37.4189 17.4097 37.4331C17.3658 37.4473 17.3251 37.4701 17.29 37.5002Z" fill="#DFEDED"/>
<path d="M25.7652 12.6006C25.5264 12.5996 25.2928 12.6696 25.0938 12.8016C24.8949 12.9336 24.7397 13.1218 24.6479 13.3421C24.556 13.5625 24.5318 13.8052 24.5781 14.0394C24.6244 14.2737 24.7393 14.4888 24.9081 14.6576C25.0769 14.8265 25.2921 14.9413 25.5263 14.9877C25.7605 15.034 26.0032 15.0097 26.2236 14.9179C26.444 14.8261 26.6321 14.6709 26.7642 14.4719C26.8962 14.273 26.9662 14.0393 26.9652 13.8006C26.9652 13.643 26.9341 13.487 26.8738 13.3414C26.8135 13.1958 26.7251 13.0635 26.6137 12.9521C26.5023 12.8406 26.37 12.7522 26.2244 12.6919C26.0788 12.6316 25.9228 12.6006 25.7652 12.6006Z" fill="#5E503B"/>
<path d="M31.7249 15.6555C32.1881 15.621 32.6204 15.4097 32.9322 15.0654C33.244 14.721 33.4114 14.2699 33.3999 13.8055C33.4132 13.3994 33.3128 12.9976 33.1099 12.6455C33.1359 12.5998 33.1466 12.547 33.1403 12.4948C33.134 12.4425 33.1111 12.3937 33.0749 12.3555C32.9399 12.2205 32.7949 12.2855 32.6649 12.3905C31.878 13.0283 30.9932 13.5348 30.0449 13.8905C29.9936 13.9074 29.9485 13.9394 29.9155 13.9821C29.8825 14.0249 29.8632 14.0766 29.8599 14.1305C29.9241 14.5717 30.1512 14.9729 30.4963 15.2551C30.8414 15.5373 31.2797 15.6802 31.7249 15.6555ZM32.7249 12.9705C32.8621 13.2322 32.9274 13.5255 32.9143 13.8207C32.9011 14.1158 32.8098 14.4022 32.6499 14.6505C32.5087 14.8362 32.3197 14.98 32.1031 15.0664C31.8864 15.1529 31.6504 15.1787 31.4202 15.1412C31.19 15.1037 30.9743 15.0043 30.7963 14.8535C30.6183 14.7028 30.4847 14.5064 30.4099 14.2855C31.232 13.9459 32.0081 13.5041 32.7199 12.9705H32.7249Z" fill="#5E503B"/>
<path d="M74.9349 20.5952C74.2749 19.4952 72.7899 19.8402 71.5399 20.2352C65.8849 22.0252 61.9149 23.7352 53.2949 27.2752C52.1749 27.7352 50.8849 28.0852 49.9499 28.8702C48.6199 29.9852 48.3599 31.8702 48.4499 33.5402L43.5799 38.3402C43.7099 37.9302 43.8349 37.5152 43.9449 37.1002C44.2099 36.1002 44.4449 34.9402 43.7949 34.0252C43.1449 33.1102 42.0849 33.0952 41.1049 33.4552C40.1249 33.8152 39.2199 34.1852 38.2899 34.5752C37.3449 33.7752 36.6449 32.6652 36.3899 30.7702C36.2649 30.0352 36.1699 29.3002 36.0949 28.5602C38.9499 26.0202 41.6649 23.3002 43.7199 20.0602C44.4252 19.0711 44.9204 17.9481 45.1749 16.7602C45.3099 15.8552 45.2399 14.4452 44.0949 14.2602C42.9499 14.0752 42.1499 15.1352 41.4699 15.8502C41.1249 16.2102 40.7849 16.5752 40.4699 16.9502C40.5895 14.0938 39.6495 11.2939 37.8305 9.08829C36.0116 6.88265 33.4419 5.42677 30.6149 5.00024C31.1149 3.09524 29.9099 0.860243 28.0349 0.865243C27.9913 0.866094 27.9487 0.878117 27.911 0.900162C27.8734 0.922208 27.842 0.953539 27.82 0.991161C27.7979 1.02878 27.7858 1.07144 27.785 1.11505C27.7841 1.15865 27.7944 1.20176 27.8149 1.24024C28.2249 2.13524 26.9399 2.87024 26.2499 3.04524C23.5249 3.74524 22.0949 3.28524 19.6149 4.22524C16.4999 5.43524 13.7949 9.14524 14.5599 12.6802C14.592 12.7536 14.6086 12.8327 14.6086 12.9127C14.6086 12.9928 14.592 13.0719 14.5599 13.1452C14.3257 13.3806 14.1053 13.6293 13.8999 13.8902C12.4849 15.7302 12.2999 18.9352 13.7649 21.2402C12.9199 23.0402 11.5049 23.9202 9.70493 24.8052C6.94584 26.0339 4.5828 28.0057 2.87993 30.5002C1.93234 31.8779 1.20841 33.3966 0.734934 35.0002C0.72272 35.0477 0.724735 35.0977 0.740729 35.1441C0.756722 35.1904 0.785989 35.231 0.824886 35.2609C0.863784 35.2907 0.910597 35.3085 0.9595 35.3119C1.0084 35.3154 1.05724 35.3043 1.09993 35.2802C3.69493 33.7802 6.86493 35.0752 9.42493 36.6602L3.19993 42.3152C3.00129 42.4889 2.87932 42.734 2.86059 42.9972C2.84186 43.2603 2.92789 43.5202 3.09993 43.7202L11.9249 53.9102C12.0844 54.0887 12.3026 54.204 12.5399 54.2352C13.0649 54.4602 14.6299 54.7352 15.0399 54.4002L22.2849 47.8252C22.485 47.6546 22.6098 47.4119 22.6323 47.1499C22.6547 46.8878 22.573 46.6275 22.4049 46.4252L19.4499 43.0002L20.9499 41.7102C21.062 41.603 21.1295 41.4574 21.1388 41.3026C21.148 41.1477 21.0984 40.9951 20.9999 40.8752L20.4499 40.2452C21.5399 39.6752 22.9499 38.5052 25.6199 36.4302C25.8474 39.2251 26.2246 42.0058 26.7499 44.7602C26.7674 44.8195 26.8062 44.8701 26.8589 44.9024C26.9115 44.9347 26.9742 44.9464 27.0349 44.9352C26.4949 46.9352 25.9799 48.9352 25.5699 51.0252C25.5284 51.1552 25.5016 51.2893 25.4899 51.4252L17.7049 55.5002C17.5302 55.5808 17.3784 55.7039 17.2635 55.8583C17.1487 56.0128 17.0744 56.1935 17.0476 56.3841C17.0207 56.5747 17.0421 56.7689 17.1098 56.9491C17.1774 57.1292 17.2892 57.2895 17.4349 57.4152C17.8866 57.7508 18.3727 58.0374 18.8849 58.2702C20.5545 59.1629 22.3211 59.8609 24.1499 60.3502C22.8699 66.7502 27.6849 73.3502 35.1999 74.2352C36.719 74.461 38.2695 74.3396 39.7349 73.8802C39.9083 73.8102 40.0749 73.7352 40.2349 73.6552C40.7349 76.9702 40.8149 77.8402 41.4249 79.9902C41.5749 80.9902 42.3199 81.5152 43.2999 80.4202C44.5149 79.0602 45.0949 77.1902 45.7999 75.5452L51.3999 62.4452C55.8999 57.3552 60.2649 52.0952 64.0949 47.2602C64.5163 47.21 64.9327 47.1247 65.3399 47.0052C67.0649 46.3902 67.6449 44.6802 68.1999 43.1002C69.6999 38.8152 74.2749 28.0402 75.0349 22.5252C75.1703 21.8842 75.1358 21.2189 74.9349 20.5952ZM41.9099 16.0952C42.2663 15.6887 42.6652 15.3216 43.0999 15.0002C43.5249 14.7302 44.2049 14.5952 44.5049 15.1202C44.7244 15.6346 44.7751 16.2052 44.6499 16.7502C44.3951 17.8505 43.9336 18.8923 43.2899 19.8202C41.3349 22.7052 39.6149 24.7302 36.0549 27.9352C36.0049 27.3352 35.9699 26.7352 35.9549 26.1352C36.4928 25.7237 36.9946 25.267 37.4549 24.7702C39.1782 22.8063 40.2293 20.3433 40.4549 17.7402C40.8949 17.1702 41.3949 16.6302 41.9099 16.0952ZM39.8799 15.0002C40.2152 17.7892 39.5948 20.6095 38.1199 23.0002C34.2649 29.1552 24.1199 30.7502 18.8199 26.3452C18.8558 26.2544 18.8842 26.1607 18.9049 26.0652C18.9649 25.7502 18.4749 25.6152 18.4049 25.9302C18.3184 26.2761 18.0999 26.5744 17.7962 26.7613C17.4925 26.9482 17.1277 27.0088 16.7799 26.9302C15.2549 26.6102 13.9649 25.1052 14.6049 23.6502C14.7387 23.3467 14.9666 23.0942 15.2549 22.9302C16.5465 23.9955 18.1708 24.574 19.8449 24.5652C19.9112 24.5652 19.9748 24.5389 20.0217 24.492C20.0686 24.4451 20.0949 24.3815 20.0949 24.3152C20.0949 24.2489 20.0686 24.1854 20.0217 24.1385C19.9748 24.0916 19.9112 24.0652 19.8449 24.0652C19.5462 24.0902 19.2465 24.0296 18.9809 23.8906C18.7153 23.7516 18.4947 23.5399 18.3449 23.2802C18.0675 22.6786 17.9487 22.0158 17.9999 21.3552C18.2299 18.3552 18.7049 17.2052 18.7299 16.2452C18.6896 15.4856 18.5205 14.7383 18.2299 14.0352C21.1814 12.7345 24.0066 11.1645 26.6699 9.34524C28.0499 8.38024 29.7699 7.12024 30.4449 5.50024C32.836 5.84401 35.0502 6.95707 36.7525 8.67108C38.4548 10.3851 39.5526 12.6068 39.8799 15.0002ZM13.6599 15.2002C13.8252 14.7936 14.0511 14.4143 14.3299 14.0752C14.5899 13.7602 15.0149 13.4952 15.0799 13.0752C15.1099 12.5752 14.9499 12.4852 14.9149 11.7252C14.7399 8.64024 17.3699 5.37524 20.2899 4.53024C23.2099 3.68524 25.4599 4.18524 27.1999 3.18524C27.8649 2.80524 28.4799 2.18524 28.3799 1.40024C30.1749 1.74024 30.9799 4.62524 29.2899 6.48524C28.3811 7.47648 27.3415 8.3394 26.1999 9.05024C23.5431 10.8474 20.7242 12.3925 17.7799 13.6652C17.7322 13.6923 17.6949 13.7346 17.674 13.7854C17.6532 13.8361 17.65 13.8924 17.6649 13.9452C18.9349 16.6202 17.5799 17.8852 17.5099 21.5252C17.4753 22.2266 17.6198 22.9252 17.9299 23.5552C17.9964 23.6658 18.0735 23.7696 18.1599 23.8652C17.2617 23.6439 16.4211 23.2334 15.6942 22.6612C14.9673 22.089 14.371 21.3682 13.945 20.547C13.519 19.7258 13.2733 18.8232 13.2241 17.8994C13.1749 16.9756 13.3235 16.052 13.6599 15.1902V15.2002ZM1.36993 34.5852C2.2914 31.8753 3.93349 29.4675 6.11994 27.6202C7.34608 26.6348 8.68966 25.8051 10.1199 25.1502C11.8249 24.3002 13.1999 23.3652 14.0699 21.6802C14.308 22.003 14.574 22.3042 14.8649 22.5802C14.538 22.8322 14.2852 23.1677 14.1329 23.5514C13.9807 23.9351 13.9348 24.3527 13.9999 24.7602C14.143 25.5196 14.5483 26.2045 15.1451 26.6953C15.7419 27.1861 16.4923 27.4516 17.2649 27.4452C17.5285 27.437 17.7869 27.3694 18.0207 27.2473C18.2544 27.1252 18.4576 26.9519 18.6149 26.7402C20.7389 28.3613 23.3283 29.2554 25.9999 29.2902C25.9099 29.7402 25.8399 30.1852 25.7799 30.6352C23.0845 32.8089 20.6739 35.3136 18.6049 38.0902L17.9999 37.3852C17.8999 37.2614 17.7551 37.182 17.5969 37.1643C17.4388 37.1465 17.28 37.1917 17.1549 37.2902L15.6549 38.6052C13.4699 36.1052 13.5949 36.2252 13.5449 36.1902C12.7599 35.6902 11.1399 35.1902 10.4649 35.7352L9.81993 36.3252C7.22493 34.7652 4.09993 33.3652 1.36993 34.5852ZM18.6599 40.6252L19.1299 41.1752C19.1489 41.1956 19.1595 41.2224 19.1595 41.2502C19.1595 41.2781 19.1489 41.3049 19.1299 41.3252L18.4999 41.8902L16.6299 39.7352L17.3099 39.1452C17.3156 39.1389 17.3225 39.1337 17.3302 39.1302C17.338 39.1267 17.3464 39.1249 17.3549 39.1249C17.3634 39.1249 17.3719 39.1267 17.3796 39.1302C17.3874 39.1337 17.3943 39.1389 17.3999 39.1452L17.6899 39.4802C17.4999 40.0902 18.0399 40.5852 18.6599 40.6252ZM16.2249 40.0602L18.0949 42.2202L17.8499 42.4302C17.816 42.4592 17.7907 42.4968 17.7766 42.5391C17.7625 42.5814 17.7602 42.6267 17.7699 42.6702L15.7299 40.3152C15.7727 40.3302 15.8187 40.3339 15.8633 40.326C15.908 40.3181 15.9498 40.2989 15.9849 40.2702L16.2249 40.0602ZM12.0899 36.1102C12.4913 36.2144 12.8729 36.3833 13.2199 36.6102L15.2499 38.9552C14.9749 39.1952 14.9249 39.2152 14.9149 39.3452C14.9049 39.4752 15.2549 39.7652 12.0899 36.1102ZM12.2999 53.5802L3.49993 43.3902C3.41528 43.2897 3.37359 43.16 3.38389 43.029C3.39418 42.898 3.45563 42.7763 3.55493 42.6902L10.7699 36.1102C10.8689 36.0295 10.995 35.9897 11.1224 35.999C11.2498 36.0083 11.3687 36.066 11.4549 36.1602L20.2799 46.3502C20.3631 46.4504 20.4038 46.5791 20.3935 46.7089C20.3833 46.8387 20.3228 46.9594 20.2249 47.0452L12.9999 53.6252C12.9007 53.7111 12.7717 53.7545 12.6407 53.7461C12.5098 53.7377 12.3874 53.6781 12.2999 53.5802ZM21.9999 46.7502C22.0828 46.8526 22.122 46.9836 22.1089 47.1146C22.0958 47.2457 22.0315 47.3663 21.9299 47.4502L14.7099 54.0252C14.2637 54.0988 13.8069 54.0767 13.3699 53.9602L20.5699 47.4152C20.7664 47.2426 20.8873 46.9999 20.907 46.7392C20.9266 46.4784 20.8433 46.2203 20.6749 46.0202L18.5749 43.6002C18.6168 43.6158 18.6621 43.6198 18.7061 43.6119C18.75 43.6039 18.7911 43.5844 18.8249 43.5552L19.0699 43.3452L21.9999 46.7502ZM20.6249 41.3502L18.6899 43.0002L18.3699 42.6302L19.4599 41.6852C19.5695 41.5761 19.6344 41.43 19.6418 41.2755C19.6492 41.121 19.5986 40.9693 19.4999 40.8502L17.7499 38.8202C17.6516 38.7079 17.5128 38.639 17.3638 38.6287C17.2148 38.6184 17.0678 38.6675 16.9549 38.7652L15.8449 39.7302L15.4999 39.3652C16.6299 38.3652 17.3499 37.7552 17.4449 37.6802C17.4543 37.6704 17.4655 37.6626 17.478 37.6572C17.4904 37.6519 17.5039 37.6491 17.5174 37.6491C17.531 37.6491 17.5444 37.6519 17.5569 37.6572C17.5693 37.6626 17.5806 37.6704 17.5899 37.6802L20.5899 41.1802C20.6057 41.1868 20.6197 41.1972 20.6306 41.2104C20.6414 41.2236 20.6489 41.2392 20.6524 41.256C20.6558 41.2727 20.6551 41.2901 20.6504 41.3065C20.6456 41.3229 20.6368 41.338 20.6249 41.3502ZM26.1249 36.0552L28.1249 34.5252C28.3799 34.3302 28.0249 33.9802 27.7749 34.1752C20.8699 39.5002 20.9999 39.4602 20.1049 39.8202L18.9349 38.4702C21.1961 35.4138 23.8776 32.6919 26.8999 30.3852C26.955 30.3401 26.9909 30.2757 27.0001 30.2051C27.0094 30.1345 26.9915 30.0631 26.9499 30.0052C26.7799 29.7552 26.5999 30.0052 26.3749 30.1802C26.4199 29.8852 26.4749 29.5902 26.5349 29.3002C29.7312 29.3341 32.8558 28.3538 35.4599 26.5002C35.524 28.0496 35.691 29.593 35.9599 31.1202C36.083 31.9127 36.3311 32.6806 36.6949 33.3952C37.0199 33.9608 37.4373 34.4678 37.9299 34.8952C33.4299 36.3952 29.6349 39.9602 27.1499 43.9852C26.6538 41.364 26.3099 38.7162 26.1199 36.0552H26.1249ZM26.3149 49.8702C26.7699 47.7952 27.3149 45.8152 27.8749 43.7302C30.3099 39.9502 34.2549 36.5002 38.4999 35.2302C38.5576 35.2119 38.6068 35.1737 38.6389 35.1224C38.6709 35.0711 38.6837 35.0101 38.6749 34.9502C39.1749 34.7552 39.6299 34.5702 40.0949 34.3752C40.9249 34.0502 42.0949 33.3202 42.9849 33.8752C43.8749 34.4302 43.7599 35.6602 43.5549 36.5402C43.3343 37.433 43.0639 38.3127 42.7449 39.1752L40.3799 41.5002C40.2149 40.9352 40.1449 40.3352 39.9799 39.7652C39.9657 39.7124 39.9345 39.6657 39.8912 39.6322C39.8478 39.5988 39.7947 39.5806 39.7399 39.5802C38.0049 39.7652 36.5699 40.9002 35.3849 42.1102C33.0649 44.6102 32.0049 46.3152 30.1349 48.9752L26.0349 51.1302C26.1099 50.7102 26.2199 50.2852 26.3099 49.8702H26.3149ZM35.8149 46.0102L31.0899 48.5002C32.2299 46.8336 33.4466 45.2169 34.7399 43.6502C35.9849 42.1952 37.5749 40.4602 39.5849 40.1502C39.6999 40.6202 39.8649 41.5502 39.9899 41.8852L35.8149 46.0102ZM18.1749 57.3302C17.9543 57.2353 17.7615 57.0856 17.6149 56.8952C17.5745 56.811 17.5512 56.7195 17.5465 56.6262C17.5417 56.5329 17.5555 56.4395 17.5872 56.3516C17.6188 56.2637 17.6676 56.1829 17.7308 56.114C17.7939 56.0451 17.8701 55.9894 17.9549 55.9502C18.1449 55.8602 16.3849 56.7802 34.5649 47.2302C28.6749 53.0302 28.0949 53.5152 26.5649 55.4202C25.4898 56.7422 24.7045 58.2753 24.2599 59.9202C22.1245 59.334 20.0778 58.4628 18.1749 57.3302ZM42.9349 80.0652C42.6549 80.5002 42.2299 80.8352 42.0049 80.2602C41.4149 78.5902 41.1549 76.2202 40.7249 73.4202C41.7311 72.8486 42.6365 72.1155 43.4049 71.2502C45.7099 68.7002 48.0599 66.2252 50.3399 63.6652C44.3299 77.6952 43.9999 78.8052 42.9349 80.0652ZM45.2899 68.5002C44.2199 69.7002 43.1199 70.8752 41.9449 72.0002C40.7807 73.0523 39.3035 73.6934 37.7399 73.8252C34.8884 74.0403 32.045 73.315 29.6449 71.7602C24.7599 68.6552 22.7599 62.0452 26.0899 57.0052C27.6849 54.5752 27.0299 55.3652 48.5299 34.2102C48.9301 37.6693 50.5336 40.8777 53.0599 43.2742C55.5862 45.6707 58.8746 47.1029 62.3499 47.3202C62.7081 47.3643 63.0692 47.3811 63.4299 47.3702C54.8999 58.0002 48.9549 64.3702 45.2899 68.5002ZM74.6049 21.8002C74.3299 26.6202 68.9899 39.4052 68.1449 41.8502C67.7999 42.8502 67.4549 43.8502 67.0299 44.7952C66.8378 45.2296 66.5544 45.6174 66.1989 45.9324C65.8434 46.2473 65.4243 46.4819 64.9699 46.6202C63.9846 46.8342 62.9697 46.8764 61.9699 46.7452C59.0365 46.4329 56.2665 45.239 54.0252 43.3208C51.7839 41.4026 50.1765 38.8503 49.4149 36.0002C48.9699 34.2802 48.6799 32.2202 49.4149 30.5352C49.7986 29.6826 50.4947 29.0097 51.3599 28.6552C51.6849 28.4802 64.5699 23.2552 66.9499 22.3652C70.1949 21.1452 73.5199 19.7152 74.4499 20.7552C74.5806 21.0872 74.6336 21.4446 74.6049 21.8002Z" fill="#5E503B"/>
<path d="M69.96 45.845C62.57 54.2 58.15 59.5 53.61 65C53.405 65.245 53.76 65.605 53.965 65.355C59.84 58.21 64.795 52.51 70.335 46.22C70.545 45.98 70.195 45.625 69.98 45.865L69.96 45.845Z" fill="#FFFDA9"/>
<path d="M74.7901 43.6556C71.7403 47.7083 68.4511 51.5752 64.9401 55.2356C64.7151 55.4656 65.0701 55.8206 65.2901 55.5906C68.8374 51.911 72.1553 48.017 75.2251 43.9306C75.4201 43.6756 74.9851 43.4306 74.7901 43.6806V43.6556Z" fill="#FFFDA9"/>
<path d="M18.0549 60.7706C14.2199 65.4306 4.11986 77.2156 2.99986 78.5006C2.78486 78.7406 3.13986 79.0956 3.34986 78.8556C7.34986 74.3006 17.3499 62.4356 18.4299 61.1106C18.6099 60.8756 18.2599 60.5006 18.0549 60.7706Z" fill="#FFFDA9"/>
<path d="M7.95013 67.5506C7.73013 67.7856 8.08513 68.1406 8.30513 67.9006L16.3601 59.2456C16.5801 59.0106 16.2251 58.6556 16.0051 58.8906C16.0001 58.9406 16.2201 58.6906 7.95013 67.5506Z" fill="#FFFDA9"/>
<path d="M33.8599 9.90484C33.8599 10.5188 34.1038 11.1076 34.5379 11.5418C34.9721 11.9759 35.5609 12.2198 36.1749 12.2198C36.7888 12.2198 37.3777 11.9759 37.8118 11.5418C38.246 11.1076 38.4899 10.5188 38.4899 9.90484C38.4899 9.29087 38.246 8.70204 37.8118 8.26789C37.3777 7.83374 36.7888 7.58984 36.1749 7.58984C35.5609 7.58984 34.9721 7.83374 34.5379 8.26789C34.1038 8.70204 33.8599 9.29087 33.8599 9.90484Z" fill="#FFCECC"/>
<path d="M33.6298 11.035C33.8681 11.035 34.1011 10.9643 34.2993 10.8319C34.4974 10.6995 34.6519 10.5113 34.7431 10.2911C34.8343 10.0709 34.8582 9.82866 34.8117 9.59492C34.7652 9.36117 34.6504 9.14646 34.4819 8.97794C34.3134 8.80942 34.0986 8.69465 33.8649 8.64815C33.6312 8.60166 33.3889 8.62552 33.1687 8.71673C32.9485 8.80793 32.7603 8.96238 32.6279 9.16054C32.4955 9.3587 32.4248 9.59167 32.4248 9.83C32.4242 9.98843 32.4549 10.1454 32.5152 10.2919C32.5755 10.4384 32.6643 10.5715 32.7763 10.6835C32.8883 10.7956 33.0214 10.8843 33.1679 10.9446C33.3144 11.0049 33.4714 11.0357 33.6298 11.035Z" fill="#5E503B"/>
</svg>
