<svg width="150" height="150" viewBox="0 0 150 150" fill="none" xmlns="http://www.w3.org/2000/svg">
<path d="M131.809 129.711L136.273 125.356C138.138 123.446 139.182 120.882 139.182 118.212C139.182 115.542 138.137 112.977 136.271 111.067C136.27 111.066 136.269 111.065 136.268 111.064L117.309 92.3034C117.309 92.3031 117.309 92.3028 117.308 92.3026C115.414 90.4423 112.866 89.4 110.211 89.4C107.556 89.4 105.007 90.4426 103.113 92.3034L103.113 92.3043C101.015 94.3545 98.1982 95.5024 95.2651 95.5024C92.3319 95.5024 89.5152 94.3545 87.4175 92.3043L87.4134 92.3002L57.633 62.5098C57.6325 62.5093 57.632 62.5088 57.6314 62.5082C56.5912 61.4825 55.7652 60.2604 55.2013 58.9127C54.6371 57.5644 54.3465 56.1174 54.3465 54.6557C54.3465 53.1941 54.6371 51.7471 55.2013 50.3988C55.7649 49.0518 56.5904 47.8302 57.6299 46.8048C59.4891 44.9112 60.5308 42.3634 60.5308 39.7095C60.5308 37.0551 59.4887 34.5068 57.6288 32.6131C57.6283 32.6126 57.6278 32.6122 57.6274 32.6117L38.7577 13.7619C38.7571 13.7613 38.7565 13.7607 38.7558 13.7601C36.8452 11.8936 34.2802 10.8486 31.6092 10.8486C28.9393 10.8486 26.3753 11.8927 24.465 13.7577L20.1006 18.2314L20.1007 18.2314L20.094 18.238C14.9985 23.2691 11.7897 29.9007 11.0067 37.0185C10.224 44.1345 11.9135 51.303 15.7914 57.3204C36.2372 87.4511 62.2315 113.413 92.3852 133.82L92.7051 134.027C98.7249 137.91 105.898 139.602 113.019 138.817C120.139 138.032 126.772 134.819 131.802 129.718L131.802 129.717L131.809 129.711Z" fill="#D0CFCE" stroke="#676767"/>
<path d="M92.434 134.447C98.5504 138.393 105.839 140.111 113.074 139.314C120.308 138.516 127.048 135.252 132.158 130.069L136.626 125.71C138.585 123.706 139.682 121.015 139.682 118.212C139.682 115.41 138.585 112.718 136.626 110.714L117.66 91.9467C115.672 89.9941 112.997 88.9 110.211 88.9C107.425 88.9 104.75 89.9941 102.763 91.9467C100.759 93.9056 98.0676 95.0024 95.2651 95.0024C92.4625 95.0024 89.7713 93.9056 87.7671 91.9467L57.984 62.1537C56.9903 61.1742 56.2011 60.0069 55.6625 58.7197C55.1239 57.4325 54.8465 56.0511 54.8465 54.6557C54.8465 53.2604 55.1239 51.879 55.6625 50.5918C56.2011 49.3046 56.9903 48.1373 57.984 47.1578C59.9367 45.1704 61.0308 42.4956 61.0308 39.7095C61.0308 36.9234 59.9367 34.2487 57.984 32.2613L39.1072 13.4043C37.103 11.4454 34.4117 10.3486 31.6092 10.3486C28.8066 10.3486 26.1154 11.4454 24.1112 13.4043L19.7427 17.8822C14.5655 22.994 11.3052 29.7319 10.5097 36.9639C9.7142 44.1959 11.4319 51.4813 15.3743 57.5962C35.9306 87.891 62.0862 113.979 92.434 134.457V134.447Z" fill="#D0CFCE" stroke="#676767" stroke-width="1.71" stroke-linecap="round" stroke-linejoin="round"/>
</svg>
