<svg width="324" height="320" viewBox="0 0 324 320" fill="none" xmlns="http://www.w3.org/2000/svg">
<path d="M41.4805 212.555H72.6289V226.621H41.4805V212.555Z" fill="#0400BF"/>
<path d="M41.4805 232.858H72.6289V246.924H41.4805V232.858Z" fill="#0400BF"/>
<path d="M41.4805 253.161H72.6289V292.014H41.4805V253.161Z" fill="#0400BF"/>
<path d="M267.892 57.2773C269.689 57.2773 271.446 57.8104 272.941 58.8091C274.436 59.8078 275.601 61.2273 276.289 62.888C276.976 64.5488 277.156 66.3762 276.806 68.1393C276.455 69.9024 275.589 71.5218 274.318 72.7929C273.047 74.064 271.428 74.9296 269.665 75.2803C267.902 75.631 266.074 75.451 264.413 74.7631C262.753 74.0752 261.333 72.9103 260.334 71.4156C259.336 69.921 258.803 68.1638 258.803 66.3662C258.804 63.9559 259.761 61.6447 261.466 59.9404C263.17 58.2361 265.481 57.2782 267.892 57.2773Z" fill="#0400BF"/>
<path d="M267.892 99.916C269.69 99.9153 271.448 100.448 272.943 101.446C274.439 102.445 275.605 103.865 276.294 105.526C276.983 107.187 277.163 109.015 276.813 110.779C276.463 112.543 275.598 114.163 274.326 115.435C273.055 116.707 271.436 117.574 269.672 117.925C267.908 118.277 266.08 118.097 264.419 117.41C262.757 116.722 261.337 115.557 260.337 114.062C259.337 112.568 258.803 110.81 258.803 109.012C258.802 106.6 259.759 104.288 261.464 102.582C263.168 100.876 265.48 99.9174 267.892 99.916Z" fill="#0400BF"/>
<path d="M13.7129 76.5922C13.7129 78.8619 14.1599 81.1094 15.0285 83.2064C15.8971 85.3033 17.1702 87.2087 18.7751 88.8136C20.3801 90.4185 22.2854 91.6916 24.3824 92.5602C26.4793 93.4288 28.7268 93.8759 30.9965 93.8759C33.2662 93.8759 35.5137 93.4288 37.6107 92.5602C39.7076 91.6916 41.613 90.4185 43.2179 88.8136C44.8228 87.2087 46.0959 85.3033 46.9645 83.2064C47.8331 81.1094 48.2802 78.8619 48.2802 76.5922C48.2802 74.3225 47.8331 72.075 46.9645 69.9781C46.0959 67.8811 44.8228 65.9758 43.2179 64.3709C41.613 62.7659 39.7076 61.4928 37.6107 60.6242C35.5137 59.7556 33.2662 59.3086 30.9965 59.3086C28.7268 59.3086 26.4793 59.7556 24.3824 60.6242C22.2854 61.4928 20.3801 62.7659 18.7751 64.3709C17.1702 65.9758 15.8971 67.8811 15.0285 69.9781C14.1599 72.075 13.7129 74.3225 13.7129 76.5922Z" fill="#0400BF"/>
<path d="M186.662 40.9352C186.662 41.7609 186.99 42.5527 187.574 43.1365C188.158 43.7203 188.949 44.0482 189.775 44.0482C190.601 44.0482 191.393 43.7203 191.976 43.1365C192.56 42.5527 192.888 41.7609 192.888 40.9352C192.888 40.1096 192.56 39.3178 191.976 38.734C191.393 38.1502 190.601 37.8223 189.775 37.8223C188.949 37.8223 188.158 38.1502 187.574 38.734C186.99 39.3178 186.662 40.1096 186.662 40.9352Z" fill="#0400BF"/>
<path d="M67.2451 57.279C67.2451 57.6878 67.3256 58.0926 67.4821 58.4703C67.6385 58.848 67.8678 59.1911 68.1569 59.4802C68.446 59.7693 68.7891 59.9986 69.1668 60.155C69.5445 60.3115 69.9493 60.392 70.3581 60.392C70.7669 60.392 71.1717 60.3115 71.5494 60.155C71.9271 59.9986 72.2702 59.7693 72.5593 59.4802C72.8484 59.1911 73.0777 58.848 73.2341 58.4703C73.3906 58.0926 73.4711 57.6878 73.4711 57.279C73.4711 56.8702 73.3906 56.4654 73.2341 56.0877C73.0777 55.71 72.8484 55.3669 72.5593 55.0778C72.2702 54.7887 71.9271 54.5594 71.5494 54.403C71.1717 54.2465 70.7669 54.166 70.3581 54.166C69.9493 54.166 69.5445 54.2465 69.1668 54.403C68.7891 54.5594 68.446 54.7887 68.1569 55.0778C67.8678 55.3669 67.6385 55.71 67.4821 56.0877C67.3256 56.4654 67.2451 56.8702 67.2451 57.279Z" fill="#0400BF"/>
<path d="M46.2422 176.858C47.4626 176.859 48.6555 177.221 49.6701 177.899C50.6846 178.578 51.4752 179.542 51.9418 180.669C52.4085 181.797 52.5302 183.038 52.2917 184.235C52.0531 185.431 51.465 186.531 50.6017 187.393C49.7384 188.256 48.6386 188.843 47.4416 189.081C46.2445 189.318 45.0038 189.196 43.8765 188.728C42.7492 188.26 41.7859 187.469 41.1084 186.454C40.4309 185.439 40.0696 184.246 40.0703 183.025C40.0701 182.215 40.2296 181.412 40.5398 180.664C40.8499 179.915 41.3046 179.235 41.8778 178.662C42.451 178.09 43.1316 177.635 43.8804 177.326C44.6293 177.016 45.4319 176.858 46.2422 176.858Z" fill="#D88D63"/>
<path d="M249.885 27.3516C249.885 28.9885 250.535 30.5583 251.692 31.7157C252.85 32.8732 254.42 33.5234 256.057 33.5234C257.694 33.5234 259.263 32.8732 260.421 31.7157C261.578 30.5583 262.229 28.9885 262.229 27.3516C262.229 25.7147 261.578 24.1448 260.421 22.9874C259.263 21.8299 257.694 21.1797 256.057 21.1797C254.42 21.1797 252.85 21.8299 251.692 22.9874C250.535 24.1448 249.885 25.7147 249.885 27.3516Z" fill="#D88D63"/>
<path d="M138.284 0.875002C139.505 0.874 140.698 1.23495 141.714 1.91222C142.729 2.58949 143.521 3.55265 143.989 4.67993C144.457 5.80721 144.58 7.04799 144.343 8.24536C144.106 9.44274 143.52 10.5429 142.657 11.4069C141.795 12.2708 140.696 12.8597 139.499 13.099C138.302 13.3383 137.061 13.2173 135.933 12.7514C134.805 12.2854 133.84 11.4954 133.161 10.4812C132.482 9.46706 132.119 8.27425 132.117 7.05364C132.116 6.24281 132.274 5.43963 132.583 4.69007C132.892 3.94052 133.346 3.25929 133.919 2.6854C134.492 2.11151 135.172 1.6562 135.921 1.34555C136.67 1.0349 137.473 0.875001 138.284 0.875002Z" fill="#D88D63"/>
<path d="M12.9893 27.3516C12.9893 28.9885 13.6395 30.5583 14.797 31.7157C15.9544 32.8732 17.5243 33.5234 19.1611 33.5234C20.798 33.5234 22.3679 32.8732 23.5253 31.7157C24.6828 30.5583 25.333 28.9885 25.333 27.3516C25.333 25.7147 24.6828 24.1448 23.5253 22.9874C22.3679 21.8299 20.798 21.1797 19.1611 21.1797C17.5243 21.1797 15.9544 21.8299 14.797 22.9874C13.6395 24.1448 12.9893 25.7147 12.9893 27.3516Z" fill="#D88D63"/>
<path d="M237.578 189.973L229.926 191.108C228.241 191.111 226.617 190.48 225.377 189.34C224.137 188.199 223.371 186.634 223.232 184.955V184.877C222.943 183.244 223.254 181.562 224.106 180.14C224.958 178.717 226.295 177.65 227.871 177.134L235.476 176.005C235.013 176.149 230.903 177.526 231.895 184.117C232.021 185.599 232.656 186.992 233.692 188.059C234.728 189.126 236.101 189.803 237.578 189.973Z" fill="#69D6F9"/>
<path d="M290.643 50.6822V143.97C290.642 144.545 290.414 145.095 290.008 145.501C289.602 145.907 289.051 146.136 288.477 146.137H247.313C246.739 146.136 246.189 145.907 245.783 145.501C245.377 145.095 245.149 144.544 245.148 143.97V50.6822C245.149 50.1082 245.378 49.5579 245.783 49.1518C246.189 48.7457 246.739 48.517 247.313 48.5156H288.477C289.051 48.517 289.601 48.7457 290.007 49.1517C290.413 49.5577 290.642 50.108 290.643 50.6822ZM276.986 66.3722C276.987 64.5738 276.454 62.8157 275.456 61.3201C274.457 59.8245 273.038 58.6586 271.376 57.9698C269.715 57.2811 267.887 57.1005 266.123 57.4508C264.359 57.8011 262.739 58.6666 261.467 59.9378C260.195 61.2091 259.328 62.829 258.977 64.5927C258.626 66.3564 258.805 68.1847 259.493 69.8463C260.181 71.5079 261.346 72.9282 262.841 73.9276C264.336 74.927 266.094 75.4607 267.892 75.461C270.304 75.4614 272.616 74.5042 274.322 72.7997C276.027 71.0953 276.985 68.7833 276.986 66.3722ZM276.986 109.016C276.987 107.218 276.454 105.459 275.456 103.964C274.457 102.468 273.038 101.302 271.376 100.614C269.715 99.9249 267.887 99.7442 266.123 100.095C264.359 100.445 262.739 101.31 261.467 102.582C260.195 103.853 259.328 105.473 258.977 107.236C258.626 109 258.805 110.828 259.493 112.49C260.181 114.152 261.346 115.572 262.841 116.571C264.336 117.571 266.094 118.104 267.892 118.105C270.304 118.105 272.617 117.147 274.323 115.441C276.028 113.736 276.986 111.423 276.986 109.011V109.016Z" fill="#69D6F9"/>
<path d="M80.8161 206.362V299.641C80.8156 300.216 80.5875 300.766 80.1816 301.172C79.7758 301.579 79.2254 301.807 78.6512 301.808H37.4879C36.9135 301.807 36.363 301.579 35.9569 301.172C35.5507 300.766 35.3222 300.216 35.3213 299.641V206.362C35.3213 205.787 35.5496 205.236 35.9559 204.83C36.3622 204.424 36.9133 204.195 37.4879 204.195H78.6512C78.9356 204.195 79.2173 204.251 79.4801 204.36C79.7428 204.469 79.9816 204.629 80.1826 204.83C80.3837 205.031 80.5431 205.27 80.6518 205.533C80.7605 205.796 80.8163 206.077 80.8161 206.362ZM72.628 292.014V253.161H41.4813V292.014H72.628ZM72.628 246.925V232.858H41.4813V246.925H72.628ZM72.628 226.62V212.557H41.4813V226.623L72.628 226.62Z" fill="#69D6F9"/>
<path d="M172.87 30.3756V123.664C172.87 124.239 172.642 124.791 172.236 125.198C171.83 125.606 171.279 125.836 170.703 125.837H129.54C128.965 125.835 128.414 125.605 128.008 125.198C127.602 124.79 127.375 124.239 127.375 123.664V30.3756C127.375 29.8014 127.604 29.2508 128.009 28.8447C128.415 28.4385 128.966 28.2099 129.54 28.209H170.703C171.278 28.2094 171.829 28.4378 172.235 28.8441C172.641 29.2503 172.869 29.8011 172.87 30.3756Z" fill="#69D6F9"/>
<path d="M53.7472 50.6822V143.97C53.7472 144.255 53.691 144.538 53.5817 144.801C53.4724 145.065 53.3123 145.304 53.1105 145.506C52.9086 145.707 52.669 145.867 52.4053 145.976C52.1417 146.085 51.8591 146.141 51.5739 146.14H10.4139C10.1295 146.14 9.84783 146.084 9.58506 145.975C9.32229 145.866 9.08356 145.707 8.88251 145.505C8.68146 145.304 8.52203 145.065 8.41334 144.803C8.30464 144.54 8.24881 144.258 8.24903 143.974V50.6856C8.24836 50.4009 8.30387 50.1188 8.41236 49.8556C8.52086 49.5923 8.68022 49.3531 8.88132 49.1515C9.08241 48.9499 9.32129 48.79 9.58428 48.6809C9.84727 48.5718 10.1292 48.5156 10.4139 48.5156H51.5739C52.1492 48.5152 52.7013 48.7431 53.1088 49.1493C53.5162 49.5555 53.7459 50.1068 53.7472 50.6822ZM48.2801 76.5916C48.2804 73.1731 47.267 69.8314 45.3681 66.9889C43.4691 64.1464 40.7699 61.9308 37.6118 60.6224C34.4536 59.314 30.9784 58.9715 27.6256 59.6382C24.2728 60.3049 21.193 61.9508 18.7757 64.3679C16.3583 66.785 14.7121 69.8647 14.045 73.2174C13.378 76.5702 13.7202 80.0454 15.0283 83.2037C16.3364 86.3619 18.5517 89.0614 21.394 90.9606C24.2363 92.8598 27.578 93.8735 30.9964 93.8735C35.58 93.8735 39.9759 92.0528 43.2172 88.8119C46.4585 85.5709 48.2796 81.1752 48.2801 76.5916Z" fill="#69D6F9"/>
<path d="M230.383 52.7109C231 52.7099 231.603 52.892 232.116 53.234C232.629 53.5761 233.03 54.0627 233.266 54.6324C233.503 55.202 233.565 55.829 233.445 56.434C233.324 57.039 233.028 57.5948 232.591 58.0309C232.155 58.467 231.6 58.7639 230.995 58.884C230.39 59.0041 229.763 58.942 229.193 58.7055C228.623 58.469 228.137 58.0688 227.795 57.5555C227.453 57.0422 227.27 56.439 227.271 55.8222C227.272 54.9972 227.6 54.2061 228.183 53.6227C228.767 53.0393 229.558 52.7114 230.383 52.7109Z" fill="#0400BF"/>
<path d="M227.27 82.9001C227.27 83.7257 227.597 84.5175 228.181 85.1013C228.765 85.6851 229.557 86.0131 230.383 86.0131C231.208 86.0131 232 85.6851 232.584 85.1013C233.168 84.5175 233.495 83.7257 233.495 82.9001C233.495 82.0745 233.168 81.2827 232.584 80.6989C232 80.1151 231.208 79.7871 230.383 79.7871C229.557 79.7871 228.765 80.1151 228.181 80.6989C227.597 81.2827 227.27 82.0745 227.27 82.9001Z" fill="#0400BF"/>
<path d="M227.27 96.4392C227.27 97.2648 227.597 98.0566 228.181 98.6404C228.765 99.2242 229.557 99.5521 230.383 99.5521C231.208 99.5521 232 99.2242 232.584 98.6404C233.168 98.0566 233.495 97.2648 233.495 96.4392C233.495 95.6135 233.168 94.8217 232.584 94.2379C232 93.6541 231.208 93.3262 230.383 93.3262C229.557 93.3262 228.765 93.6541 228.181 94.2379C227.597 94.8217 227.27 95.6135 227.27 96.4392Z" fill="#0400BF"/>
<path d="M230.383 106.857C230.999 106.856 231.602 107.038 232.115 107.38C232.628 107.722 233.029 108.208 233.265 108.777C233.502 109.347 233.565 109.973 233.445 110.578C233.326 111.183 233.029 111.739 232.594 112.175C232.158 112.611 231.603 112.909 230.999 113.03C230.394 113.151 229.767 113.089 229.198 112.854C228.628 112.618 228.141 112.219 227.798 111.707C227.455 111.195 227.272 110.592 227.271 109.975C227.271 109.566 227.351 109.161 227.507 108.783C227.663 108.405 227.892 108.061 228.181 107.772C228.47 107.482 228.813 107.252 229.191 107.095C229.569 106.938 229.974 106.858 230.383 106.857Z" fill="#0400BF"/>
<path d="M97.4284 238.378C98.0448 238.377 98.6475 238.559 99.1603 238.901C99.6732 239.243 100.073 239.729 100.31 240.299C100.546 240.868 100.609 241.494 100.489 242.099C100.369 242.704 100.073 243.259 99.6378 243.695C99.2024 244.132 98.6475 244.429 98.0431 244.55C97.4387 244.671 96.812 244.61 96.2423 244.375C95.6726 244.139 95.1855 243.741 94.8425 243.228C94.4995 242.716 94.3161 242.114 94.3154 241.498C94.315 240.671 94.6426 239.879 95.2263 239.294C95.81 238.709 96.602 238.379 97.4284 238.378Z" fill="#0400BF"/>
<path d="M97.4284 265.455C98.0442 265.455 98.6461 265.638 99.1581 265.98C99.67 266.322 100.069 266.808 100.305 267.377C100.54 267.946 100.602 268.572 100.481 269.176C100.361 269.78 100.065 270.335 99.629 270.77C99.1935 271.205 98.6387 271.502 98.0347 271.621C97.4307 271.741 96.8047 271.679 96.236 271.444C95.6672 271.208 95.1811 270.808 94.8392 270.296C94.4974 269.784 94.3151 269.182 94.3154 268.566C94.3168 267.741 94.6452 266.95 95.2288 266.367C95.8123 265.784 96.6034 265.456 97.4284 265.455Z" fill="#0400BF"/>
<path d="M167.814 182.945C170.296 183.204 172.805 183.026 175.225 182.418C180.608 180.988 183.655 175.247 183.655 175.247C185.541 177.879 187.746 180.268 190.219 182.359L166.195 185.686C166.795 184.847 167.334 183.966 167.808 183.05L167.814 182.945Z" fill="#0400BF"/>
<path d="M157.915 164.03C164.061 155.438 179.778 142.115 190.29 141.046C193.128 140.753 206.683 146.69 217.267 151.427C217.267 151.427 241.941 150.545 245.337 154.376C259.416 170.223 271.753 213.572 274.161 218.387C276.57 223.202 311.272 242.579 322.774 248.53V318.641L254.985 277.628C250.684 278.155 246.335 278.155 242.034 277.628C205.622 270.557 156.826 233.707 147.378 229.328C140.437 226.117 138.786 219.399 137.914 214.89C137.727 213.616 137.438 212.36 137.052 211.132C136.456 209.924 135.665 208.825 134.709 207.877C133.567 206.623 132.198 205.325 130.978 204.118C130.014 203.2 129.122 202.21 128.309 201.155C127.354 199.824 126.812 198.241 126.752 196.604C126.692 194.966 127.116 193.348 127.971 191.95C128.615 190.783 129.424 189.715 130.373 188.78C133.732 185.413 141.797 188.289 142.123 188.401C142.438 185.945 143.369 183.609 144.827 181.609C149.936 173.681 151.09 169.363 152.853 167.026C153.423 166.239 154.2 165.625 155.097 165.251C155.753 164.969 156.733 164.545 157.915 164.03ZM167.813 182.944V183.056C167.339 183.972 166.8 184.853 166.201 185.692C163.882 189.159 160.568 191.843 156.694 193.39C156.206 193.559 155.691 193.709 155.174 193.841C157.248 195.987 159.035 198.393 160.49 200.998C160.869 201.68 161.2 202.386 161.482 203.112C161.482 203.112 180.196 214.679 183.209 216.35C183.209 216.35 202.429 206.153 208.289 203.307C208.289 203.307 202.012 196.875 200.655 195.171L229.937 191.107L237.59 189.971L241.009 189.464C242.856 189.185 244.517 188.185 245.629 186.684C246.74 185.182 247.212 183.302 246.94 181.453C246.668 179.605 245.675 177.94 244.178 176.822C242.682 175.704 240.803 175.225 238.954 175.489L235.528 175.996C235.515 175.995 235.502 175.995 235.489 175.996L227.884 177.125L190.238 182.351C187.764 180.26 185.56 177.872 183.674 175.239C183.674 175.239 180.632 180.985 175.244 182.41C172.817 183.023 170.302 183.203 167.813 182.944Z" fill="#D88D63"/>
<path d="M322.775 248.536C311.272 242.585 276.568 223.201 274.162 218.393C271.755 213.585 259.416 170.228 245.337 154.382C241.944 150.551 217.27 151.433 217.27 151.433" stroke="#0400BF" stroke-width="1.544" stroke-linecap="round" stroke-linejoin="round"/>
<path d="M142.12 188.415C141.794 188.303 133.73 185.427 130.37 188.793C129.421 189.729 128.612 190.797 127.968 191.964C127.113 193.361 126.689 194.98 126.749 196.617C126.809 198.255 127.351 199.838 128.306 201.169C129.119 202.223 130.011 203.214 130.975 204.132C132.195 205.338 133.564 206.636 134.706 207.89C135.662 208.838 136.453 209.938 137.049 211.145C137.435 212.373 137.724 213.63 137.911 214.904C138.784 219.411 140.435 226.125 147.375 229.341C156.823 233.72 205.619 270.577 242.031 277.642C246.332 278.168 250.681 278.168 254.982 277.642L322.771 318.655" stroke="#0400BF" stroke-width="1.544" stroke-linecap="round" stroke-linejoin="round"/>
<path d="M155.148 193.836H155.162C157.237 195.981 159.024 198.387 160.479 200.993C160.857 201.674 161.189 202.381 161.471 203.107C161.471 203.107 180.184 214.674 183.197 216.345C183.197 216.345 202.418 206.148 208.277 203.302C208.277 203.302 202 196.869 200.643 195.166L200.625 195.152" stroke="#0400BF" stroke-width="1.544" stroke-linecap="round" stroke-linejoin="round"/>
<path d="M134.708 207.883C134.708 207.883 136.692 200.731 138.341 198.858C139.991 196.986 135.764 192.648 133.063 190.711" stroke="#0400BF" stroke-width="1.544" stroke-linecap="round" stroke-linejoin="round"/>
<path d="M141.076 209.178C140.062 210.738 137.527 213.08 137.913 214.893" stroke="#0400BF" stroke-width="1.544" stroke-linecap="round" stroke-linejoin="round"/>
<path d="M190.291 182.418L190.218 182.359C187.745 180.268 185.54 177.879 183.654 175.247C183.654 175.247 180.612 180.993 175.224 182.418C172.804 183.026 170.296 183.204 167.814 182.945C166.747 182.852 165.688 182.676 164.648 182.418" stroke="#0400BF" stroke-width="1.544" stroke-linecap="round" stroke-linejoin="round"/>
<path d="M167.807 183.057C167.333 183.973 166.794 184.854 166.195 185.694C163.876 189.161 160.562 191.844 156.689 193.392C156.2 193.561 155.685 193.711 155.168 193.843C154.88 193.907 154.593 193.966 154.294 194.012C147.625 195.166 141.818 193.654 142.126 188.401C142.441 185.945 143.371 183.609 144.83 181.609C149.939 173.681 151.093 169.361 152.856 167.026C153.426 166.239 154.203 165.625 155.1 165.251C155.776 164.964 156.75 164.54 157.931 164.024C163.131 161.716 172.409 157.455 178.588 154.222C186.162 150.261 188.571 151.123 193.052 153.016C197.534 154.909 220.43 167.825 220.43 167.825" stroke="#0400BF" stroke-width="1.544" stroke-linecap="round" stroke-linejoin="round"/>
<path d="M229.085 156.661C226.925 155.787 222.455 153.75 217.269 151.435C206.686 146.703 193.129 140.761 190.291 141.053C179.78 142.118 164.063 155.44 157.916 164.037" stroke="#0400BF" stroke-width="1.544" stroke-linecap="round" stroke-linejoin="round"/>
<path d="M166.195 185.694L190.219 182.359L227.865 177.134" stroke="#0400BF" stroke-width="1.544" stroke-linecap="round" stroke-linejoin="round"/>
<path d="M229.925 191.108L200.643 195.173L161.092 200.667" stroke="#0400BF" stroke-width="1.544" stroke-linecap="round" stroke-linejoin="round"/>
<path d="M122.045 195.544L114.437 200.158L120.505 201.723L121.867 202.076L130.735 204.366" stroke="#0400BF" stroke-width="1.544" stroke-linecap="round" stroke-linejoin="round"/>
<path d="M127.955 191.956L122.045 195.544" stroke="#0400BF" stroke-width="1.544" stroke-linecap="round" stroke-linejoin="round"/>
<path d="M237.578 189.973L229.926 191.108C228.241 191.111 226.617 190.48 225.377 189.34C224.137 188.199 223.371 186.634 223.232 184.955V184.877C222.943 183.244 223.254 181.562 224.106 180.14C224.958 178.717 226.295 177.65 227.871 177.134L235.476 176.005" stroke="#0400BF" stroke-width="1.544" stroke-linecap="round" stroke-linejoin="round"/>
<path d="M237.579 189.973L240.998 189.466C242.845 189.186 244.506 188.187 245.618 186.685C246.729 185.184 247.201 183.303 246.929 181.455C246.657 179.607 245.664 177.941 244.168 176.824C242.671 175.706 240.792 175.227 238.943 175.491L235.517 175.998C235.504 175.997 235.491 175.997 235.478 175.998C235.015 176.142 230.905 177.519 231.897 184.11C232.022 185.593 232.655 186.987 233.691 188.056C234.727 189.125 236.1 189.802 237.579 189.973Z" stroke="#0400BF" stroke-width="1.544" stroke-linecap="round" stroke-linejoin="round"/>
<path d="M114.437 200.158L110.582 200.53" stroke="#0400BF" stroke-width="1.544" stroke-linecap="round" stroke-linejoin="round"/>
<path d="M51.6058 151.211H10.3851C8.0751 151.211 5.85987 150.293 4.22648 148.659C2.59308 147.026 1.67525 144.811 1.6748 142.501V50.722C1.6757 48.4122 2.59367 46.1972 4.22697 44.5639C5.86027 42.9306 8.07524 42.0126 10.3851 42.0117H51.6058C53.9158 42.0122 56.131 42.93 57.7644 44.5634C59.3978 46.1968 60.3157 48.412 60.3161 50.722V142.501C60.3157 144.811 59.3978 147.026 57.7644 148.659C56.131 150.293 53.9158 151.211 51.6058 151.211Z" stroke="#0400BF" stroke-width="1.544" stroke-linecap="round" stroke-linejoin="round"/>
<path d="M51.5739 146.14H10.4139C10.1295 146.14 9.84783 146.084 9.58506 145.975C9.32229 145.866 9.08356 145.707 8.88251 145.505C8.68146 145.304 8.52203 145.065 8.41334 144.803C8.30464 144.54 8.24881 144.258 8.24903 143.974V50.6856C8.24836 50.4009 8.30387 50.1188 8.41236 49.8556C8.52086 49.5923 8.68022 49.3531 8.88132 49.1515C9.08241 48.9499 9.32129 48.79 9.58428 48.6809C9.84727 48.5718 10.1292 48.5156 10.4139 48.5156H51.5739C52.1492 48.5152 52.7013 48.7431 53.1088 49.1493C53.5162 49.5555 53.7459 50.1068 53.7472 50.6822V143.97C53.7472 144.255 53.691 144.538 53.5817 144.801C53.4724 145.065 53.3123 145.304 53.1105 145.506C52.9086 145.707 52.669 145.867 52.4053 145.976C52.1417 146.085 51.8591 146.141 51.5739 146.14Z" stroke="#0400BF" stroke-width="1.544" stroke-linecap="round" stroke-linejoin="round"/>
<path d="M19.1152 45.2012H40.8469" stroke="#0400BF" stroke-width="1.544" stroke-linecap="round" stroke-linejoin="round"/>
<path d="M44.69 28.0156H29.9785" stroke="#0400BF" stroke-width="1.544" stroke-linecap="round" stroke-linejoin="round"/>
<path d="M12.9893 27.3516C12.9893 28.9885 13.6395 30.5583 14.797 31.7157C15.9544 32.8732 17.5243 33.5234 19.1611 33.5234C20.798 33.5234 22.3679 32.8732 23.5253 31.7157C24.6828 30.5583 25.333 28.9885 25.333 27.3516C25.333 25.7147 24.6828 24.1448 23.5253 22.9874C22.3679 21.8299 20.798 21.1797 19.1611 21.1797C17.5243 21.1797 15.9544 21.8299 14.797 22.9874C13.6395 24.1448 12.9893 25.7147 12.9893 27.3516Z" stroke="#0400BF" stroke-width="1.544" stroke-linecap="round" stroke-linejoin="round"/>
<path d="M78.6898 306.885H37.4622C36.3183 306.885 35.1856 306.66 34.1287 306.222C33.0718 305.785 32.1115 305.143 31.3026 304.334C30.4938 303.525 29.8522 302.565 29.4145 301.508C28.9769 300.451 28.7517 299.319 28.752 298.175V206.394C28.7517 205.25 28.9769 204.118 29.4146 203.061C29.8522 202.004 30.4938 201.044 31.3027 200.235C32.1116 199.426 33.0719 198.785 34.1288 198.348C35.1857 197.91 36.3184 197.685 37.4622 197.686H78.6898C80.9994 197.686 83.2144 198.604 84.8478 200.237C86.4811 201.87 87.3991 204.084 87.4 206.394V298.175C87.3991 300.484 86.4812 302.699 84.8479 304.333C83.2146 305.966 80.9996 306.884 78.6898 306.885Z" stroke="#0400BF" stroke-width="1.544" stroke-linecap="round" stroke-linejoin="round"/>
<path d="M78.6512 301.808H37.4879C36.9135 301.807 36.363 301.579 35.9569 301.172C35.5507 300.766 35.3222 300.216 35.3213 299.641V206.362C35.3213 205.787 35.5496 205.236 35.9559 204.83C36.3622 204.424 36.9133 204.195 37.4879 204.195H78.6512C78.9356 204.195 79.2173 204.251 79.4801 204.36C79.7428 204.469 79.9816 204.629 80.1826 204.83C80.3837 205.031 80.5431 205.27 80.6518 205.533C80.7605 205.796 80.8163 206.077 80.8161 206.362V299.641C80.8156 300.216 80.5875 300.766 80.1816 301.172C79.7758 301.579 79.2254 301.807 78.6512 301.808Z" stroke="#0400BF" stroke-width="1.544" stroke-linecap="round" stroke-linejoin="round"/>
<path d="M46.1846 200.875H67.918" stroke="#0400BF" stroke-width="1.544" stroke-linecap="round" stroke-linejoin="round"/>
<path d="M71.7678 183.696H57.0547" stroke="#0400BF" stroke-width="1.544" stroke-linecap="round" stroke-linejoin="round"/>
<path d="M52.4015 183.025C52.4018 184.245 52.0402 185.438 51.3625 186.453C50.6847 187.468 49.7212 188.259 48.5939 188.726C47.4666 189.193 46.2261 189.315 45.0293 189.077C43.8326 188.839 42.7333 188.251 41.8706 187.388C41.0079 186.525 40.4205 185.426 40.1827 184.229C39.9449 183.032 40.0675 181.792 40.5348 180.664C41.0022 179.537 41.7933 178.574 42.8082 177.896C43.8231 177.219 45.0161 176.858 46.2363 176.858C47.8716 176.859 49.4397 177.509 50.5958 178.665C51.752 179.822 52.4015 181.39 52.4015 183.025Z" stroke="#0400BF" stroke-width="1.544" stroke-linecap="round" stroke-linejoin="round"/>
<path d="M170.729 130.9H129.508C128.365 130.901 127.232 130.675 126.176 130.238C125.119 129.8 124.159 129.158 123.351 128.349C122.543 127.54 121.902 126.58 121.465 125.523C121.028 124.466 120.804 123.334 120.805 122.19V30.4232C120.804 29.2796 121.028 28.1471 121.465 27.0904C121.902 26.0337 122.543 25.0734 123.352 24.2645C124.16 23.4556 125.12 22.8139 126.176 22.3761C127.232 21.9382 128.365 21.7129 129.508 21.7129H170.729C171.873 21.712 173.006 21.9367 174.063 22.3741C175.12 22.8115 176.081 23.4531 176.89 24.2621C177.699 25.0711 178.341 26.0317 178.778 27.0888C179.215 28.146 179.44 29.2791 179.439 30.4232V122.19C179.44 123.334 179.216 124.467 178.778 125.525C178.341 126.582 177.7 127.543 176.891 128.352C176.082 129.161 175.121 129.802 174.064 130.24C173.006 130.677 171.873 130.902 170.729 130.9Z" stroke="#0400BF" stroke-width="1.544" stroke-linecap="round" stroke-linejoin="round"/>
<path d="M170.703 125.832H129.54C128.966 125.83 128.416 125.601 128.01 125.195C127.604 124.788 127.376 124.238 127.375 123.664V30.3756C127.375 29.8014 127.604 29.2508 128.009 28.8447C128.415 28.4385 128.966 28.2099 129.54 28.209H170.703C171.278 28.2094 171.829 28.4378 172.235 28.8441C172.641 29.2503 172.869 29.8011 172.87 30.3756V123.664C172.869 124.238 172.64 124.789 172.234 125.195C171.828 125.602 171.278 125.83 170.703 125.832Z" stroke="#0400BF" stroke-width="1.544" stroke-linecap="round" stroke-linejoin="round"/>
<path d="M138.238 24.8984H159.97" stroke="#0400BF" stroke-width="1.544" stroke-linecap="round" stroke-linejoin="round"/>
<path d="M163.821 7.71289H149.107" stroke="#0400BF" stroke-width="1.544" stroke-linecap="round" stroke-linejoin="round"/>
<path d="M144.456 7.05274C144.455 8.27294 144.093 9.46565 143.415 10.4801C142.737 11.4945 141.773 12.2851 140.646 12.7519C139.518 13.2187 138.278 13.3407 137.081 13.1026C135.885 12.8645 134.785 12.2768 133.922 11.414C133.06 10.5512 132.472 9.45195 132.234 8.25521C131.996 7.05847 132.118 5.81799 132.585 4.6906C133.051 3.56321 133.842 2.59955 134.856 1.92143C135.871 1.24331 137.064 0.881194 138.284 0.88086C139.094 0.880638 139.897 1.04013 140.646 1.35021C141.395 1.6603 142.075 2.11491 142.648 2.68807C143.222 3.26122 143.676 3.94169 143.986 4.6906C144.296 5.43951 144.456 6.24217 144.456 7.05274Z" stroke="#0400BF" stroke-width="1.544" stroke-linecap="round" stroke-linejoin="round"/>
<path d="M288.501 151.211H247.281C244.971 151.211 242.755 150.293 241.122 148.659C239.489 147.026 238.571 144.811 238.57 142.501V50.722C238.571 48.4122 239.489 46.1972 241.122 44.5639C242.756 42.9306 244.971 42.0126 247.281 42.0117H288.501C289.645 42.0115 290.778 42.2366 291.835 42.6743C292.892 43.1119 293.852 43.7535 294.661 44.5624C295.47 45.3713 296.111 46.3316 296.549 47.3884C296.987 48.4453 297.212 49.5781 297.212 50.722V142.501C297.212 143.645 296.987 144.778 296.549 145.835C296.112 146.892 295.47 147.852 294.661 148.661C293.853 149.47 292.892 150.111 291.835 150.549C290.778 150.987 289.645 151.212 288.501 151.211Z" stroke="#0400BF" stroke-width="1.544" stroke-linecap="round" stroke-linejoin="round"/>
<path d="M288.477 146.141H247.313C246.739 146.14 246.189 145.911 245.783 145.505C245.377 145.099 245.149 144.548 245.148 143.974V50.6861C245.149 50.1121 245.378 49.5618 245.783 49.1557C246.189 48.7496 246.739 48.5209 247.313 48.5195H288.477C289.051 48.5209 289.601 48.7496 290.007 49.1556C290.413 49.5616 290.642 50.1119 290.643 50.6861V143.974C290.642 144.548 290.414 145.099 290.008 145.505C289.602 145.911 289.051 146.14 288.477 146.141Z" stroke="#0400BF" stroke-width="1.544" stroke-linecap="round" stroke-linejoin="round"/>
<path d="M256.012 45.2012H277.743" stroke="#0400BF" stroke-width="1.544" stroke-linecap="round" stroke-linejoin="round"/>
<path d="M281.586 28.0156H266.873" stroke="#0400BF" stroke-width="1.544" stroke-linecap="round" stroke-linejoin="round"/>
<path d="M249.885 27.3516C249.885 28.9885 250.535 30.5583 251.692 31.7157C252.85 32.8732 254.42 33.5234 256.057 33.5234C257.694 33.5234 259.263 32.8732 260.421 31.7157C261.578 30.5583 262.229 28.9885 262.229 27.3516C262.229 25.7147 261.578 24.1448 260.421 22.9874C259.263 21.8299 257.694 21.1797 256.057 21.1797C254.42 21.1797 252.85 21.8299 251.692 22.9874C250.535 24.1448 249.885 25.7147 249.885 27.3516Z" stroke="#0400BF" stroke-width="1.544" stroke-linecap="round" stroke-linejoin="round"/>
<path d="M100.547 241.498C100.547 242.114 100.363 242.716 100.02 243.228C99.6777 243.74 99.1908 244.139 98.6214 244.374C98.052 244.61 97.4256 244.671 96.8214 244.55C96.2172 244.43 95.6622 244.133 95.2266 243.697C94.7911 243.261 94.4945 242.706 94.3743 242.102C94.2541 241.498 94.3158 240.871 94.5515 240.302C94.7872 239.733 95.1864 239.246 95.6986 238.904C96.2108 238.561 96.813 238.378 97.4291 238.378C97.8388 238.378 98.2445 238.458 98.623 238.615C99.0015 238.772 99.3454 239.002 99.635 239.291C99.9246 239.581 100.154 239.925 100.311 240.304C100.467 240.682 100.548 241.088 100.547 241.498Z" stroke="#0400BF" stroke-width="1.544" stroke-linecap="round" stroke-linejoin="round"/>
<path d="M100.547 268.566C100.548 269.183 100.366 269.786 100.025 270.299C99.6828 270.812 99.1966 271.212 98.6273 271.449C98.058 271.686 97.4314 271.748 96.8266 271.629C96.2218 271.509 95.666 271.213 95.2296 270.777C94.7932 270.342 94.4958 269.787 94.3749 269.182C94.2541 268.578 94.3152 267.951 94.5507 267.381C94.7862 266.811 95.1853 266.324 95.6977 265.981C96.2101 265.639 96.8126 265.455 97.4291 265.455C97.8382 265.454 98.2434 265.534 98.6216 265.69C98.9997 265.846 99.3434 266.076 99.633 266.364C99.9226 266.653 100.152 266.997 100.309 267.374C100.466 267.752 100.547 268.157 100.547 268.566Z" stroke="#0400BF" stroke-width="1.544" stroke-linecap="round" stroke-linejoin="round"/>
<path d="M100.873 268.566H184.393V252.999" stroke="#0400BF" stroke-width="1.544" stroke-linecap="round" stroke-linejoin="round"/>
<path d="M67.2451 57.279C67.2451 57.6878 67.3256 58.0926 67.4821 58.4703C67.6385 58.848 67.8678 59.1911 68.1569 59.4802C68.446 59.7693 68.7891 59.9986 69.1668 60.155C69.5445 60.3115 69.9493 60.392 70.3581 60.392C70.7669 60.392 71.1717 60.3115 71.5494 60.155C71.9271 59.9986 72.2702 59.7693 72.5593 59.4802C72.8484 59.1911 73.0777 58.848 73.2341 58.4703C73.3906 58.0926 73.4711 57.6878 73.4711 57.279C73.4711 56.8702 73.3906 56.4654 73.2341 56.0877C73.0777 55.71 72.8484 55.3669 72.5593 55.0778C72.2702 54.7887 71.9271 54.5594 71.5494 54.403C71.1717 54.2465 70.7669 54.166 70.3581 54.166C69.9493 54.166 69.5445 54.2465 69.1668 54.403C68.7891 54.5594 68.446 54.7887 68.1569 55.0778C67.8678 55.3669 67.6385 55.71 67.4821 56.0877C67.3256 56.4654 67.2451 56.8702 67.2451 57.279Z" stroke="#0400BF" stroke-width="1.544" stroke-linecap="round" stroke-linejoin="round"/>
<path d="M73.4688 57.2773H97.4279V156.448H164.381" stroke="#0400BF" stroke-width="1.544" stroke-linecap="round" stroke-linejoin="round"/>
<path d="M105.72 200.53H100.547V167.032H152.841H152.847" stroke="#0400BF" stroke-width="1.544" stroke-linecap="round" stroke-linejoin="round"/>
<path d="M233.494 55.8222C233.494 56.438 233.312 57.04 232.97 57.5522C232.628 58.0643 232.142 58.4636 231.573 58.6995C231.004 58.9353 230.378 58.9972 229.774 58.8773C229.17 58.7574 228.615 58.461 228.18 58.0257C227.744 57.5904 227.448 57.0358 227.328 56.4319C227.207 55.8279 227.269 55.2019 227.504 54.633C227.74 54.0641 228.139 53.5778 228.651 53.2357C229.163 52.8936 229.765 52.7109 230.381 52.7109C231.206 52.7114 231.997 53.0393 232.581 53.6226C233.164 54.2059 233.493 54.997 233.494 55.8222Z" stroke="#0400BF" stroke-width="1.544" stroke-linecap="round" stroke-linejoin="round"/>
<path d="M186.662 40.9352C186.662 41.7609 186.99 42.5527 187.574 43.1365C188.158 43.7203 188.949 44.0482 189.775 44.0482C190.601 44.0482 191.393 43.7203 191.976 43.1365C192.56 42.5527 192.888 41.7609 192.888 40.9352C192.888 40.1096 192.56 39.3178 191.976 38.734C191.393 38.1502 190.601 37.8223 189.775 37.8223C188.949 37.8223 188.158 38.1502 187.574 38.734C186.99 39.3178 186.662 40.1096 186.662 40.9352Z" stroke="#0400BF" stroke-width="1.544" stroke-linecap="round" stroke-linejoin="round"/>
<path d="M227.27 82.9001C227.27 83.7257 227.597 84.5175 228.181 85.1013C228.765 85.6851 229.557 86.0131 230.383 86.0131C231.208 86.0131 232 85.6851 232.584 85.1013C233.168 84.5175 233.495 83.7257 233.495 82.9001C233.495 82.0745 233.168 81.2827 232.584 80.6989C232 80.1151 231.208 79.7871 230.383 79.7871C229.557 79.7871 228.765 80.1151 228.181 80.6989C227.597 81.2827 227.27 82.0745 227.27 82.9001Z" stroke="#0400BF" stroke-width="1.544" stroke-linecap="round" stroke-linejoin="round"/>
<path d="M227.27 96.4392C227.27 97.2648 227.597 98.0566 228.181 98.6404C228.765 99.2242 229.557 99.5521 230.383 99.5521C231.208 99.5521 232 99.2242 232.584 98.6404C233.168 98.0566 233.495 97.2648 233.495 96.4392C233.495 95.6135 233.168 94.8217 232.584 94.2379C232 93.6541 231.208 93.3262 230.383 93.3262C229.557 93.3262 228.765 93.6541 228.181 94.2379C227.597 94.8217 227.27 95.6135 227.27 96.4392Z" stroke="#0400BF" stroke-width="1.544" stroke-linecap="round" stroke-linejoin="round"/>
<path d="M233.494 109.975C233.493 110.591 233.309 111.192 232.966 111.704C232.624 112.215 232.137 112.613 231.568 112.848C230.999 113.083 230.374 113.144 229.77 113.023C229.167 112.902 228.612 112.605 228.178 112.17C227.743 111.734 227.447 111.18 227.327 110.576C227.207 109.972 227.269 109.346 227.505 108.778C227.741 108.209 228.14 107.724 228.652 107.382C229.163 107.04 229.765 106.857 230.381 106.857C230.79 106.857 231.195 106.938 231.573 107.095C231.951 107.252 232.294 107.481 232.584 107.771C232.873 108.061 233.102 108.404 233.258 108.783C233.414 109.161 233.494 109.566 233.494 109.975Z" stroke="#0400BF" stroke-width="1.544" stroke-linecap="round" stroke-linejoin="round"/>
<path d="M189.775 44.0469V82.9H204.455H227.271" stroke="#0400BF" stroke-width="1.544" stroke-linecap="round" stroke-linejoin="round"/>
<path d="M227.271 96.4395H216.871V150.754" stroke="#0400BF" stroke-width="1.544" stroke-linecap="round" stroke-linejoin="round"/>
<path d="M227.271 109.977H223.187V150.755" stroke="#0400BF" stroke-width="1.544" stroke-linecap="round" stroke-linejoin="round"/>
<path d="M227.272 55.8242H204.455V82.9014V145.457" stroke="#0400BF" stroke-width="1.544" stroke-linecap="round" stroke-linejoin="round"/>
<path d="M13.7129 76.5922C13.7129 78.8619 14.1599 81.1094 15.0285 83.2064C15.8971 85.3033 17.1702 87.2087 18.7751 88.8136C20.3801 90.4185 22.2854 91.6916 24.3824 92.5602C26.4793 93.4288 28.7268 93.8759 30.9965 93.8759C33.2662 93.8759 35.5137 93.4288 37.6107 92.5602C39.7076 91.6916 41.613 90.4185 43.2179 88.8136C44.8228 87.2087 46.0959 85.3033 46.9645 83.2064C47.8331 81.1094 48.2802 78.8619 48.2802 76.5922C48.2802 74.3225 47.8331 72.075 46.9645 69.9781C46.0959 67.8811 44.8228 65.9758 43.2179 64.3709C41.613 62.7659 39.7076 61.4928 37.6107 60.6242C35.5137 59.7556 33.2662 59.3086 30.9965 59.3086C28.7268 59.3086 26.4793 59.7556 24.3824 60.6242C22.2854 61.4928 20.3801 62.7659 18.7751 64.3709C17.1702 65.9758 15.8971 67.8811 15.0285 69.9781C14.1599 72.075 13.7129 74.3225 13.7129 76.5922Z" stroke="#0400BF" stroke-width="1.544" stroke-linecap="round" stroke-linejoin="round"/>
<path d="M14.1689 104.025H45.7939" stroke="#0400BF" stroke-width="1.544" stroke-linecap="round" stroke-linejoin="round"/>
<path d="M14.1689 114.18H45.7939" stroke="#0400BF" stroke-width="1.544" stroke-linecap="round" stroke-linejoin="round"/>
<path d="M14.1689 124.332H45.7939" stroke="#0400BF" stroke-width="1.544" stroke-linecap="round" stroke-linejoin="round"/>
<path d="M41.4805 212.555H72.6289V226.621H41.4805V212.555Z" stroke="#0400BF" stroke-width="1.544" stroke-linecap="round" stroke-linejoin="round"/>
<path d="M41.4805 232.858H72.6289V246.924H41.4805V232.858Z" stroke="#0400BF" stroke-width="1.544" stroke-linecap="round" stroke-linejoin="round"/>
<path d="M41.4805 253.161H72.6289V292.014H41.4805V253.161Z" stroke="#0400BF" stroke-width="1.544" stroke-linecap="round" stroke-linejoin="round"/>
<path d="M276.986 66.374C276.987 68.1723 276.454 69.9305 275.456 71.4261C274.457 72.9217 273.037 74.0876 271.376 74.7763C269.715 75.4651 267.887 75.6457 266.123 75.2954C264.359 74.9451 262.739 74.0796 261.467 72.8083C260.195 71.537 259.328 69.9171 258.977 68.1534C258.626 66.3897 258.805 64.5615 259.493 62.8999C260.181 61.2383 261.346 59.8179 262.841 58.8185C264.336 57.8191 266.094 57.2855 267.892 57.2852C270.303 57.2847 272.616 58.242 274.321 59.9464C276.027 61.6508 276.985 63.9629 276.986 66.374Z" stroke="#0400BF" stroke-width="1.544" stroke-linecap="round" stroke-linejoin="round"/>
<path d="M255.084 84.6621H280.706" stroke="#0400BF" stroke-width="1.544" stroke-linecap="round" stroke-linejoin="round"/>
<path d="M255.084 91.4277H280.706" stroke="#0400BF" stroke-width="1.544" stroke-linecap="round" stroke-linejoin="round"/>
<path d="M276.986 109.012C276.986 110.81 276.452 112.567 275.452 114.062C274.453 115.557 273.033 116.721 271.371 117.409C269.71 118.097 267.882 118.276 266.119 117.925C264.355 117.574 262.736 116.708 261.464 115.437C260.193 114.165 259.327 112.545 258.976 110.782C258.626 109.018 258.806 107.19 259.494 105.529C260.182 103.868 261.347 102.448 262.842 101.449C264.337 100.45 266.094 99.9164 267.892 99.916C269.087 99.9158 270.269 100.151 271.373 100.608C272.477 101.065 273.479 101.735 274.324 102.58C275.168 103.424 275.838 104.427 276.295 105.531C276.752 106.634 276.987 107.817 276.986 109.012Z" stroke="#0400BF" stroke-width="1.544" stroke-linecap="round" stroke-linejoin="round"/>
<path d="M255.084 127.299H280.706" stroke="#0400BF" stroke-width="1.544" stroke-linecap="round" stroke-linejoin="round"/>
<path d="M255.084 134.072H280.706" stroke="#0400BF" stroke-width="1.544" stroke-linecap="round" stroke-linejoin="round"/>
<path d="M100.547 241.497H166.195" stroke="#0400BF" stroke-width="1.544" stroke-linecap="round" stroke-linejoin="round"/>
</svg>
