<svg width="150" height="150" viewBox="0 0 150 150" fill="none" xmlns="http://www.w3.org/2000/svg">
<path d="M92.7219 122.76C92.7219 133.784 110.155 138.417 110.155 138.417H39.8452C39.8452 138.417 57.2779 133.785 57.2779 122.76V111.789H92.3621L92.7219 122.76Z" fill="#D0CFCE"/>
<path d="M134.993 111.734H15.0072C8.77551 111.734 3.72363 106.683 3.72363 100.451V22.8665C3.72363 16.6349 8.77551 11.583 15.0072 11.583H134.993C141.225 11.583 146.277 16.6349 146.277 22.8665V100.451C146.277 106.683 141.225 111.734 134.993 111.734Z" fill="#9B9B9A"/>
<path d="M144.672 91.103L3.84717 41.0271V19.998C3.84717 15.8944 7.90967 13.0271 11.7761 14.4019L144.672 61.6582V91.103Z" fill="white"/>
<path d="M146.277 92.9746C146.277 92.9746 146.748 102.189 142.83 106.495C142.032 107.372 136.949 110.619 134.993 110.616L15.0072 111.728C8.77551 111.728 5.74842 107.61 5.74842 106.295L3.72363 92.9746" fill="#D0CFCE"/>
<path d="M134.993 111.734H15.0072C8.77551 111.734 3.72363 106.683 3.72363 100.451V22.8665C3.72363 16.6349 8.77551 11.583 15.0072 11.583H134.993C141.225 11.583 146.277 16.6349 146.277 22.8665V100.451C146.277 106.683 141.225 111.734 134.993 111.734Z" stroke="black" stroke-width="0.6667" stroke-linecap="round" stroke-linejoin="round"/>
<path d="M134.993 110.06L15.0072 111.728C8.77551 111.728 5.74842 107.61 5.74842 106.295L3.72363 92.9746" stroke="black" stroke-width="0.3063" stroke-linecap="round" stroke-linejoin="round"/>
<path d="M134.993 110.623L15.0072 111.734C8.77551 111.734 3.72363 106.683 3.72363 100.451V22.8665C3.72363 16.6349 8.77551 11.583 15.0072 11.583H134.993C141.225 11.583 146.277 16.6349 146.277 22.8665L145.165 100.451C145.165 106.683 141.225 110.623 134.993 110.623Z" stroke="black" stroke-width="0.6667" stroke-linecap="round" stroke-linejoin="round"/>
<path d="M10.5176 95.041H139.483" stroke="black" stroke-width="0.6667" stroke-linecap="round" stroke-linejoin="round"/>
<path d="M90.4983 122.76C90.4983 133.785 110.155 138.417 110.155 138.417H39.8452C39.8452 138.417 59.5015 133.785 59.5015 122.76" stroke="black" stroke-width="0.6667" stroke-linecap="round" stroke-linejoin="round"/>
</svg>
