<svg width="100" height="100" viewBox="0 0 100 100" fill="none" xmlns="http://www.w3.org/2000/svg">
<path d="M35.9944 74.0065C36.7931 73.7236 37.6115 73.4994 38.4429 73.3357L38.5435 73.7047C38.5548 73.7481 38.5813 73.7861 38.6183 73.8116C38.6552 73.8372 38.7002 73.8485 38.7448 73.8436L42.0367 73.4603C42.9423 71.3951 44.605 68.2661 44.629 68.2182C44.605 67.4372 44.629 66.7807 44.629 66.0332C42.7458 66.7328 39.2623 68.0601 37.4415 68.9082C37.4003 68.9347 37.3685 68.9735 37.3504 69.019C37.3324 69.0646 37.329 69.1146 37.3408 69.1622C37.3408 69.1622 37.3744 69.282 37.4175 69.4545C36.5263 69.4545 33.8573 69.3251 33.2152 69.9336C33.1154 70.0727 33.0663 70.2419 33.0763 70.4128C33.0379 71.074 33.3685 76.2107 33.8956 77.7201C34.1688 78.5107 34.7438 78.4245 35.1367 77.6674C35.5914 76.5272 35.8834 75.3287 36.004 74.1072C36.004 74.0449 35.9896 74.0497 35.9944 74.0065ZM35.4433 69.718C36.0279 69.6701 36.21 69.6797 37.4654 69.6413C37.6906 70.4942 38.1554 72.248 38.395 73.144C37.5496 73.275 36.7151 73.4688 35.8985 73.7238C35.6441 72.4022 35.4919 71.063 35.4433 69.718Z" fill="#100259"/>
<path d="M80.0968 27.7807C80.2166 27.613 80.0633 27.3974 79.9339 27.2297C80.3003 26.8527 80.7068 26.5169 81.1462 26.2282C81.8875 25.8588 82.5653 25.3735 83.1539 24.7907C83.3983 24.5368 83.8583 24.0145 83.6858 23.7078C83.5133 23.4012 83.2066 23.382 82.7897 23.5593C82.9703 23.3696 83.1178 23.151 83.2258 22.9124C83.3599 22.5387 83.0437 22.2368 82.3585 22.5147C82.6076 22.117 82.6651 21.7001 82.2435 21.4989C81.9033 21.3359 81.4049 21.7241 81.1174 21.978C80.5529 22.4713 80.023 23.0028 79.5314 23.5689C79.2295 22.9364 78.7504 22.208 78.1514 22.438C77.5524 22.668 78.0172 23.6982 78.3239 24.2589L77.2362 25.0112C77.0718 24.9224 76.886 24.8809 76.6995 24.8914C75.4633 25.1022 69.7851 29.4243 69.2101 29.4243C68.7693 29.4243 62.4731 26.4055 57.0297 25.5334C57.0192 25.5008 56.9997 25.4718 56.9734 25.4497C56.9471 25.4277 56.9152 25.4135 56.8812 25.4089C55.9318 25.2469 54.9692 25.1747 54.0062 25.1932C53.977 25.1952 53.9486 25.2035 53.9229 25.2176C53.8973 25.2316 53.875 25.2511 53.8576 25.2747H53.4551C53.3593 24.8866 53.0047 23.9905 52.8801 23.6455C53.206 23.3628 53.6564 23.2191 53.8912 22.7639C54.3224 21.9205 54.3033 20.4543 54.1835 19.5151C54.7249 19.103 54.7393 18.4418 54.6147 17.7662C54.5668 17.493 54.4183 16.8749 54.1883 16.7216C54.0589 16.6353 53.7858 16.7216 53.551 16.8078C53.3162 16.2616 53.3162 16.5107 53.412 16.2903C53.4565 16.1887 53.4825 16.08 53.4887 15.9693C53.7426 16.0459 54.2697 15.538 54.0876 14.8672C53.9922 14.6271 53.8752 14.3961 53.7379 14.1772C53.8049 14.0143 53.9487 13.8178 53.4983 13.2189C53.3043 13.0096 53.0524 12.8628 52.7747 12.7972H52.5543C52.3954 12.5664 52.1619 12.3972 51.8931 12.318C51.4872 12.2145 51.057 12.2748 50.6951 12.4857C50.5993 12.5576 50.5226 12.6534 50.4268 12.7205C50.2102 12.589 49.9615 12.5194 49.7081 12.5194C49.4546 12.5194 49.206 12.589 48.9893 12.7205C48.8625 12.7703 48.747 12.8452 48.6498 12.9407C48.5527 13.0362 48.4758 13.1504 48.4239 13.2764C48.1891 13.1954 47.94 13.1642 47.6925 13.1848C47.445 13.2054 47.2045 13.2774 46.9864 13.3962C46.1586 13.845 45.5395 14.6001 45.2614 15.4997C45.2537 15.6353 45.2537 15.7713 45.2614 15.907H45.2087C44.4899 15.8016 43.5747 17.5074 44.3079 18.8347C44.3941 18.9928 44.5043 19.1414 44.6097 19.3139C44.9164 19.793 44.7966 19.9368 45.4818 20.5214C45.6831 20.6939 45.7166 20.6795 45.8412 20.7849C45.9658 20.8903 45.9179 20.8376 45.9897 21.1059C46.0289 21.264 46.0991 21.4127 46.1961 21.5435C46.2932 21.6743 46.4152 21.7845 46.5551 21.8678C46.6061 22.3365 46.8059 22.7765 47.1254 23.1232C47.2265 23.2364 47.3445 23.3334 47.4751 23.4107C47.5104 23.4306 47.5497 23.4421 47.5901 23.4443C47.7339 24.3355 47.9112 25.4951 47.9879 25.9887L47.5614 26.2187C47.0034 26.4432 46.4608 26.7041 45.937 26.9997C45.8959 27.0281 45.8669 27.0708 45.8556 27.1195C45.3476 27.3878 44.8685 27.6418 44.5954 27.8047C40.7908 30.0616 29.9856 44.9397 29.8754 45.6201C29.8632 45.6591 29.8632 45.7009 29.8754 45.7399C30.0302 45.987 30.2189 46.2112 30.436 46.4059C30.3691 46.528 30.2887 46.6421 30.1964 46.7461C29.2381 47.3739 27.8006 48.3082 27.0291 49.142C26.975 49.1902 26.9344 49.2517 26.9113 49.3205C26.8883 49.3892 26.8835 49.4627 26.8975 49.5338C26.9116 49.6049 26.9439 49.6712 26.9913 49.726C27.0388 49.7808 27.0997 49.8223 27.1681 49.8464C27.3118 49.8943 27.3358 49.8799 28.2701 49.3672C28.0134 49.5924 27.8033 49.866 27.652 50.1722C27.5897 50.4357 27.8293 50.5891 28.1312 50.5411C28.301 50.4966 28.4628 50.4255 28.6104 50.3303C28.5239 50.4638 28.4779 50.6194 28.4779 50.7783C28.4779 50.9373 28.5239 51.0929 28.6104 51.2264C29.0895 51.8301 30.3449 49.9278 31.0062 49.4582C31.2745 49.7984 31.6387 50.5939 32.2185 50.383C32.7216 50.1962 32.1706 49.0893 32.2185 48.7682C32.4134 48.581 32.6216 48.4081 32.8414 48.2507C33.211 48.5249 33.6337 48.7191 34.0824 48.8209C34.8731 48.8209 43.1243 40.493 43.752 39.827C43.5268 41.9449 42.3912 51.0347 42.6308 52.8028C42.741 53.603 44.6624 53.718 45.4722 53.7612C45.2279 59.5112 45.0649 68.2224 45.0218 68.3134C43.752 71.0495 43.407 71.797 42.9806 72.6259C42.2043 74.1114 38.9364 79.593 38.5674 80.8389C38.5147 81.0353 38.5099 81.112 38.716 81.4762C38.0985 82.1253 37.5254 82.8153 37.0006 83.5414C36.737 84.0205 37.8679 88.4864 38.6681 90.0676C38.8501 90.4222 39.1472 90.9684 39.5449 90.9541C40.7429 90.9109 40.7381 86.608 40.7045 85.4053C40.7043 85.3682 40.6907 85.3325 40.6662 85.3047C40.8833 84.9806 41.1202 84.6702 41.3754 84.3751C41.5277 84.4799 41.6879 84.5729 41.8545 84.653C42.0174 84.7249 42.1995 84.6003 42.3337 84.4901C43.9293 83.2347 52.5351 72.5109 54.3799 67.4509C55.2185 65.1414 56.3349 61.9501 56.6512 59.6884C56.8445 58.2585 56.8622 56.8102 56.7039 55.3759C56.7039 55.3556 56.712 55.3361 56.7264 55.3217C56.7407 55.3074 56.7602 55.2993 56.7806 55.2993C56.8009 55.2993 56.8204 55.3074 56.8348 55.3217C56.8492 55.3361 56.8572 55.3556 56.8572 55.3759C57.0972 56.8184 57.1439 58.2864 56.9962 59.7411C56.6416 62.8797 54.1643 69.4203 52.8418 71.8257C53.9822 71.6149 56.3014 71.1549 57.4226 70.8195C61.1601 69.6839 64.6101 66.2962 64.912 62.4916C65.0097 60.6992 65.0097 58.9029 64.912 57.1105C64.8797 54.6362 64.5581 52.1741 63.9537 49.7745C64.9695 49.2234 65.8991 48.5766 66.201 47.9824C66.8479 46.7126 65.1372 39.4053 64.7635 37.3545C66.8095 37.5797 70.2931 37.987 71.9174 36.7172C73.7766 35.2222 77.792 31.0151 80.0968 27.7807ZM40.4458 85.1418C39.5833 84.6195 38.3758 83.3784 38.1937 82.4057C38.3901 82.1566 38.5962 81.9266 38.7879 81.6678C39.4372 82.6588 40.2469 83.5348 41.1837 84.2601C40.9205 84.5392 40.6741 84.8336 40.4458 85.1418ZM78.5395 24.393C78.5643 24.3772 78.5821 24.3525 78.5892 24.324C78.5963 24.2955 78.5923 24.2653 78.5779 24.2397C78.4101 23.9282 77.907 22.8309 78.2568 22.7064C78.4581 22.6297 78.6354 22.7543 78.7839 22.922C79.0107 23.2097 79.1873 23.5337 79.3062 23.8803C79.3151 23.9085 79.3314 23.9337 79.3535 23.9533C79.3757 23.9729 79.4027 23.9861 79.4317 23.9915C79.4608 23.997 79.4907 23.9944 79.5184 23.9841C79.5461 23.9738 79.5705 23.9561 79.5889 23.933C80.0681 23.4012 81.1893 22.1889 81.8218 21.863C82.301 21.6139 82.416 22.0739 81.242 23.1472C80.9724 23.3528 80.7133 23.5719 80.4658 23.8037C80.4521 23.8225 80.4448 23.8451 80.4448 23.8683C80.4448 23.8916 80.4521 23.9142 80.4658 23.933C80.4658 24.0576 80.5664 24.1966 80.7389 24.0672C81.1554 23.7016 81.5956 23.3638 82.0566 23.0562C82.2919 22.889 82.5654 22.7836 82.852 22.7495C82.7083 23.1903 81.3714 24.3882 81.2564 24.5224C81.2199 24.5551 81.1978 24.6008 81.1947 24.6497C81.1915 24.6986 81.2077 24.7467 81.2398 24.7837C81.2718 24.8208 81.3171 24.8438 81.3659 24.8478C81.4147 24.8518 81.4631 24.8365 81.5008 24.8051C82.0326 24.4601 82.9622 23.6551 83.2833 23.7749C83.6043 23.8947 82.6508 24.7859 82.4112 24.9968C81.036 26.1899 81.3906 25.4232 79.7997 27.0428C79.1072 26.2843 78.3121 25.6262 77.4374 25.0878L78.5395 24.393ZM57.7197 47.3116C57.6383 46.6503 57.5376 45.9364 57.4131 45.1937L57.6191 44.9205C58.5774 43.6891 58.8649 41.7293 58.7739 40.1912C59.2866 42.4384 59.6939 44.6474 60.0054 46.842L57.7197 47.3116ZM50.5945 30.9049C49.3343 29.9466 47.3074 28.2934 46.1287 27.1626L48.0454 26.2043C49.8053 27.8482 51.3119 29.744 52.516 31.8297C54.357 35.2118 55.7227 38.8317 56.5745 42.587L49.7416 32.9222L50.6329 31.0726C50.6447 31.0441 50.6473 31.0127 50.6404 30.9826C50.6336 30.9526 50.6175 30.9254 50.5945 30.9049ZM53.8337 25.4712C53.8624 25.5239 54.1931 26.2282 54.6962 27.4597C54.6962 27.5124 54.6051 28.7103 54.562 29.132C53.9505 28.8896 53.3737 28.5673 52.8466 28.1737C52.952 27.7568 53.4264 25.8641 53.4599 25.4376L53.8337 25.4712ZM52.1326 30.6174C52.1662 30.5312 52.1997 30.4162 52.2381 30.282L52.5591 30.4497C52.7412 30.5695 52.6693 30.2053 52.8322 31.2595C52.8322 31.4368 52.8801 31.6332 52.8897 31.8489C52.6693 31.4512 52.3962 31.0247 52.1374 30.6174H52.1326ZM51.8643 30.2149C50.959 28.9309 49.9286 27.7399 48.7881 26.6595L52.3962 28.2264C52.2572 28.557 52.056 29.568 51.8691 30.2149H51.8643ZM55.5491 33.0228C55.0699 31.7147 54.701 30.2532 54.5189 29.8699C54.5297 29.7504 54.5297 29.6301 54.5189 29.5105C54.5882 29.5363 54.6608 29.5525 54.7345 29.5584C54.7807 29.559 54.8256 29.5428 54.8608 29.5128C54.896 29.4829 54.9193 29.4412 54.9262 29.3955C54.9645 29.2374 55.0268 28.4372 55.0364 28.2599C56.4303 31.7792 57.5939 35.3853 58.5199 39.0555C55.8126 33.2959 56.2295 34.9634 55.5539 33.0228H55.5491ZM59.5118 42.1701C58.4193 36.9328 56.4979 30.4018 54.3129 25.5622C55.1153 25.5626 55.9164 25.6267 56.7087 25.7539C57.116 29.3955 56.7758 29.2709 57.0489 29.4147C57.322 29.5584 58.9656 30.2197 59.2099 30.3203C59.186 30.6893 59.531 41.2405 59.5166 42.1701H59.5118ZM53.9966 17.0282C54.2464 17.5734 54.3345 18.1787 54.2506 18.7724C54.2116 18.9235 54.1314 19.0608 54.019 19.1691C53.9065 19.2773 53.7663 19.3523 53.6138 19.3855C53.4613 19.4188 53.3026 19.4091 53.1553 19.3576C53.008 19.306 52.8779 19.2146 52.7795 19.0934C52.5509 18.6118 52.3788 18.1053 52.2668 17.5841C52.3962 17.4164 53.7762 17.0809 53.9966 17.0282ZM47.4033 21.8199C47.2282 21.7402 47.0491 21.6698 46.8666 21.6091C46.7441 21.5587 46.6348 21.481 46.547 21.3819C46.4592 21.2827 46.3953 21.1648 46.3601 21.0371C46.325 20.9095 46.3195 20.7754 46.3442 20.6453C46.3689 20.5152 46.423 20.3925 46.5024 20.2866C46.8043 20.0326 47.0774 20.047 47.3266 20.4255C47.4847 20.7178 47.4799 20.7418 47.5518 20.7705C47.5724 20.7796 47.5948 20.7842 47.6173 20.7839C47.6398 20.7837 47.662 20.7786 47.6824 20.7691C47.7029 20.7596 47.721 20.7458 47.7357 20.7287C47.7503 20.7116 47.7612 20.6915 47.7674 20.6699C47.8385 20.37 47.8499 20.059 47.801 19.7547C47.7435 19.4241 47.7339 17.9578 47.7435 17.9099C47.8834 17.9837 48.0407 18.0184 48.1987 18.0105C49.066 17.977 49.2385 17.5314 49.5835 17.1672C49.9812 17.2055 50.0626 17.3972 50.5131 17.1672C50.724 17.0472 50.9174 16.8989 51.0881 16.7264C51.2258 16.7827 51.3588 16.85 51.4858 16.9276C51.7729 17.0657 52.0968 17.1081 52.4099 17.0486C52.7229 16.9891 53.0087 16.8308 53.2251 16.597C53.2779 16.6976 53.3258 16.7982 53.3689 16.9037C52.9286 17.0403 52.514 17.2492 52.1422 17.5218C52.0608 17.6224 52.1806 18.1687 52.2093 18.298C51.8079 18.3485 51.4195 18.4737 51.0641 18.667C50.9922 18.4178 50.8341 17.953 50.5849 17.8237C50.51 17.8007 50.4299 17.8007 50.3549 17.8237C49.9237 17.8907 48.376 18.3555 48.1891 18.6095C48.0262 18.7868 48.491 20.1572 48.6347 20.3824C49.1858 21.2353 50.8006 20.9862 51.1024 19.9895C51.1772 19.655 51.1772 19.3081 51.1024 18.9737C51.2414 18.9737 51.6583 18.8251 51.7062 18.8107C52.0368 19.5534 52.1326 19.5966 52.516 20.3968C52.4633 20.4399 52.377 20.5118 52.3051 20.5597C51.9649 20.7849 51.8931 20.7466 51.9122 20.8424C51.9178 20.8614 51.9301 20.8778 51.9469 20.8883C51.9637 20.8989 51.9837 20.903 52.0033 20.8999C52.2044 20.8712 52.4009 20.8164 52.5879 20.737C52.6998 20.6952 52.792 20.6132 52.8466 20.507C52.9808 20.2051 52.2381 19.0695 51.9458 18.7293C52.0033 18.7293 52.1374 18.6334 52.2381 18.5807C52.3722 19.1174 52.4633 19.5391 52.9808 19.7499C53.1303 19.8064 53.2897 19.8321 53.4495 19.8255C53.6092 19.8189 53.766 19.7802 53.9104 19.7116C53.987 20.5549 53.9726 21.9253 53.5701 22.6728C53.3641 23.0609 52.8562 23.2095 52.5304 23.5305C52.4345 23.6216 52.4968 23.7509 52.5304 23.8899C53.0622 25.3705 53.0718 25.3657 53.0431 25.5574C52.902 26.3529 52.7051 27.1375 52.4537 27.9053C52.3339 27.8526 50.9874 27.1387 48.352 26.1132C48.2706 25.5718 47.8345 22.6824 47.6956 22.1505C47.7051 21.9637 47.6812 21.9205 47.4033 21.7959V21.8199ZM50.7574 19.8649C50.6041 20.3872 49.8806 20.6124 49.3631 20.4687C48.8456 20.3249 48.812 20.0614 48.5676 19.4384C48.4531 19.2005 48.374 18.947 48.3329 18.6862C48.491 18.5137 50.2208 18.1591 50.4364 18.1255C50.7388 18.6429 50.8523 19.2492 50.7574 19.8409V19.8649ZM32.0076 48.6341C31.8256 48.8114 32.0699 49.3912 32.1083 49.8943C32.1083 49.9374 32.1083 50.1243 32.0795 50.1386C31.816 50.2249 31.5716 49.8272 31.4231 49.5876C31.2745 49.348 31.126 49.0222 30.8912 49.1084C30.412 49.3337 29.3004 50.8095 28.8643 50.9628C28.6439 50.5411 29.9041 49.3384 29.9472 49.2714C29.9657 49.2406 29.9754 49.2053 29.9752 49.1693C29.9751 49.1334 29.9651 49.0982 29.9463 49.0676C29.9275 49.037 29.9007 49.0121 29.8688 48.9956C29.8368 48.9792 29.801 48.9718 29.7651 48.9743C29.6789 48.9743 29.6214 49.0509 29.4872 49.1707C29.0791 49.569 28.6121 49.902 28.1024 50.1578C28.5645 49.6277 29.059 49.1269 29.5831 48.658C29.6089 48.6314 29.6272 48.5983 29.6358 48.5622C29.6358 48.5622 29.5351 48.3082 29.3387 48.4089C29.0608 48.5622 27.7095 49.3432 27.2831 49.5445C27.2256 49.5061 27.2591 49.4487 27.2831 49.3911C27.9587 48.5622 29.4441 47.5559 30.3545 46.9186C30.4614 46.8086 30.5503 46.6825 30.6181 46.5449C31.2486 47.1316 31.9212 47.6713 32.6306 48.1597C32.412 48.303 32.2039 48.4615 32.0076 48.6341ZM43.1579 52.9897C43.0524 52.9226 42.9758 52.8603 42.9614 52.7741C42.6979 50.8191 44.1641 39.7407 44.1401 39.3047C44.1402 39.2791 44.135 39.2538 44.1251 39.2302C44.1152 39.2067 44.1006 39.1853 44.0823 39.1674C44.064 39.1496 44.0423 39.1356 44.0185 39.1262C43.9947 39.1169 43.9693 39.1124 43.9437 39.113C43.6993 39.113 44.1306 39.113 38.026 44.9589C37.6235 45.3374 34.5472 48.2795 34.0345 48.4759C33.3301 48.4232 30.6804 46.3101 30.2491 45.6441C31.0829 43.9574 41.1933 30.0807 44.6912 27.958C44.9595 27.7951 45.4195 27.5412 45.9226 27.2728C46.0966 27.4369 46.2842 27.586 46.4833 27.7184C47.5949 28.7726 49.1426 30.0855 50.3166 31.0726L49.4014 32.8887C49.3875 32.9127 49.3802 32.94 49.3802 32.9677C49.3802 32.9955 49.3875 33.0227 49.4014 33.0468C56.8333 43.7082 56.7231 43.5884 56.771 43.5884C57.2474 46.0521 57.5437 48.5472 57.6574 51.0539C57.6574 51.7295 57.6574 51.672 57.6862 51.6241C57.7149 51.5761 57.6862 51.6576 57.6862 51.6576C56.5266 52.9226 45.0506 54.1014 43.1579 52.9897ZM69.6462 37.1149C67.4756 37.4168 65.0222 36.9664 64.5479 36.9472C64.2842 35.6698 63.7589 34.4609 63.0049 33.3966C62.9934 33.3811 62.9765 33.3705 62.9575 33.3669C62.9385 33.3634 62.9189 33.3671 62.9025 33.3774C62.8862 33.3877 62.8743 33.4038 62.8693 33.4224C62.8643 33.4411 62.8666 33.4609 62.8756 33.478C63.1535 34.0434 64.0831 36.4824 64.3131 37.0766C64.2412 37.3066 66.4789 46.5593 65.8464 47.8051C65.281 48.9311 61.9891 50.3495 60.8008 50.7568C60.5658 48.0892 60.1819 45.4369 59.6508 42.8122C59.8137 41.4322 59.6029 33.2289 59.5406 30.1957C59.5387 30.1605 59.527 30.1265 59.5066 30.0977C59.4863 30.0688 59.4582 30.0463 59.4256 30.0328L57.2741 29.1272C57.2643 27.9885 57.1923 26.8512 57.0585 25.7203C62.4299 26.6499 68.6879 29.7214 69.2101 29.7262C69.9672 29.7262 75.5926 25.4137 76.757 25.2412C77.2745 25.1597 79.4979 27.1003 79.7566 27.637C77.4854 30.8091 73.4939 34.9778 71.6443 36.4201C71.0485 36.8185 70.3606 37.0577 69.6462 37.1149Z" fill="#100259"/>
<path d="M50.2638 18.907C50.2582 18.8752 50.2464 18.8447 50.2289 18.8175C50.2115 18.7903 50.1888 18.7668 50.1622 18.7484C50.1356 18.73 50.1057 18.7171 50.074 18.7104C50.0424 18.7037 50.0098 18.7034 49.978 18.7094C49.9462 18.7154 49.916 18.7277 49.889 18.7455C49.862 18.7634 49.8389 18.7864 49.8209 18.8132C49.8029 18.8401 49.7904 18.8703 49.7842 18.902C49.778 18.9337 49.7781 18.9664 49.7846 18.998C49.8804 19.4772 49.8996 19.5874 50.1104 19.5874C50.1503 19.5876 50.1895 19.5778 50.2246 19.5589C50.2598 19.54 50.2896 19.5127 50.3115 19.4794C50.3334 19.4461 50.3466 19.4079 50.35 19.3682C50.3534 19.3284 50.3468 19.2885 50.3309 19.252C50.3165 19.1753 50.2733 18.9501 50.2638 18.907ZM51.73 22.0791C52.0415 22.1701 52.3386 22.0216 52.329 21.9449C52.3194 21.8682 52.329 21.9066 51.9073 21.7485C51.6246 21.643 51.3131 21.2693 51.2029 21.3268C51.0927 21.3843 51.2604 21.691 51.2988 21.7485C51.4013 21.904 51.5532 22.0205 51.73 22.0791ZM60.494 17.527C59.8663 20.1576 59.4063 22.3905 59.3296 22.8362C59.2787 23.0301 59.2689 23.2324 59.3008 23.4303C59.5548 23.9718 62.8371 25.0403 63.254 24.8295C63.6708 24.6187 64.7538 22.1797 66.014 19.6641C66.786 19.6887 67.5585 19.6325 68.3188 19.4964C69.1193 19.3495 69.8984 19.1032 70.6379 18.7632C72.2575 18.0157 74.0304 14.8149 74.27 13.2049C74.4497 11.4569 74.0795 9.69645 73.2111 8.16887C69.1909 1.197 57.3986 4.94887 58.3569 12.6922C58.6306 14.464 59.3678 16.132 60.494 17.527ZM63.4169 23.2339C63.4169 23.3105 63.3306 23.301 62.9377 23.2339C62.134 23.1329 61.3559 22.8843 60.6425 22.5007C60.3071 22.3187 60.2161 22.2803 60.2496 22.1989C60.2831 22.1174 60.355 22.1462 60.8725 22.2899C60.9204 22.2899 62.4059 22.7691 62.8323 22.9176C63.3834 23.1668 63.4169 23.1668 63.4169 23.2339ZM63.3306 15.4378C63.8423 15.4644 64.3522 15.3588 64.8113 15.1312C65.2379 15.3379 65.6995 15.463 66.1721 15.5001C65.3671 16.9999 63.7331 20.057 63.2061 21.6862L61.1744 21.1255C61.6536 19.9468 62.7125 17.1868 63.3211 15.4378H63.3306ZM63.1629 15.0401C62.8052 14.9861 62.4752 14.8162 62.2233 14.5566C61.9714 14.2969 61.8117 13.9618 61.7686 13.6026C61.6344 12.6443 62.2477 11.571 63.1725 11.8249C63.7523 11.983 63.8242 12.443 63.7236 13.0228C63.6373 13.4445 63.3259 14.5035 63.1534 15.021L63.1629 15.0401ZM64.4663 13.8901C64.5174 13.5766 64.6351 13.2776 64.8113 13.0132C64.8951 12.8691 65.0177 12.7514 65.1651 12.6735C65.3124 12.5956 65.4787 12.5606 65.645 12.5724C65.9996 12.6778 66.1529 13.3487 65.8606 13.7703C65.5797 14.1431 65.23 14.4587 64.8304 14.6999C64.6929 14.6192 64.5834 14.4984 64.5166 14.3536C64.4498 14.2089 64.4289 14.0471 64.4567 13.8901H64.4663ZM60.0627 7.79992C62.2094 5.21721 66.2488 4.19179 69.1669 5.25554C70.7521 5.7997 72.0855 6.90151 72.9188 8.35575C73.7449 9.80933 74.0983 11.484 73.9298 13.1474C73.7094 14.6376 72.0131 17.733 70.5229 18.4182C69.1604 19.0397 67.6739 19.3413 66.1769 19.2999C66.014 19.2999 65.8415 19.2999 65.7792 19.4149C65.4965 19.9899 64.979 21.1016 64.4711 22.1462C64.1203 21.9768 63.7566 21.8358 63.3834 21.7245C63.9392 20.1337 65.6929 17.0095 66.5267 15.4953C67.2491 15.5572 67.9752 15.4318 68.635 15.1312C68.8133 15.0373 68.9611 14.8946 69.0611 14.7197C69.1611 14.5448 69.2091 14.3451 69.1995 14.1439C69.19 13.9426 69.1232 13.7483 69.0071 13.5837C68.891 13.4191 68.7303 13.291 68.544 13.2145C67.8013 12.8503 67.1352 13.7224 66.7471 14.4555C66.6417 14.6472 66.5219 14.8724 66.3877 15.1264C66.0002 15.1009 65.618 15.0219 65.2521 14.8916C65.6165 14.6355 65.9397 14.3252 66.2104 13.9716C66.3621 13.7425 66.439 13.4719 66.4304 13.1973C66.4219 12.9226 66.3282 12.6574 66.1625 12.4382C66.0324 12.2871 65.8515 12.1886 65.6539 12.1612C65.4563 12.1339 65.2555 12.1796 65.0892 12.2897C64.7536 12.4959 64.4847 12.7946 64.3147 13.1499C64.1447 13.5051 64.0809 13.9019 64.1309 14.2926C64.1829 14.5131 64.3017 14.7123 64.4711 14.8628C64.1568 14.993 63.8194 15.0582 63.4792 15.0545C63.6709 14.4891 63.9823 13.4685 64.0638 13.0516C64.1149 12.8139 64.1262 12.5694 64.0973 12.328C64.0602 12.1208 63.9641 11.9287 63.8204 11.7749C63.6768 11.621 63.4917 11.5119 63.2875 11.4607C62.1231 11.1301 61.2654 12.4191 61.4331 13.6218C61.4805 14.0528 61.6655 14.4571 61.9607 14.7747C62.2558 15.0923 62.6455 15.3064 63.0719 15.3851C62.4586 17.1101 61.5002 19.8941 61.0211 21.0824L59.9669 20.8093C60.6425 17.4168 60.724 17.4982 60.6281 17.4551C59.5394 16.067 58.8428 14.4123 58.6109 12.6635C58.4979 11.7963 58.5688 10.9151 58.819 10.0771C59.0691 9.23915 59.4929 8.46326 60.0627 7.79992ZM66.7136 15.1551C67.049 14.5466 67.7198 13.2145 68.3715 13.5403C68.5018 13.5928 68.6153 13.68 68.6998 13.7923C68.7842 13.9046 68.8364 14.0378 68.8506 14.1776C68.8411 15.021 67.5281 15.1695 66.6944 15.1551H66.7136ZM85.0561 17.2682C85.6335 16.9287 86.3155 16.8127 86.9727 16.9424C87.6947 16.9553 88.3843 17.244 88.9002 17.7492C89.416 18.2544 89.7191 18.9378 89.7471 19.6593C89.313 19.4074 88.8054 19.3126 88.3096 19.391C87.1069 19.4964 85.5352 20.148 85.7461 21.3076C85.9186 22.266 87.1836 22.1366 88.1419 21.8778C89.1002 21.6191 89.8621 21.1495 90.0586 20.2247C91.2229 21.0728 91.4961 22.5582 91.544 24.0101C91.544 24.0305 91.5521 24.05 91.5664 24.0643C91.5808 24.0787 91.6003 24.0868 91.6206 24.0868C91.641 24.0868 91.6605 24.0787 91.6749 24.0643C91.6892 24.05 91.6973 24.0305 91.6973 24.0101C91.7309 22.3857 91.4386 20.7949 90.1113 19.8701C90.1249 19.4541 90.054 19.0396 89.9028 18.6518C89.7516 18.264 89.5233 17.9109 89.2317 17.6139C88.9401 17.3169 88.5912 17.0822 88.2062 16.9239C87.8212 16.7657 87.4081 16.6872 86.9919 16.6932C86.3267 16.5961 85.6485 16.7351 85.0752 17.0862C84.8979 17.1724 84.9794 17.3018 85.0561 17.2682ZM89.4261 20.7039C88.8846 21.413 87.3513 21.782 86.6421 21.6622C86.3786 21.6191 86.1629 21.5089 86.1054 21.2357C85.9329 20.2774 87.5861 19.7551 88.5732 19.7216C88.9751 19.6908 89.376 19.7935 89.7136 20.0139C89.6773 20.2644 89.5784 20.5017 89.4261 20.7039ZM82.8615 11.6668C83.3742 11.0343 83.0292 9.93221 81.5965 9.92741C81.0406 9.92741 80.7723 10.4928 80.8107 11.0343C80.8969 12.3232 82.3488 12.2849 82.8615 11.6668ZM81.1461 11.0103C81.1461 10.6941 81.2946 10.282 81.6252 10.2868C82.3967 10.2868 82.7513 10.6462 82.7513 11.0439C82.7321 11.9495 81.0838 12.4191 81.1461 11.0103ZM80.9496 65.3335C76.7377 63.6516 74.7827 71.7926 71.3423 78.7885C71.3206 79.0825 71.3302 79.3781 71.3711 79.6701C71.3711 80.4033 71.4525 85.2572 71.879 85.8083C71.994 86.0287 72.4779 85.8083 72.7031 85.6693C74.6159 84.4852 76.4184 83.1317 78.089 81.6251C78.1032 81.6088 78.114 81.5898 78.1206 81.5692C78.1272 81.5486 78.1295 81.5269 78.1273 81.5053C79.0186 80.2355 82.3584 73.623 83.1682 70.3072C83.7336 67.9593 83.1729 66.2103 80.9496 65.3335ZM82.4542 71.4189C80.1993 71.13 78.0193 70.4179 76.0286 69.3201C77.1498 67.1974 78.5346 64.7776 80.8202 65.688C83.3646 66.6991 83.3119 68.7931 82.4542 71.4045V71.4189ZM74.4809 83.8772C74.3337 83.7539 74.173 83.6478 74.0017 83.561C73.3542 83.2318 72.6061 83.1599 71.9077 83.3597C71.8598 82.7895 71.5867 79.0808 71.5867 79.0472C75.1756 80.3601 74.0688 79.7899 77.6242 81.5581C77.2504 81.9126 75.8465 82.8949 74.4809 83.8676V83.8772ZM76.9534 70.0101C77.4207 70.2654 77.9005 70.4973 78.3909 70.7049C77.2926 72.4301 76.322 74.2334 75.4871 76.1003C74.6821 77.7822 74.7109 77.7726 73.8915 79.6078C73.4123 79.4545 72.9331 79.3108 72.454 79.167C72.9715 78.1368 76.6515 70.6043 76.9534 70.0005V70.0101ZM74.0784 79.6558C75.6356 76.8622 77.2217 73.3883 78.5825 70.7672C79.0617 70.9685 79.5409 71.1314 80.02 71.2751C79.7661 71.7543 79.0234 73.0289 78.8269 73.3978C78.6304 73.7668 76.6611 77.648 76.5221 77.9451C76.3017 78.4243 75.6979 79.7612 75.5111 80.1876C75.0223 79.972 74.5527 79.8091 74.0592 79.6462L74.0784 79.6558ZM75.6836 80.2499C75.9759 79.718 77.1786 77.4851 77.3271 77.1976C77.5523 76.752 80.0631 71.6201 80.2021 71.3231C80.6429 71.4476 81.1077 71.553 81.4048 71.6105C80.5279 74.0064 78.0027 78.6208 77.0923 80.8968C76.2634 80.5087 76.0765 80.4128 75.6644 80.2403L75.6836 80.2499ZM75.9759 69.4591L76.8336 69.9383C75.1051 72.8818 73.5995 75.9507 72.3294 79.1191L71.6106 78.8987C74.3946 72.9666 74.524 72.1903 75.9567 69.4495L75.9759 69.4591ZM77.95 81.3137L77.2265 80.9687C78.0075 79.4353 80.4513 75.5014 81.5677 71.6441C81.8361 71.692 82.0996 71.7351 82.3536 71.7687C81.1222 75.0543 79.6438 78.2419 77.9309 81.3041L77.95 81.3137ZM62.9377 84.4235C63.1287 84.2654 63.2652 84.0512 63.328 83.8114C63.3908 83.5715 63.3766 83.318 63.2875 83.0866C63.2469 82.7527 63.0938 82.4426 62.8534 82.2074C62.613 81.9721 62.2997 81.8257 61.9651 81.7923C61.6304 81.7588 61.2943 81.8403 61.0121 82.0233C60.73 82.2063 60.5185 82.4799 60.4125 82.7991C59.7992 82.4014 59.1331 81.9797 58.4958 81.5772C58.975 80.9399 60.3838 81.2226 60.5275 81.7449C60.5312 81.7648 60.5425 81.7825 60.559 81.7942C60.5754 81.8059 60.5959 81.8107 60.6158 81.8076C60.6358 81.8045 60.6538 81.7936 60.6659 81.7775C60.6781 81.7613 60.6834 81.741 60.6809 81.721C60.609 80.8872 58.8744 80.3985 58.1748 81.3808C57.5567 81.0022 56.79 80.5422 56.1479 80.1924C56.699 79.7133 57.9304 79.9816 58.0646 80.4799C58.0709 80.497 58.0831 80.5112 58.0989 80.5201C58.1147 80.5291 58.1332 80.5321 58.1511 80.5286C58.1689 80.5251 58.185 80.5155 58.1963 80.5013C58.2077 80.4871 58.2137 80.4693 58.2131 80.4512C58.1509 79.6749 56.5456 79.1526 55.8173 80.0055C55.5121 79.8345 55.1912 79.6933 54.859 79.5839C54.7983 79.5587 54.7316 79.5516 54.667 79.5635C54.6023 79.5754 54.5425 79.6058 54.4948 79.651C53.2825 81.1603 49.1952 85.0799 47.3073 85.5351C47.2598 85.5423 47.2151 85.5618 47.1776 85.5918C47.1401 85.6217 47.1111 85.661 47.0936 85.7057C47.0761 85.7504 47.0707 85.7989 47.078 85.8464C47.0852 85.8938 47.1048 85.9385 47.1348 85.976C47.5494 86.3967 48.0241 86.7536 48.5436 87.0349C48.0644 87.5141 47.6906 87.9453 47.4127 88.2568C47.269 88.4101 47.1923 91.3426 47.3169 91.9895C47.3354 92.0528 47.3763 92.1073 47.4319 92.1428C48.0356 92.5549 55.8125 95.9187 56.6079 95.4683C57.1398 95.1664 63.4888 88.5587 63.5894 88.3574C63.7427 88.0412 63.69 85.9328 63.6804 85.0895C63.6421 84.8355 63.1677 84.5624 62.9377 84.4235ZM47.6044 90.7533V89.6847C49.5929 90.6431 54.145 92.5981 55.87 93.1443C56.3108 93.2881 56.3492 93.2689 56.5792 93.1443C57.8969 92.301 62.5496 87.0589 63.4025 86.2587V87.2697C60.815 89.862 56.4211 94.4045 56.3396 94.1458C55.8652 94.117 48.0165 90.9449 47.6044 90.7533ZM62.8179 82.8087C62.9902 83.0989 63.0828 83.4295 63.0863 83.767C63.0846 83.8744 63.0582 83.98 63.0092 84.0755C62.9602 84.1711 62.8898 84.2541 62.8036 84.318C62.4011 84.0497 61.6392 83.5514 60.7384 82.9668C61.2319 81.9941 62.3292 81.9797 62.7988 82.8087H62.8179ZM47.4846 85.8753C49.5258 85.2716 53.4023 81.5341 54.7056 79.9145C55.0193 80.0018 55.3217 80.1256 55.6065 80.2835C55.1273 81.1747 55.64 82.1522 55.8221 82.0133C55.9227 81.9366 55.7406 81.9078 55.7119 81.4383C55.6997 81.0952 55.7773 80.755 55.9371 80.4512C56.5984 80.7962 57.3746 81.2466 58.0311 81.6251C57.6286 82.5212 58.1125 83.4076 58.2802 83.2783C58.4479 83.1489 58.2036 83.1776 58.1748 82.708C58.1631 82.4001 58.2221 82.0936 58.3473 81.812C59.0229 82.2097 59.7129 82.6218 60.3454 83.0099C60.248 83.2487 60.2093 83.5074 60.2326 83.7642C60.256 84.021 60.3407 84.2685 60.4796 84.4858C60.4923 84.5023 60.5111 84.5131 60.5317 84.5158C60.5524 84.5185 60.5733 84.5128 60.5898 84.5001C60.6063 84.4874 60.6171 84.4687 60.6198 84.448C60.6225 84.4273 60.6169 84.4064 60.6042 84.3899C60.5181 84.1996 60.4755 83.9924 60.4797 83.7835C60.4838 83.5746 60.5345 83.3692 60.6281 83.1824C61.7446 83.8628 62.6454 84.4331 62.9234 84.6199C62.8706 84.6678 57.8729 89.1145 56.1719 90.437C55.0554 90.1447 49.1952 87.2362 47.4846 85.8753ZM47.6667 88.5443C49.8373 89.5026 54.7679 91.726 55.9036 91.9416C56.1 91.9799 56.1767 91.9943 56.5504 91.6972C58.1461 90.4178 63.3354 84.9889 63.3834 85.0464C63.3857 85.0607 63.3857 85.0752 63.3834 85.0895V86.0478C62.3148 86.9055 56.3731 93.1443 56.2773 92.8472C55.7981 92.8472 48.0117 89.6703 47.614 89.493C47.6044 89.2918 47.6475 88.7551 47.6667 88.5443ZM56.3923 95.1472C55.9131 95.4203 48.6154 92.4543 47.6379 91.8505C47.6012 91.5453 47.5836 91.238 47.5852 90.9305C49.684 91.9655 55.7886 94.5435 56.3492 94.5195C57.1686 94.4764 62.9617 87.9549 63.3738 87.4997C63.3785 87.7445 63.3544 87.9889 63.3019 88.2281C63.2204 88.3862 56.7086 94.9699 56.3923 95.1472ZM16.6933 68.1366C16.7269 68.6493 16.7508 69.0949 16.7508 69.5118C16.7508 69.5753 16.7761 69.6363 16.821 69.6812C16.866 69.7261 16.9269 69.7514 16.9904 69.7514C17.054 69.7514 17.1149 69.7261 17.1598 69.6812C17.2048 69.6363 17.23 69.5753 17.23 69.5118C17.23 69.0662 17.2061 68.6253 17.1725 68.103C17.1681 68.0395 17.1386 67.9803 17.0905 67.9385C17.0424 67.8968 16.9797 67.8758 16.9162 67.8802C16.8526 67.8847 16.7934 67.9142 16.7517 67.9623C16.7099 68.0103 16.6889 68.073 16.6933 68.1366ZM89.704 58.5293C89.6727 58.5311 89.6421 58.5392 89.614 58.553C89.5858 58.5668 89.5608 58.5861 89.5402 58.6098C89.5197 58.6335 89.5041 58.661 89.4944 58.6908C89.4846 58.7206 89.481 58.752 89.4836 58.7833C89.5123 59.2241 89.5411 59.6985 89.5411 60.1585C89.5411 60.222 89.5663 60.2829 89.6112 60.3279C89.6562 60.3728 89.7171 60.398 89.7806 60.398C89.8442 60.398 89.9051 60.3728 89.9501 60.3279C89.995 60.2829 90.0202 60.222 90.0202 60.1585C90.0202 59.6793 89.9915 59.2001 89.9579 58.7497C89.9561 58.7184 89.9481 58.6878 89.9342 58.6597C89.9204 58.6316 89.9011 58.6065 89.8774 58.5859C89.8538 58.5654 89.8262 58.5498 89.7964 58.5401C89.7667 58.5303 89.7352 58.5267 89.704 58.5293ZM15.4523 66.9435C15.5158 66.9435 15.5768 66.9182 15.6217 66.8733C15.6666 66.8284 15.6919 66.7674 15.6919 66.7039C15.6919 66.6403 15.6666 66.5794 15.6217 66.5345C15.5768 66.4895 15.5158 66.4643 15.4523 66.4643C14.8725 66.4643 14.3886 66.5074 13.9094 66.4978C13.8454 66.4978 13.784 66.5229 13.7383 66.5677C13.6926 66.6125 13.6663 66.6734 13.665 66.7374C13.665 66.801 13.6903 66.8619 13.7352 66.9068C13.7801 66.9518 13.8411 66.977 13.9046 66.977C14.3981 66.9866 14.9396 66.9674 15.4523 66.9435ZM88.2186 57.111C87.6436 57.111 87.1596 57.1445 86.6756 57.1493C86.6121 57.1493 86.5512 57.1745 86.5062 57.2195C86.4613 57.2644 86.4361 57.3253 86.4361 57.3889C86.4361 57.4524 86.4613 57.5134 86.5062 57.5583C86.5512 57.6032 86.6121 57.6285 86.6756 57.6285C87.1931 57.6285 87.7298 57.6285 88.2473 57.5901C88.31 57.5851 88.3681 57.5557 88.4093 57.5083C88.4505 57.4609 88.4715 57.3992 88.4678 57.3365C88.464 57.2737 88.4358 57.215 88.3892 57.1728C88.3426 57.1307 88.2813 57.1085 88.2186 57.111ZM16.564 63.9822C16.5927 64.423 16.6215 64.8974 16.6215 65.3574C16.6227 65.4206 16.6483 65.4808 16.693 65.5255C16.7377 65.5701 16.7979 65.5958 16.8611 65.597C16.9246 65.597 16.9855 65.5718 17.0305 65.5268C17.0754 65.4819 17.1006 65.421 17.1006 65.3574C17.1006 64.8783 17.0719 64.3991 17.0431 63.9487C17.0409 63.9172 17.0326 63.8865 17.0185 63.8583C17.0044 63.83 16.9849 63.8049 16.9611 63.7842C16.9373 63.7635 16.9097 63.7477 16.8797 63.7377C16.8498 63.7277 16.8182 63.7237 16.7868 63.7259C16.7553 63.7281 16.7246 63.7364 16.6964 63.7505C16.6682 63.7646 16.643 63.7841 16.6223 63.8079C16.6016 63.8317 16.5858 63.8593 16.5758 63.8892C16.5658 63.9192 16.5618 63.9507 16.564 63.9822ZM89.8909 56.0041C89.8909 55.5249 89.8621 55.0457 89.8286 54.5953C89.8241 54.5318 89.7946 54.4726 89.7465 54.4308C89.6985 54.3891 89.6357 54.3681 89.5722 54.3725C89.5087 54.377 89.4495 54.4065 89.4077 54.4546C89.3659 54.5026 89.3449 54.5653 89.3494 54.6289C89.3782 55.0697 89.4069 55.5441 89.4069 56.0041C89.4069 56.0676 89.4321 56.1286 89.4771 56.1735C89.522 56.2184 89.5829 56.2437 89.6465 56.2437C89.7105 56.2437 89.7719 56.2186 89.8176 56.1738C89.8633 56.129 89.8896 56.0681 89.8909 56.0041ZM20.1002 66.8812C20.1317 66.8799 20.1626 66.8725 20.1912 66.8593C20.2198 66.8461 20.2455 66.8274 20.2669 66.8043C20.2882 66.7811 20.3048 66.754 20.3157 66.7244C20.3266 66.6949 20.3315 66.6635 20.3302 66.632C20.3254 66.5693 20.297 66.5107 20.2508 66.4681C20.2046 66.4254 20.1439 66.4018 20.0811 66.402C19.5013 66.426 19.0173 66.4451 18.5333 66.4355C18.4698 66.4355 18.4089 66.4608 18.3639 66.5057C18.319 66.5506 18.2938 66.6116 18.2938 66.6751C18.2938 66.7387 18.319 66.7996 18.3639 66.8445C18.4089 66.8895 18.4698 66.9147 18.5333 66.9147C19.0461 66.9243 19.5827 66.9051 20.1002 66.8812ZM92.8665 57.0487C92.3873 57.0726 91.8554 57.087 91.3236 57.087C91.2919 57.0857 91.2604 57.0908 91.2308 57.102C91.2012 57.1133 91.1741 57.1304 91.1513 57.1523C91.1285 57.1742 91.1103 57.2005 91.0979 57.2297C91.0855 57.2588 91.0792 57.2901 91.0792 57.3218C91.0792 57.3858 91.1043 57.4472 91.1491 57.4929C91.1939 57.5386 91.2548 57.5649 91.3188 57.5662C91.865 57.5662 92.3059 57.5662 92.8857 57.5278C92.9171 57.5266 92.948 57.5192 92.9766 57.506C93.0052 57.4928 93.0309 57.4741 93.0523 57.4509C93.0737 57.4278 93.0903 57.4007 93.1011 57.3711C93.112 57.3415 93.1169 57.3101 93.1156 57.2787C93.1098 57.2164 93.0811 57.1584 93.0351 57.116C92.9891 57.0735 92.9291 57.0496 92.8665 57.0487ZM9.08897 52.6835C9.15127 52.7314 22.6638 50.7285 23.2436 50.3739C23.2757 50.3504 23.3013 50.3193 23.3181 50.2832C23.3348 50.2472 23.3422 50.2075 23.3394 50.1678C23.3394 49.5497 22.5296 43.747 22.1415 42.2999C22.0936 42.1226 22.0456 41.9453 21.9354 41.883C21.2023 41.4422 8.28397 43.8764 7.51252 44.3747C7.49161 44.3871 7.47354 44.4037 7.45951 44.4235C7.44547 44.4433 7.43577 44.4659 7.43106 44.4897C7.26814 45.0695 8.6721 52.396 9.08897 52.6835ZM7.72335 44.6047C8.64335 44.1878 20.3686 42.0412 21.7102 42.2089C22.0361 43.0474 22.9081 49.1903 22.9656 50.0912C22.2996 50.2876 9.27106 52.5253 9.22314 52.5349C9.17522 52.5445 9.17043 52.602 9.06981 52.3001C8.64814 51.0351 7.69939 45.6876 7.72335 44.6047Z" fill="#100259"/>
<path d="M24.2977 50.8005C24.3238 50.7521 24.3354 50.6973 24.3312 50.6424C24.3312 49.8805 23.2387 41.4233 22.8506 40.7476C22.8202 40.6978 22.7771 40.6569 22.7258 40.6292C22.6744 40.6014 22.6167 40.5877 22.5583 40.5895C20.9531 40.393 7.41186 43.038 6.52061 43.6562C6.39602 43.7424 6.41519 43.958 6.42956 44.188C6.50623 45.4483 7.86706 53.7378 8.34623 53.6899C8.39894 53.6899 8.37977 53.6516 8.25519 53.9055C7.50769 55.4437 6.08936 60.3695 6.11811 61.3614C6.11811 61.7783 6.21394 62.3197 6.62602 62.291C9.58248 61.9268 24.0773 59.6268 28.246 58.7691C28.4089 58.7355 28.5144 58.587 28.5096 58.3426C28.4604 57.9355 28.3369 57.5409 28.1454 57.1783C27.5608 56.081 25.1362 51.7349 24.2977 50.8005ZM8.37498 53.5414C8.00123 53.0622 6.62602 44.8062 6.73144 43.891C7.78561 43.3447 21.1448 40.762 22.5439 40.9728C22.9273 42.027 23.9191 49.641 23.9814 50.5562C22.2852 51.1408 10.5408 53.0382 8.37498 53.5414ZM8.58581 53.6851C8.98831 53.5845 22.6973 51.2893 23.9527 50.9587C24.6379 51.596 27.7333 57.1016 27.9346 57.5712C25.1841 58.0503 8.86852 60.7768 6.4679 61.141C6.50144 59.6891 7.99165 54.6147 8.58581 53.6851Z" fill="#100259"/>
<path d="M10.3873 58.6536C10.8042 58.5913 19.6496 57.5276 22.8456 56.6603C22.8653 56.6552 22.8822 56.6425 22.8925 56.625C22.9029 56.6074 22.9058 56.5865 22.9007 56.5668C22.8956 56.5471 22.8829 56.5303 22.8654 56.5199C22.8479 56.5096 22.827 56.5066 22.8073 56.5117C22.1796 56.6411 14.5225 57.6617 10.3777 58.5051C10.3663 58.503 10.3545 58.5036 10.3433 58.5067C10.3321 58.5099 10.3218 58.5156 10.3131 58.5233C10.3044 58.5311 10.2976 58.5407 10.2932 58.5514C10.2888 58.5622 10.2869 58.5738 10.2876 58.5855C10.2884 58.5971 10.2918 58.6083 10.2975 58.6185C10.3033 58.6286 10.3112 58.6372 10.3209 58.6438C10.3305 58.6504 10.3414 58.6547 10.3529 58.6564C10.3644 58.6581 10.3762 58.6571 10.3873 58.6536ZM16.8512 25.3132C16.6722 25.7175 16.5217 26.1337 16.4008 26.559C16.3937 26.6273 16.4125 26.6957 16.4535 26.7507C16.9375 27.479 21.8969 33.0709 23.1906 33.8567C23.3679 33.9669 23.5787 34.0436 23.7081 33.8855C24.6479 32.716 25.8745 31.8098 27.2683 31.2549C28.4028 30.8535 29.5923 30.6288 30.795 30.5888C31.7533 30.5026 31.921 30.4067 32.29 29.779C32.7252 28.9529 33.3027 28.21 33.9958 27.5844C34.8797 26.8116 35.8607 26.1576 36.9139 25.639C36.9614 25.6122 36.9984 25.5702 37.0193 25.5198C37.0401 25.4695 37.0435 25.4136 37.0289 25.3611C36.867 24.9489 36.6528 24.5592 36.3917 24.2015C36.5642 24.144 36.7558 24.0913 36.7558 23.9188C36.7558 23.4396 32.5775 17.3926 31.4179 16.2521C31.2981 16.1324 31.1256 15.9742 30.9675 15.9838C28.5717 16.118 26.2381 18.3796 24.8869 20.3538C23.3392 20.2963 22.3377 20.1574 20.5744 20.9001C19.3295 21.4285 18.2072 22.2082 17.2777 23.1905C17.134 23.339 16.1565 24.374 16.1421 24.4555C16.1277 24.5369 16.1565 24.5369 16.8512 25.3132ZM36.0179 25.179C34.0198 25.5192 32.7452 27.1819 31.806 28.9884C31.3892 29.7934 31.4275 29.8317 30.9867 29.8221C30.2158 29.7785 29.4425 29.8074 28.6771 29.9084C28.1156 29.9923 27.5636 30.1303 27.0287 30.3205C25.8117 30.7517 24.4173 32.1317 23.6746 33.1571C23.6588 33.1782 23.6387 33.1958 23.6157 33.2085C23.5927 33.2213 23.5672 33.2291 23.541 33.2314C23.5147 33.2337 23.4883 33.2303 23.4634 33.2217C23.4386 33.213 23.4158 33.1992 23.3967 33.1811C21.8394 31.5759 19.0842 28.7584 17.6994 27.1388C17.6323 27.0669 17.7473 26.9615 17.8144 27.0382C18.7104 27.9965 21.0248 30.2917 23.5069 32.7882C24.3454 31.7196 25.6392 30.4259 26.9185 29.9755C27.6162 29.7266 28.3421 29.5657 29.0796 29.4963C29.7702 29.4439 30.4638 29.4439 31.1544 29.4963C31.4371 29.1705 32.8362 25.4713 36.0083 25.0592C36.0176 25.066 36.0252 25.0749 36.0306 25.085C36.0361 25.0952 36.0391 25.1065 36.0396 25.118C36.04 25.1295 36.0379 25.1409 36.0333 25.1515C36.0287 25.1621 36.0218 25.1715 36.0131 25.179H36.0179ZM30.9627 16.3719C31.921 17.0428 35.8215 22.8167 36.3294 23.8278C35.448 24.107 34.5972 24.4747 33.7898 24.9251C33.0252 25.3083 32.3558 25.8574 31.8302 26.5321C31.3047 27.2068 30.9363 27.9903 30.7519 28.8255C29.0317 26.0271 26.631 22.9461 25.0354 20.6796C25.1312 20.6174 27.8242 16.5588 30.9627 16.3719ZM20.6798 21.1636C22.4287 20.4592 23.3967 20.6221 24.8437 20.6844C26.2812 23.1378 28.8639 26.5974 30.565 28.8638C28.995 28.4923 27.3429 28.7195 25.9314 29.5011C25.0833 29.9803 24.0483 31.1303 23.411 31.8442C22.491 31.1063 17.1819 25.4521 16.329 24.4938C17.6419 23.0084 18.8542 21.8919 20.6798 21.1444V21.1636ZM11.911 33.3488C11.7926 33.2657 11.6526 33.2187 11.508 33.2136C11.3634 33.2085 11.2204 33.2455 11.0965 33.3201C11.0062 33.3603 10.9247 33.418 10.8567 33.4898C10.7886 33.5615 10.7354 33.646 10.7001 33.7383C10.6647 33.8306 10.6478 33.929 10.6505 34.0279C10.6531 34.1267 10.6752 34.224 10.7155 34.3143C10.7558 34.4046 10.8134 34.4861 10.8852 34.5541C10.957 34.6221 11.0414 34.6753 11.1338 34.7107C11.2261 34.7461 11.3245 34.7629 11.4233 34.7603C11.5221 34.7576 11.6195 34.7355 11.7098 34.6953C11.854 34.6637 11.9853 34.5891 12.0861 34.4812C12.187 34.3734 12.2527 34.2374 12.2745 34.0914C12.2964 33.9454 12.2733 33.7962 12.2084 33.6635C12.1435 33.5309 12.0398 33.4212 11.911 33.3488ZM11.5948 34.3071C11.2594 34.4126 11.0581 34.3071 10.9767 34.1442C10.8233 33.804 11.015 33.2817 11.5133 33.4351C11.8631 33.5644 12.1458 34.1538 11.5948 34.3311V34.3071ZM36.2767 11.4221C36.4156 11.7049 37.0625 11.5994 37.3452 11.5084C37.4937 11.4605 37.5896 11.4078 37.604 11.264C37.6471 10.9046 37.695 7.79006 37.5321 7.48819C37.5152 7.45653 37.4894 7.43055 37.4579 7.41351C37.4264 7.39646 37.3905 7.3891 37.3548 7.39235C36.8435 7.39094 36.3349 7.46521 35.8454 7.61277C35.6489 7.73256 36.1042 11.1059 36.2767 11.4221ZM35.946 7.72777C36.3887 7.66445 36.8363 7.64359 37.2829 7.66548C37.3117 8.02006 37.235 11.0915 37.2302 11.1394C37.0278 11.212 36.8116 11.2382 36.5977 11.2161C36.5642 11.1059 36.5067 10.8088 36.4348 10.4351C36.2236 9.54201 36.0605 8.63828 35.946 7.72777ZM11.4462 29.3046C11.4922 29.3282 11.5431 29.3405 11.5948 29.3405C11.6464 29.3405 11.6974 29.3282 11.7433 29.3046C11.9284 29.1905 12.0753 29.0236 12.165 28.8255C12.1772 28.7938 12.1809 28.7594 12.1759 28.7259C12.1709 28.6923 12.1572 28.6605 12.1362 28.6338C11.9062 28.3607 9.39541 25.4521 9.08874 25.6342C8.71222 25.878 8.35499 26.1503 8.0202 26.4488C8.00671 26.4609 7.9959 26.4756 7.98847 26.4922C7.98104 26.5087 7.97716 26.5265 7.97708 26.5446C7.96749 26.7938 10.7562 29.0267 11.4462 29.3046ZM9.14624 25.7588C9.49603 26.0128 10.6748 27.4694 11.7673 28.7584C11.7203 28.8324 11.6621 28.8987 11.5948 28.9549C10.4462 28.2197 9.34947 27.4064 8.31249 26.5207C8.57245 26.2477 8.85103 25.9932 9.14624 25.7588ZM16.674 15.1884C16.7794 13.3292 17.8623 12.4667 18.9931 12.2463C18.6721 13.4251 18.7248 14.9584 19.8892 15.1549C20.445 15.2459 20.7181 14.9584 21.1206 14.623C22.8408 13.1855 21.4512 11.748 19.5106 11.8486C20.2342 9.86485 21.9065 8.25006 24.125 8.19735C24.1453 8.19735 24.1648 8.18928 24.1792 8.1749C24.1936 8.16052 24.2017 8.14102 24.2017 8.12069C24.2017 8.10035 24.1936 8.08085 24.1792 8.06648C24.1648 8.0521 24.1453 8.04402 24.125 8.04402C21.7292 7.9961 19.846 9.7211 19.1033 11.8774C17.8239 12.0978 16.5542 13.0561 16.5206 15.1596C16.5181 15.1699 16.5178 15.1806 16.5196 15.1911C16.5213 15.2015 16.5252 15.2115 16.531 15.2204C16.5367 15.2293 16.5442 15.2369 16.553 15.2428C16.5618 15.2487 16.5717 15.2527 16.5822 15.2547C16.5926 15.2567 16.6033 15.2565 16.6136 15.2542C16.6239 15.2518 16.6337 15.2474 16.6423 15.2412C16.6509 15.235 16.6581 15.2272 16.6635 15.2181C16.669 15.209 16.6725 15.1989 16.674 15.1884ZM19.4004 12.1888C20.1144 12.1409 21.1781 12.3613 21.4704 13.0082C21.6381 13.3771 21.4704 13.8324 20.8762 14.3307C20.7149 14.4923 20.5309 14.6295 20.33 14.738C19.6112 15.0446 18.8158 14.1582 19.4004 12.1888ZM20.7708 79.9574C20.3079 79.8334 19.8248 79.8032 19.3501 79.8687C18.8753 79.9341 18.4184 80.0939 18.0063 80.3386C17.5942 80.5832 17.2352 80.9079 16.9504 81.2934C16.6657 81.6788 16.4609 82.1174 16.3481 82.5832C16.1353 83.5509 16.3155 84.5636 16.8493 85.3984C17.3831 86.2332 18.2266 86.8218 19.1944 87.0346C20.1621 87.2475 21.1748 87.0672 22.0096 86.5334C22.8444 85.9997 23.433 85.1561 23.6458 84.1884C23.7368 83.7216 23.7344 83.2415 23.6389 82.7757C23.5434 82.3098 23.3566 81.8675 23.0894 81.4742C22.8221 81.0809 22.4796 80.7444 22.0817 80.484C21.6838 80.2237 21.2383 80.0447 20.7708 79.9574ZM22.2515 83.8626C22.0592 84.6294 21.5989 85.3021 20.9539 85.7591C20.3088 86.216 19.5215 86.4272 18.7344 86.3542C18.0118 86.0719 17.4119 85.5438 17.0403 84.8628C16.6687 84.1818 16.5491 83.3915 16.7027 82.6311C16.882 81.8457 17.338 81.1511 17.9873 80.6742C18.6366 80.1973 19.4359 79.9701 20.2389 80.034C20.9687 80.3355 21.5687 80.8847 21.9333 81.5851C22.2979 82.2854 22.4038 83.0919 22.2323 83.8626H22.2515Z" fill="#100259"/>
<path d="M27.1537 81.3231C26.7366 81.1792 26.2895 81.1445 25.8552 81.2225C25.6752 80.8097 25.4536 80.4164 25.1939 80.0485C25.5054 79.7658 26.3583 78.98 26.1523 78.611C25.419 77.7339 24.5484 76.9814 23.5743 76.3829C23.1676 76.155 22.7197 76.0101 22.2566 75.9564C21.95 75.9996 21.2216 77.1927 21.0587 77.461C20.9533 77.461 20.5796 77.3412 20.5508 77.3269C20.5508 76.9819 20.4502 75.736 20.1387 75.5923C19.7904 75.4641 19.4288 75.3756 19.0606 75.3287C18.7204 75.276 15.6585 75.8367 15.4333 76.2487C15.2848 76.5266 15.6298 77.576 15.7304 77.8683C15.472 78.0106 15.2238 78.1707 14.9877 78.3475C14.5085 78.6877 14.6379 78.6733 14.5516 78.635C14.4474 78.5852 14.3357 78.5528 14.221 78.5392C13.8382 78.3147 13.3895 78.23 12.9512 78.2996C12.5104 78.4433 11.4706 80.8104 11.3029 81.4189C11.248 81.5724 11.2332 81.7373 11.2598 81.8981C11.3748 82.2144 12.1414 82.4683 12.4625 82.5689C12.3738 83.1855 12.3738 83.8116 12.4625 84.4281C12.0408 84.5431 11.1639 84.8019 11.2118 85.2331C11.2598 85.6644 12.381 88.5106 12.8458 88.7358C13.1004 88.8782 13.382 88.9658 13.6724 88.9931C13.9629 89.0203 14.2558 88.9865 14.5325 88.8939C14.6883 88.8162 14.8387 88.7281 14.9829 88.6304C15.1746 88.7741 15.3758 88.9035 15.5818 89.0281C15.4333 89.3971 15.1027 90.2212 15.2081 90.595C15.2608 90.7914 15.4189 90.8537 15.6393 90.9352C16.2479 91.1556 19.5254 91.9414 20.0237 91.8552C20.2106 91.8264 20.3112 91.63 20.3687 91.4431C20.4752 91.0178 20.5378 90.5827 20.5556 90.1446C20.8017 90.1203 21.0464 90.0835 21.2887 90.0344C21.4367 90.2948 21.6261 90.5294 21.8493 90.7291C22.0937 90.9016 22.2998 90.8154 22.5777 90.6381C22.7118 90.8106 22.9131 91.0502 23.1287 91.0742C23.6702 91.1364 25.9079 89.0281 26.1379 88.5969C26.3296 88.2375 25.63 87.5954 25.3185 87.3127C25.6554 86.8057 25.9199 86.2541 26.1043 85.6739C26.4499 85.726 26.7997 85.7453 27.1489 85.7314C27.3071 85.7314 27.4891 85.6739 27.5562 85.5254C27.8485 84.8594 27.7623 82.3342 27.5562 81.6921C27.5275 81.5052 27.3118 81.3806 27.1537 81.3231ZM27.2687 81.7639C27.4316 82.3869 27.4844 84.7396 27.2448 85.3481C26.8305 85.3889 26.4125 85.3696 26.0037 85.2906C25.9601 85.2831 25.9152 85.2923 25.878 85.3162C25.8407 85.3402 25.8138 85.3772 25.8025 85.42C25.6117 86.0678 25.3154 86.6797 24.9256 87.2312C24.8978 87.2678 24.8853 87.3136 24.8907 87.3592C24.896 87.4048 24.9189 87.4465 24.9543 87.4756C25.2905 87.742 25.5762 88.0666 25.7977 88.4339C25.5581 88.8269 23.6846 90.5423 23.1671 90.686C23.0904 90.686 22.8796 90.3985 22.8268 90.3219C22.6499 90.0559 22.4898 89.779 22.3477 89.4929C22.3269 89.4512 22.2914 89.4187 22.2479 89.4019C22.2045 89.3851 22.1563 89.385 22.1129 89.4019C20.7233 89.9241 20.1962 89.6175 20.1962 89.9625C20.1968 90.479 20.1127 90.9922 19.9471 91.4814C18.821 91.359 17.7121 91.1115 16.6408 90.7435C16.6925 90.232 16.8353 89.7338 17.0625 89.2725C17.2062 88.9514 16.6312 89.0425 15.5579 87.95C15.5233 87.918 15.478 87.9002 15.4309 87.9002C15.3838 87.9002 15.3385 87.918 15.3039 87.95C14.8248 88.3429 14.2018 88.7262 14.0773 88.6639C13.8329 88.5442 12.7068 85.9902 12.6398 85.4727C12.9806 85.2352 13.3675 85.072 13.7754 84.9935C13.8189 84.9812 13.8565 84.9536 13.8811 84.9157C13.9058 84.8778 13.9159 84.8323 13.9096 84.7875C13.7921 84.1089 13.7921 83.4152 13.9096 82.7366C13.9169 82.6949 13.9081 82.6519 13.885 82.6163C13.8619 82.5807 13.8261 82.5553 13.785 82.545C13.4237 82.4503 13.076 82.3102 12.75 82.1281C12.6446 82.0514 12.6541 82.0562 12.6637 81.9748C12.9739 80.8562 13.4713 79.7983 14.1348 78.8458C14.3935 78.7739 15.0931 79.2867 15.3327 79.4687C15.3577 79.493 15.3912 79.5066 15.4261 79.5066C15.461 79.5066 15.4945 79.493 15.5196 79.4687C15.7397 79.2404 15.9768 79.029 16.2287 78.8362C16.9571 78.2852 17.1535 78.3571 17.0912 78.1654C16.8709 77.6846 16.7472 77.1653 16.7271 76.6369C16.8013 76.5751 16.8856 76.5265 16.9762 76.4931C17.4236 76.3162 17.8832 76.1721 18.3514 76.0619C18.919 75.9037 19.5024 75.8089 20.0908 75.7792C20.1914 75.8223 20.2825 76.2583 20.3064 76.3925C20.4837 77.3508 20.3639 77.5473 20.5029 77.5616C21.8685 77.6958 22.1464 78.0744 22.2423 77.9066C22.508 77.442 22.8177 77.004 23.1671 76.5985C23.2677 76.4979 23.2629 76.45 23.5648 76.6225C24.4666 77.2118 25.2743 77.9339 25.9606 78.7644C26.0325 78.8889 25.4096 79.5502 24.9543 79.9383C24.7962 80.0773 25.0214 80.1396 25.4335 80.9254C25.8456 81.7112 25.7498 81.9316 25.9702 81.8837C26.3951 81.782 26.8324 81.7417 27.2687 81.7639ZM93.7723 41.7248C92.7678 41.3145 91.7145 41.0359 90.6385 40.8958C89.8527 40.7712 88.9279 40.6466 88.1469 40.546C88.8991 39.4823 91.1273 36.7894 91.501 36.1329C91.6064 35.9556 91.4052 35.7064 91.2567 35.5579C90.4229 34.6667 88.8129 34.3312 87.5766 34.1396C86.8675 34.0246 83.9062 33.6604 83.4031 33.9C82.7994 34.1875 78.3335 40.8958 78.1994 41.9164C78.1994 42.0889 78.2569 42.156 78.4246 42.2183C79.1289 42.4771 82.3058 42.8796 83.015 43.0473C82.0566 44.7244 77.7969 50.3929 77.38 51.1931C77.2794 51.3944 77.3416 51.5141 77.4614 51.5525C77.8927 51.7237 78.3364 51.8614 78.7887 51.9646C78.9612 52.0173 79.3398 51.7825 79.8908 51.4471C82.3633 49.9617 92.9721 42.9562 93.7866 42.0506C93.8091 42.0294 93.8268 42.0035 93.8384 41.9748C93.85 41.9462 93.8553 41.9153 93.8539 41.8844C93.8526 41.8535 93.8446 41.8232 93.8305 41.7957C93.8164 41.7682 93.7965 41.744 93.7723 41.7248ZM83.475 47.4748C79.4021 50.1629 78.0269 50.9487 77.9789 50.9823C78.6354 49.9808 82.7131 44.3937 83.4127 43.0569C83.4249 43.031 83.4311 43.0028 83.431 42.9743C83.4309 42.9457 83.4244 42.9176 83.412 42.8918C83.3996 42.8661 83.3816 42.8435 83.3593 42.8256C83.3371 42.8078 83.3111 42.7951 83.2833 42.7885C82.8041 42.616 79.3158 42.2423 78.4916 41.95C78.5971 41.0587 82.9479 34.3216 83.475 34.0533C84.0021 33.785 89.1148 34.3935 90.0731 35.0787C89.57 36.061 86.7908 39.5014 86.3404 40.3017C86.2494 40.4646 86.2206 40.6227 86.3979 40.6658C86.5752 40.7089 91.0794 41.236 92.0616 41.5571C90.8637 42.5585 84.8166 46.5739 83.475 47.4556V47.4748ZM52.7364 18.1785C52.7364 18.2217 52.7652 18.2744 52.8371 18.5523C52.8559 18.6126 52.8974 18.6632 52.9528 18.6936C53.0082 18.724 53.0732 18.7317 53.1341 18.7152C53.1951 18.6974 53.2466 18.6561 53.2771 18.6004C53.3077 18.5447 53.3148 18.4791 53.2971 18.4181C53.2491 18.2312 53.206 18.0731 53.1773 17.9964C53.1494 17.9438 53.1028 17.9035 53.0468 17.8833C52.9908 17.8631 52.9292 17.8645 52.8742 17.8873C52.8191 17.91 52.7745 17.9525 52.749 18.0063C52.7236 18.0601 52.7191 18.1215 52.7364 18.1785Z" fill="#100259"/>
</svg>
