<svg width="30" height="30" viewBox="0 0 30 30" fill="none" xmlns="http://www.w3.org/2000/svg">
<rect width="30" height="30" fill="white"/>
<path d="M8.23501 27H3.05331V11.2673H8.23501V27ZM18.9929 16.3948C18.3878 16.3948 17.8074 16.6495 17.3795 17.1027C16.9516 17.556 16.7112 18.1708 16.7112 18.8118V27H11.263V11.2673H16.7112V13.0631C17.9882 11.9179 19.6015 11.279 21.2745 11.256C24.6544 11.256 27 13.9101 27 18.9473V27H21.2745V18.8118C21.276 18.4934 21.218 18.1779 21.1039 17.8834C20.9899 17.5888 20.8221 17.3211 20.61 17.0954C20.398 16.8698 20.146 16.6908 19.8685 16.5686C19.591 16.4464 19.2934 16.3835 18.9929 16.3835V16.3948ZM8.33096 5.82353C8.33096 6.38197 8.17464 6.92787 7.88175 7.3922C7.58886 7.85653 7.17257 8.21842 6.68552 8.43213C6.19847 8.64584 5.66253 8.70175 5.14547 8.59281C4.62842 8.48386 4.15348 8.21494 3.7807 7.82007C3.40793 7.42519 3.15407 6.92208 3.05122 6.37437C2.94837 5.82666 3.00115 5.25894 3.2029 4.74301C3.40464 4.22708 3.74628 3.7861 4.18462 3.47585C4.62296 3.1656 5.1383 3 5.66548 3C6.36871 3.00596 7.04122 3.30607 7.53649 3.83494C8.03177 4.36381 8.30966 5.07858 8.30964 5.82353H8.33096Z" stroke="black" stroke-width="1.5" stroke-linecap="round" stroke-linejoin="round"/>
</svg>
