<svg width="347" height="40" viewBox="0 0 347 40" fill="none" xmlns="http://www.w3.org/2000/svg">
<path d="M14.1761 1.90909H20.2557V22.1932C20.2557 24.0682 19.8343 25.697 18.9915 27.0795C18.1581 28.4621 16.9981 29.5275 15.5114 30.2756C14.0246 31.0237 12.2964 31.3977 10.3267 31.3977C8.57481 31.3977 6.9839 31.09 5.55398 30.4744C4.13352 29.8494 3.00663 28.9025 2.1733 27.6335C1.33996 26.3551 0.92803 24.75 0.9375 22.8182H7.05966C7.0786 23.5852 7.23485 24.2434 7.52841 24.7926C7.83144 25.3324 8.24337 25.7491 8.7642 26.0426C9.29451 26.3267 9.91951 26.4688 10.6392 26.4688C11.3968 26.4688 12.036 26.3078 12.5568 25.9858C13.0871 25.6544 13.4896 25.1714 13.7642 24.5369C14.0388 23.9025 14.1761 23.1212 14.1761 22.1932V1.90909ZM35.0852 31.4261C32.8788 31.4261 30.9706 30.9574 29.3608 30.0199C27.7604 29.0729 26.5246 27.7566 25.6534 26.071C24.7822 24.3759 24.3466 22.411 24.3466 20.1761C24.3466 17.9223 24.7822 15.9527 25.6534 14.267C26.5246 12.572 27.7604 11.2557 29.3608 10.3182C30.9706 9.37121 32.8788 8.89773 35.0852 8.89773C37.2917 8.89773 39.1951 9.37121 40.7955 10.3182C42.4053 11.2557 43.6458 12.572 44.517 14.267C45.3883 15.9527 45.8239 17.9223 45.8239 20.1761C45.8239 22.411 45.3883 24.3759 44.517 26.071C43.6458 27.7566 42.4053 29.0729 40.7955 30.0199C39.1951 30.9574 37.2917 31.4261 35.0852 31.4261ZM35.1136 26.7386C36.1174 26.7386 36.9555 26.4545 37.6278 25.8864C38.3002 25.3087 38.8068 24.5227 39.1477 23.5284C39.4981 22.5341 39.6733 21.4025 39.6733 20.1335C39.6733 18.8646 39.4981 17.733 39.1477 16.7386C38.8068 15.7443 38.3002 14.9583 37.6278 14.3807C36.9555 13.803 36.1174 13.5142 35.1136 13.5142C34.1004 13.5142 33.2481 13.803 32.5568 14.3807C31.875 14.9583 31.3589 15.7443 31.0085 16.7386C30.6676 17.733 30.4972 18.8646 30.4972 20.1335C30.4972 21.4025 30.6676 22.5341 31.0085 23.5284C31.3589 24.5227 31.875 25.3087 32.5568 25.8864C33.2481 26.4545 34.1004 26.7386 35.1136 26.7386ZM61.3636 9.18182V13.7273H48.2244V9.18182H61.3636ZM51.2074 3.95455H57.2585V24.2955C57.2585 24.8542 57.3438 25.2898 57.5142 25.6023C57.6847 25.9053 57.9214 26.1184 58.2244 26.2415C58.5369 26.3646 58.8968 26.4261 59.304 26.4261C59.5881 26.4261 59.8722 26.4025 60.1562 26.3551C60.4403 26.2983 60.6581 26.2557 60.8097 26.2273L61.7614 30.7301C61.4583 30.8248 61.0322 30.9337 60.483 31.0568C59.9337 31.1894 59.2661 31.2699 58.4801 31.2983C57.0218 31.3551 55.7434 31.161 54.6449 30.7159C53.5559 30.2708 52.7083 29.5795 52.1023 28.642C51.4962 27.7045 51.1979 26.5208 51.2074 25.0909V3.95455ZM65.3054 31V9.18182H71.3565V31H65.3054ZM68.3452 6.36932C67.4455 6.36932 66.6738 6.07102 66.0298 5.47443C65.3954 4.86837 65.0781 4.14394 65.0781 3.30114C65.0781 2.4678 65.3954 1.75284 66.0298 1.15625C66.6738 0.550188 67.4455 0.247158 68.3452 0.247158C69.2448 0.247158 70.0118 0.550188 70.6463 1.15625C71.2902 1.75284 71.6122 2.4678 71.6122 3.30114C71.6122 4.14394 71.2902 4.86837 70.6463 5.47443C70.0118 6.07102 69.2448 6.36932 68.3452 6.36932ZM86.0618 31.4261C83.8269 31.4261 81.9046 30.9527 80.2947 30.0057C78.6944 29.0492 77.4633 27.7235 76.6016 26.0284C75.7493 24.3333 75.3232 22.3826 75.3232 20.1761C75.3232 17.9413 75.754 15.9811 76.6158 14.2955C77.487 12.6004 78.7228 11.2794 80.3232 10.3324C81.9235 9.37595 83.8269 8.89773 86.0334 8.89773C87.9368 8.89773 89.6035 9.24337 91.0334 9.93466C92.4633 10.6259 93.5949 11.5966 94.4283 12.8466C95.2616 14.0966 95.7209 15.5644 95.8061 17.25H90.0959C89.9349 16.161 89.5088 15.285 88.8175 14.6222C88.1357 13.9498 87.2408 13.6136 86.1328 13.6136C85.1953 13.6136 84.3762 13.8693 83.6754 14.3807C82.9841 14.8826 82.4444 15.6165 82.0561 16.5824C81.6679 17.5483 81.4737 18.7178 81.4737 20.0909C81.4737 21.483 81.6631 22.6667 82.0419 23.642C82.4302 24.6174 82.9747 25.3608 83.6754 25.8722C84.3762 26.3835 85.1953 26.6392 86.1328 26.6392C86.8241 26.6392 87.4444 26.4972 87.9936 26.2131C88.5523 25.929 89.0116 25.517 89.3714 24.9773C89.7408 24.428 89.9822 23.7699 90.0959 23.0028H95.8061C95.7114 24.6695 95.2569 26.1373 94.4425 27.4062C93.6375 28.6657 92.5249 29.6506 91.1044 30.3608C89.6839 31.071 88.0031 31.4261 86.0618 31.4261ZM107.72 31.3551C106.063 31.3551 104.562 30.929 103.217 30.0767C101.882 29.215 100.821 27.9508 100.036 26.2841C99.259 24.608 98.8707 22.553 98.8707 20.1193C98.8707 17.6193 99.2732 15.5407 100.078 13.8835C100.883 12.2169 101.953 10.9716 103.288 10.1477C104.633 9.31439 106.106 8.89773 107.706 8.89773C108.928 8.89773 109.946 9.10606 110.76 9.52273C111.584 9.92992 112.247 10.4413 112.749 11.0568C113.26 11.6629 113.648 12.2595 113.913 12.8466H114.098V1.90909H120.135V31H114.169V27.5057H113.913C113.629 28.1117 113.227 28.7131 112.706 29.3097C112.195 29.8968 111.527 30.3845 110.703 30.7727C109.889 31.161 108.894 31.3551 107.72 31.3551ZM109.638 26.5398C110.613 26.5398 111.437 26.2746 112.109 25.7443C112.791 25.2045 113.312 24.4517 113.672 23.4858C114.041 22.5199 114.226 21.3883 114.226 20.0909C114.226 18.7936 114.046 17.6667 113.686 16.7102C113.326 15.7538 112.805 15.0152 112.124 14.4943C111.442 13.9735 110.613 13.7131 109.638 13.7131C108.643 13.7131 107.805 13.983 107.124 14.5227C106.442 15.0625 105.926 15.8106 105.575 16.767C105.225 17.7235 105.05 18.8314 105.05 20.0909C105.05 21.3598 105.225 22.482 105.575 23.4574C105.935 24.4233 106.451 25.1809 107.124 25.7301C107.805 26.2699 108.643 26.5398 109.638 26.5398ZM135.053 31.4261C132.809 31.4261 130.877 30.9716 129.258 30.0625C127.648 29.1439 126.407 27.8466 125.536 26.1705C124.665 24.4848 124.229 22.4915 124.229 20.1903C124.229 17.946 124.665 15.9763 125.536 14.2812C126.407 12.5862 127.634 11.2652 129.215 10.3182C130.806 9.37121 132.672 8.89773 134.812 8.89773C136.251 8.89773 137.591 9.12973 138.832 9.59375C140.082 10.0483 141.171 10.7348 142.099 11.6534C143.036 12.572 143.765 13.7273 144.286 15.1193C144.807 16.5019 145.067 18.1212 145.067 19.9773V21.6392H126.644V17.8892H139.371C139.371 17.018 139.182 16.2462 138.803 15.5739C138.424 14.9015 137.899 14.3759 137.227 13.9972C136.564 13.6089 135.792 13.4148 134.911 13.4148C133.993 13.4148 133.178 13.6278 132.468 14.054C131.767 14.4706 131.218 15.0341 130.82 15.7443C130.423 16.4451 130.219 17.2263 130.21 18.0881V21.6534C130.21 22.733 130.408 23.6657 130.806 24.4517C131.213 25.2377 131.786 25.8438 132.525 26.2699C133.263 26.696 134.139 26.9091 135.153 26.9091C135.825 26.9091 136.441 26.8144 136.999 26.625C137.558 26.4356 138.036 26.1515 138.434 25.7727C138.832 25.3939 139.135 24.9299 139.343 24.3807L144.94 24.75C144.656 26.0947 144.073 27.2689 143.192 28.2727C142.321 29.267 141.194 30.0436 139.812 30.6023C138.439 31.1515 136.853 31.4261 135.053 31.4261ZM167.17 15.4034L161.63 15.7443C161.535 15.2708 161.332 14.8447 161.019 14.4659C160.707 14.0777 160.295 13.7699 159.783 13.5426C159.281 13.3059 158.68 13.1875 157.979 13.1875C157.042 13.1875 156.251 13.3864 155.607 13.7841C154.963 14.1723 154.641 14.6932 154.641 15.3466C154.641 15.8674 154.85 16.3078 155.266 16.6676C155.683 17.0275 156.398 17.3163 157.411 17.5341L161.36 18.3295C163.481 18.7652 165.063 19.4659 166.104 20.4318C167.146 21.3977 167.667 22.6667 167.667 24.2386C167.667 25.6686 167.246 26.9233 166.403 28.0028C165.569 29.0824 164.424 29.9252 162.965 30.5312C161.516 31.1278 159.845 31.4261 157.951 31.4261C155.063 31.4261 152.762 30.8248 151.048 29.6222C149.343 28.41 148.344 26.7623 148.05 24.679L154.002 24.3665C154.182 25.2472 154.618 25.9195 155.309 26.3835C156 26.8381 156.886 27.0653 157.965 27.0653C159.026 27.0653 159.878 26.8617 160.522 26.4545C161.175 26.0379 161.507 25.5028 161.516 24.8494C161.507 24.3002 161.275 23.8504 160.82 23.5C160.366 23.1402 159.665 22.8655 158.718 22.6761L154.94 21.9233C152.809 21.4972 151.223 20.7585 150.181 19.7074C149.149 18.6562 148.633 17.3163 148.633 15.6875C148.633 14.286 149.012 13.0786 149.769 12.0653C150.536 11.0521 151.611 10.2708 152.994 9.72159C154.386 9.17235 156.014 8.89773 157.88 8.89773C160.636 8.89773 162.804 9.48011 164.386 10.6449C165.977 11.8097 166.905 13.3958 167.17 15.4034ZM171.477 31V9.18182H177.528V31H171.477ZM174.517 6.36932C173.617 6.36932 172.846 6.07102 172.202 5.47443C171.567 4.86837 171.25 4.14394 171.25 3.30114C171.25 2.4678 171.567 1.75284 172.202 1.15625C172.846 0.550188 173.617 0.247158 174.517 0.247158C175.417 0.247158 176.184 0.550188 176.818 1.15625C177.462 1.75284 177.784 2.4678 177.784 3.30114C177.784 4.14394 177.462 4.86837 176.818 5.47443C176.184 6.07102 175.417 6.36932 174.517 6.36932ZM192.205 39.6364C190.245 39.6364 188.564 39.3665 187.163 38.8267C185.771 38.2964 184.663 37.572 183.839 36.6534C183.015 35.7348 182.48 34.7027 182.234 33.5568L187.83 32.804C188.001 33.2396 188.271 33.6468 188.64 34.0256C189.009 34.4044 189.497 34.7074 190.103 34.9347C190.719 35.1714 191.467 35.2898 192.347 35.2898C193.664 35.2898 194.748 34.9678 195.6 34.3239C196.462 33.6894 196.893 32.6241 196.893 31.1278V27.1364H196.637C196.372 27.7424 195.974 28.3153 195.444 28.8551C194.914 29.3949 194.232 29.8352 193.398 30.1761C192.565 30.517 191.571 30.6875 190.415 30.6875C188.777 30.6875 187.286 30.3087 185.941 29.5511C184.606 28.7841 183.54 27.6146 182.745 26.0426C181.959 24.4612 181.566 22.4631 181.566 20.0483C181.566 17.5767 181.969 15.5123 182.773 13.8551C183.578 12.1979 184.648 10.9574 185.984 10.1335C187.328 9.30966 188.801 8.89773 190.401 8.89773C191.623 8.89773 192.646 9.10606 193.469 9.52273C194.293 9.92992 194.956 10.4413 195.458 11.0568C195.969 11.6629 196.362 12.2595 196.637 12.8466H196.864V9.18182H202.873V31.2131C202.873 33.0691 202.418 34.6222 201.509 35.8722C200.6 37.1222 199.341 38.0597 197.731 38.6847C196.13 39.3191 194.289 39.6364 192.205 39.6364ZM192.333 26.142C193.308 26.142 194.132 25.9006 194.805 25.4176C195.487 24.9252 196.007 24.2244 196.367 23.3153C196.737 22.3968 196.921 21.2983 196.921 20.0199C196.921 18.7415 196.741 17.6335 196.381 16.696C196.022 15.7491 195.501 15.0152 194.819 14.4943C194.137 13.9735 193.308 13.7131 192.333 13.7131C191.339 13.7131 190.501 13.983 189.819 14.5227C189.137 15.053 188.621 15.7917 188.271 16.7386C187.92 17.6856 187.745 18.7794 187.745 20.0199C187.745 21.2794 187.92 22.3684 188.271 23.2869C188.63 24.196 189.147 24.9015 189.819 25.4034C190.501 25.8958 191.339 26.142 192.333 26.142ZM213.739 18.3864V31H207.688V9.18182H213.455V13.0312H213.711C214.194 11.7623 215.004 10.7585 216.14 10.0199C217.276 9.27178 218.654 8.89773 220.273 8.89773C221.789 8.89773 223.11 9.22917 224.237 9.89205C225.363 10.5549 226.239 11.5019 226.864 12.733C227.489 13.9545 227.802 15.4129 227.802 17.108V31H221.751V18.1875C221.76 16.8523 221.419 15.8106 220.728 15.0625C220.037 14.3049 219.085 13.9261 217.873 13.9261C217.058 13.9261 216.339 14.1013 215.714 14.4517C215.098 14.8021 214.615 15.3134 214.265 15.9858C213.924 16.6487 213.749 17.4489 213.739 18.3864ZM250.724 15.4034L245.185 15.7443C245.09 15.2708 244.886 14.8447 244.574 14.4659C244.261 14.0777 243.849 13.7699 243.338 13.5426C242.836 13.3059 242.235 13.1875 241.534 13.1875C240.597 13.1875 239.806 13.3864 239.162 13.7841C238.518 14.1723 238.196 14.6932 238.196 15.3466C238.196 15.8674 238.404 16.3078 238.821 16.6676C239.238 17.0275 239.953 17.3163 240.966 17.5341L244.915 18.3295C247.036 18.7652 248.617 19.4659 249.659 20.4318C250.701 21.3977 251.222 22.6667 251.222 24.2386C251.222 25.6686 250.8 26.9233 249.957 28.0028C249.124 29.0824 247.978 29.9252 246.52 30.5312C245.071 31.1278 243.4 31.4261 241.506 31.4261C238.617 31.4261 236.316 30.8248 234.602 29.6222C232.898 28.41 231.899 26.7623 231.605 24.679L237.557 24.3665C237.737 25.2472 238.172 25.9195 238.864 26.3835C239.555 26.8381 240.44 27.0653 241.52 27.0653C242.58 27.0653 243.433 26.8617 244.077 26.4545C244.73 26.0379 245.062 25.5028 245.071 24.8494C245.062 24.3002 244.83 23.8504 244.375 23.5C243.92 23.1402 243.22 22.8655 242.273 22.6761L238.494 21.9233C236.364 21.4972 234.777 20.7585 233.736 19.7074C232.704 18.6562 232.188 17.3163 232.188 15.6875C232.188 14.286 232.566 13.0786 233.324 12.0653C234.091 11.0521 235.166 10.2708 236.548 9.72159C237.94 9.17235 239.569 8.89773 241.435 8.89773C244.19 8.89773 246.359 9.48011 247.94 10.6449C249.531 11.8097 250.459 13.3958 250.724 15.4034ZM258.569 31.3693C257.631 31.3693 256.826 31.0379 256.154 30.375C255.491 29.7027 255.16 28.8977 255.16 27.9602C255.16 27.0322 255.491 26.2367 256.154 25.5739C256.826 24.911 257.631 24.5795 258.569 24.5795C259.478 24.5795 260.273 24.911 260.955 25.5739C261.637 26.2367 261.978 27.0322 261.978 27.9602C261.978 28.5852 261.817 29.1581 261.495 29.679C261.183 30.1903 260.771 30.6023 260.259 30.9148C259.748 31.2178 259.184 31.3693 258.569 31.3693ZM276.804 31.4261C274.569 31.4261 272.647 30.9527 271.037 30.0057C269.437 29.0492 268.205 27.7235 267.344 26.0284C266.491 24.3333 266.065 22.3826 266.065 20.1761C266.065 17.9413 266.496 15.9811 267.358 14.2955C268.229 12.6004 269.465 11.2794 271.065 10.3324C272.666 9.37595 274.569 8.89773 276.776 8.89773C278.679 8.89773 280.346 9.24337 281.776 9.93466C283.205 10.6259 284.337 11.5966 285.17 12.8466C286.004 14.0966 286.463 15.5644 286.548 17.25H280.838C280.677 16.161 280.251 15.285 279.56 14.6222C278.878 13.9498 277.983 13.6136 276.875 13.6136C275.938 13.6136 275.118 13.8693 274.418 14.3807C273.726 14.8826 273.187 15.6165 272.798 16.5824C272.41 17.5483 272.216 18.7178 272.216 20.0909C272.216 21.483 272.405 22.6667 272.784 23.642C273.172 24.6174 273.717 25.3608 274.418 25.8722C275.118 26.3835 275.938 26.6392 276.875 26.6392C277.566 26.6392 278.187 26.4972 278.736 26.2131C279.295 25.929 279.754 25.517 280.114 24.9773C280.483 24.428 280.724 23.7699 280.838 23.0028H286.548C286.454 24.6695 285.999 26.1373 285.185 27.4062C284.38 28.6657 283.267 29.6506 281.847 30.3608C280.426 31.071 278.745 31.4261 276.804 31.4261ZM300.281 31.4261C298.074 31.4261 296.166 30.9574 294.556 30.0199C292.956 29.0729 291.72 27.7566 290.849 26.071C289.978 24.3759 289.542 22.411 289.542 20.1761C289.542 17.9223 289.978 15.9527 290.849 14.267C291.72 12.572 292.956 11.2557 294.556 10.3182C296.166 9.37121 298.074 8.89773 300.281 8.89773C302.487 8.89773 304.39 9.37121 305.991 10.3182C307.601 11.2557 308.841 12.572 309.712 14.267C310.584 15.9527 311.019 17.9223 311.019 20.1761C311.019 22.411 310.584 24.3759 309.712 26.071C308.841 27.7566 307.601 29.0729 305.991 30.0199C304.39 30.9574 302.487 31.4261 300.281 31.4261ZM300.309 26.7386C301.313 26.7386 302.151 26.4545 302.823 25.8864C303.496 25.3087 304.002 24.5227 304.343 23.5284C304.693 22.5341 304.869 21.4025 304.869 20.1335C304.869 18.8646 304.693 17.733 304.343 16.7386C304.002 15.7443 303.496 14.9583 302.823 14.3807C302.151 13.803 301.313 13.5142 300.309 13.5142C299.296 13.5142 298.443 13.803 297.752 14.3807C297.07 14.9583 296.554 15.7443 296.204 16.7386C295.863 17.733 295.692 18.8646 295.692 20.1335C295.692 21.4025 295.863 22.5341 296.204 23.5284C296.554 24.5227 297.07 25.3087 297.752 25.8864C298.443 26.4545 299.296 26.7386 300.309 26.7386ZM314.954 31V9.18182H320.721V13.0312H320.977C321.431 11.7528 322.189 10.7443 323.249 10.0057C324.31 9.26705 325.579 8.89773 327.056 8.89773C328.552 8.89773 329.826 9.27178 330.877 10.0199C331.928 10.7585 332.629 11.7623 332.979 13.0312H333.207C333.652 11.7812 334.457 10.7822 335.621 10.0341C336.796 9.27652 338.183 8.89773 339.783 8.89773C341.819 8.89773 343.472 9.5464 344.741 10.8438C346.019 12.1316 346.658 13.9593 346.658 16.3267V31H340.621V17.5199C340.621 16.3078 340.299 15.3987 339.656 14.7926C339.012 14.1866 338.207 13.8835 337.241 13.8835C336.142 13.8835 335.285 14.2339 334.67 14.9347C334.054 15.6259 333.746 16.5398 333.746 17.6761V31H327.88V17.392C327.88 16.322 327.572 15.4697 326.957 14.8352C326.351 14.2008 325.55 13.8835 324.556 13.8835C323.884 13.8835 323.278 14.054 322.738 14.3949C322.208 14.7263 321.786 15.1951 321.474 15.8011C321.161 16.3977 321.005 17.0985 321.005 17.9034V31H314.954Z" fill="black"/>
</svg>
