<svg width="84" height="96" viewBox="0 0 84 96" fill="none" xmlns="http://www.w3.org/2000/svg">
<path d="M67.3572 95.6259H48.0127C49.3022 93.3019 50.6777 90.3294 51.1522 88.2564C51.456 87.0982 51.2915 85.8671 50.6942 84.8294L52.9727 81.2819C54.0402 80.8774 51.2437 79.0914 51.2437 79.0914L55.1137 70.9414C55.947 70.2615 56.7338 69.5265 57.4687 68.7414C57.9093 68.285 58.2215 67.7202 58.3737 67.1044C58.45 66.8154 58.471 66.5146 58.4357 66.2179L58.4542 66.2139C58.4542 66.2139 68.2652 66.5859 72.0952 70.5824C78.2982 77.0549 76.2837 95.6239 76.2837 95.6239H67.3572V95.6259Z" fill="#69D6F9"/>
<path d="M75.7178 24.4097L58.7178 36.3437L62.8678 13.5107L75.7178 24.4097ZM61.4233 32.1147L72.6023 24.2647L64.1498 17.0997L61.4233 32.1147Z" fill="#0400BF"/>
<path d="M39.5401 61.4607C40.0731 60.9607 41.0901 60.5542 42.3791 61.3107C43.7711 62.1292 44.2856 64.1162 45.8536 64.2152C47.4216 64.3142 49.7271 63.0247 52.0291 61.4607C53.0071 60.7977 54.2326 59.9022 55.4121 59.0707C55.8742 58.7577 56.3005 58.3946 56.6831 57.9882C57.0453 57.5347 57.3752 57.0561 57.6701 56.5562C58.2306 55.7647 59.1026 55.6917 59.3516 56.2757C59.4144 56.5169 59.4252 56.7687 59.3832 57.0144C59.3412 57.2601 59.2474 57.494 59.1081 57.7007C58.663 58.5454 58.134 59.3431 57.5291 60.0817L57.6061 60.1457C57.8491 60.4522 58.008 60.8168 58.0671 61.2035C58.1262 61.5902 58.0834 61.9856 57.9431 62.3507L57.9961 62.3692C58.2245 62.7918 58.3353 63.268 58.3169 63.748C58.2986 64.228 58.1517 64.6943 57.8916 65.0982C58.1665 65.4179 58.354 65.8035 58.4356 66.2172C58.4709 66.514 58.4498 66.8147 58.3736 67.1037C58.2214 67.7196 57.9092 68.2843 57.4686 68.7407C56.7336 69.5258 55.9469 70.2608 55.1136 70.9407L51.2436 79.0907L50.4266 80.8122L50.3861 80.9187C47.1246 79.6657 42.3861 76.1687 42.3861 76.1687L43.7906 73.8462L45.4956 71.0297C44.4351 70.0937 44.1056 69.9582 43.6331 69.0387C43.1523 68.0935 42.8135 67.0827 42.6276 66.0387C42.3711 64.8557 41.5121 63.9912 40.2616 63.2972C39.9009 63.1209 39.5841 62.8662 39.3346 62.5517C39.224 62.4083 39.1717 62.2285 39.188 62.0482C39.2043 61.8679 39.2881 61.7004 39.4226 61.5792C39.4596 61.5377 39.4996 61.4997 39.5401 61.4607Z" fill="#FFC077"/>
<path d="M57.1997 23.1467L56.2582 24.1597L55.3332 23.3007L54.4102 22.4417L55.3517 21.4287L57.1997 23.1467Z" fill="#0400BF"/>
<path d="M55.2286 55.5047C55.4136 55.5597 56.6611 55.9422 56.6391 56.5102C56.6171 57.1237 56.1921 57.1237 56.1921 57.1237C56.2764 57.2005 56.3415 57.296 56.3822 57.4025C56.4229 57.5091 56.4381 57.6237 56.4266 57.7372L56.6831 57.9872C56.3005 58.3936 55.8742 58.7566 55.4121 59.0697C54.2326 59.9012 53.0071 60.7967 52.0291 61.4597C49.7291 63.0237 47.4231 64.3152 45.8536 64.2142C44.2841 64.1132 43.7711 62.1282 42.3791 61.3097C41.0881 60.5512 40.0731 60.9597 39.5401 61.4597C39.1246 61.6777 38.7636 61.3317 38.5731 60.8597C38.4823 60.6317 38.4345 60.389 38.4321 60.1437C38.4321 60.1437 37.6821 58.7297 36.5676 57.0852C36.2509 56.5772 35.8466 56.1294 35.3736 55.7627C35.3681 55.7592 35.3626 55.7537 35.3571 55.7502C35.1892 55.6044 34.9788 55.5167 34.7571 55.5002C33.1302 53.1881 32.3874 50.3687 32.6641 47.5552V47.5257C32.7195 46.8544 32.8292 46.1887 32.9921 45.5352C32.6311 47.4107 35.0981 48.4177 35.6696 48.9637C36.2666 49.5332 35.4696 50.6817 35.6696 52.3682C35.7445 53.3112 36.0317 54.2251 36.5097 55.0415C36.9876 55.8579 37.6439 56.5556 38.4296 57.0827C40.2431 58.2327 41.9351 57.5202 43.8601 57.5462C43.4881 55.9707 43.9991 54.4322 45.9991 53.4307C47.4679 52.6199 49.1036 52.158 50.7796 52.0807C51.417 52.049 52.0467 52.2311 52.5689 52.598C53.0911 52.9649 53.4758 53.4957 53.6621 54.1062C53.6621 54.1062 54.1071 52.3757 53.9846 51.8757C53.6952 50.6834 53.2761 49.5265 52.7346 48.4257C53.6059 49.489 54.2964 50.6883 54.7786 51.9757C54.7786 51.9757 55.6521 52.6132 55.6521 53.1812C55.6538 53.3342 55.5953 53.4819 55.4891 53.5922C55.3829 53.7025 55.2376 53.7666 55.0846 53.7707C55.0846 53.7707 55.9846 54.2907 55.8886 54.9757C55.8896 55.0573 55.8721 55.1381 55.8373 55.2119C55.8026 55.2857 55.7514 55.3507 55.6879 55.4019C55.6243 55.453 55.5499 55.489 55.4703 55.5072C55.3907 55.5254 55.3081 55.5252 55.2286 55.5067V55.5047ZM52.3606 57.2792C53.4341 57.1657 53.4396 55.7792 52.8716 54.4097C51.5586 51.8217 49.1646 53.2152 47.2801 53.9242C45.3956 54.6332 44.3021 55.4407 45.2051 57.5397C45.5551 58.3397 46.7781 59.6987 48.0401 59.1712C49.3021 58.6437 48.8371 57.4167 49.9401 57.0287C51.2216 56.5762 51.3826 57.3857 52.3606 57.2812V57.2792Z" fill="#0400BF"/>
<path d="M55.3333 23.3004L56.2583 24.1594L48.2308 32.7964L48.1648 31.8459L47.3058 31.9374L47.2838 31.0274L46.3828 31.0784L54.4103 22.4414L55.3333 23.3004Z" fill="#FFC077"/>
<path d="M46.3499 47.106C46.8589 47.443 47.0549 46.606 47.7199 45.835C48.2839 45.1524 49.0491 44.6652 49.9064 44.443C49.5023 44.3373 49.0793 44.3262 48.6702 44.4104C48.2611 44.4945 47.8769 44.6719 47.5474 44.9285C46.4194 45.811 45.8429 46.771 46.3499 47.106ZM38.2999 49.5695C39.9279 47.7695 39.4264 47.313 41.5249 46.846C42.5194 46.6245 43.1659 47.212 43.1094 46.604C43.0529 45.996 41.9354 45.6865 40.6239 46.2655C39.3334 46.8365 38.3279 49.487 38.2999 49.5695ZM53.9884 51.879C54.1109 52.379 53.6659 54.1095 53.6659 54.1095C53.4796 53.4991 53.0949 52.9683 52.5727 52.6014C52.0505 52.2344 51.4208 52.0524 50.7834 52.084C49.1074 52.1614 47.4717 52.6233 46.0029 53.434C44.0029 54.434 43.4919 55.974 43.8639 57.5495C41.9389 57.5235 40.2469 58.236 38.4334 57.086C37.6477 56.559 36.9914 55.8612 36.5135 55.0448C36.0355 54.2285 35.7483 53.3146 35.6734 52.3715C35.4734 50.685 36.2704 49.5365 35.6734 48.967C35.1019 48.421 32.6349 47.414 32.9959 45.5385C33.1226 45.0094 33.2967 44.4926 33.5159 43.9945C35.4024 39.8075 40.4609 38.663 43.1129 38.665C45.4974 38.665 49.0819 40.8555 50.4589 42.923C51.2394 44.0915 50.8764 44.4155 51.2354 45.518V45.522C51.3255 45.7939 51.4351 46.0589 51.5634 46.315C51.7244 46.643 52.2079 47.355 52.7334 48.4285C53.2763 49.5294 53.6968 50.6865 53.9874 51.879H53.9884ZM49.5269 47.657C49.8439 47.597 50.0359 47.407 49.9554 46.976C49.8749 46.545 49.5524 46.2505 49.2354 46.3095C49.0643 46.3734 48.9243 46.5007 48.8445 46.665C48.7647 46.8294 48.7513 47.0181 48.8069 47.192C48.8162 47.2734 48.8435 47.3516 48.8866 47.4211C48.9298 47.4907 48.9879 47.5498 49.0566 47.5943C49.1253 47.6387 49.2031 47.6674 49.2842 47.6782C49.3653 47.6891 49.4479 47.6819 49.5259 47.657H49.5269ZM41.9534 50.5895C42.2959 50.5235 42.5034 50.3145 42.4169 49.8515C42.3304 49.3885 41.9809 49.0655 41.6369 49.1315C41.4516 49.2004 41.3001 49.3381 41.2138 49.5159C41.1274 49.6937 41.113 49.8979 41.1734 50.086C41.1834 50.1742 41.2129 50.259 41.2596 50.3344C41.3064 50.4098 41.3693 50.4738 41.4438 50.522C41.5183 50.5701 41.6026 50.6012 41.6905 50.6129C41.7784 50.6245 41.8679 50.6166 41.9524 50.5895H41.9534Z" fill="#FFC077"/>
<path d="M52.9729 81.2815L50.6944 84.829C51.2917 85.8667 51.4563 87.0978 51.1524 88.256C50.6779 90.329 49.3024 93.3015 48.0129 95.6255H29.3154C30.7054 93.5855 36.2844 83.5255 37.6154 81.981C38.8314 80.569 39.8809 80.3125 39.8809 80.3125L42.3884 76.168C42.3884 76.168 47.1264 79.668 50.3884 80.918C50.9396 81.1492 51.5225 81.2961 52.1174 81.354C52.4046 81.3845 52.695 81.3599 52.9729 81.2815Z" fill="#69D6F9"/>
<path d="M39.3428 51.0641C40.2502 51.0224 41.1545 50.9287 42.0513 50.7836C42.8443 50.6026 42.8938 49.4941 42.8938 49.4941C42.8938 49.4941 42.6173 48.6941 41.4908 49.0311C40.6193 49.2911 39.3428 51.0641 39.3428 51.0641Z" fill="white"/>
<path d="M46.8496 48.1336C47.7586 48.1143 48.6645 48.0205 49.5581 47.8531C50.6866 47.5291 50.3131 46.2451 50.3131 46.2451C50.3131 46.2451 50.1536 45.8861 48.9996 46.1006C48.4026 46.2106 46.8496 48.1336 46.8496 48.1336Z" fill="white"/>
<path d="M52.8716 54.412C53.4396 55.7815 53.4341 57.168 52.3606 57.2815C51.3826 57.386 51.2216 56.5765 49.9376 57.0315C48.8376 57.4195 49.3021 58.6485 48.0376 59.174C46.7731 59.6995 45.5506 58.3445 45.2026 57.5425C44.2996 55.4425 45.3911 54.6355 47.2776 53.927C49.1641 53.2185 51.5586 51.824 52.8716 54.412Z" fill="#FFC077"/>
<path d="M47.5496 44.9285C47.8791 44.6718 48.2633 44.4945 48.6724 44.4103C49.0815 44.3261 49.5045 44.3373 49.9086 44.443C49.0514 44.6652 48.2862 45.1523 47.7221 45.835C47.0571 46.608 46.8611 47.443 46.3521 47.106C45.8431 46.769 46.4191 45.811 47.5496 44.9285Z" fill="#0400BF"/>
<path d="M45.654 33.0783C46.079 32.9723 46.5005 33.2508 46.2895 33.6698L45.2695 34.1298L45.6525 33.0798L45.654 33.0783Z" fill="#0400BF"/>
<path d="M38.1777 67.7209L39.3827 67.3109L38.1777 60.9664C38.2622 60.9464 38.3462 60.9209 38.4322 60.8934L38.5732 60.8584C38.7637 61.3329 39.1232 61.6789 39.5402 61.4584C39.4994 61.4957 39.4603 61.5349 39.4232 61.5759C39.2887 61.6971 39.205 61.8646 39.1886 62.0449C39.1723 62.2252 39.2247 62.405 39.3352 62.5484C39.5846 62.863 39.9014 63.1178 40.2622 63.2939C41.5122 63.9879 42.3717 64.8524 42.6282 66.0354C42.8142 67.0794 43.153 68.0902 43.6337 69.0354C44.1062 69.9549 44.4337 70.0904 45.4962 71.0264L43.7912 73.8429C38.1777 71.8194 37.2822 67.3084 37.2822 67.3084C37.4561 67.2697 37.6378 67.2891 37.7995 67.3636C37.9613 67.4382 38.0941 67.5636 38.1777 67.7209Z" fill="#FFC077"/>
<path d="M43.7914 73.846L42.3869 76.1685L39.8794 80.313C39.8794 80.313 38.8294 80.5695 37.6139 81.9815C36.2844 83.5255 30.7054 93.586 29.3139 95.626H17.5999C17.5999 95.626 16.8949 84.6445 19.7134 77.921C22.5319 71.1975 37.2849 67.3115 37.2849 67.3115C37.2849 67.3115 38.1779 71.8225 43.7914 73.846Z" fill="#69D6F9"/>
<path d="M43.1083 46.6042C43.1648 47.2122 42.5183 46.6247 41.5238 46.8462C39.4238 47.3132 39.9268 47.7692 38.2988 49.5697C38.3278 49.4872 39.3333 46.8367 40.6228 46.2657C41.9343 45.6867 43.0533 45.9962 43.1083 46.6042Z" fill="#0400BF"/>
<path d="M38.5733 60.8586L38.4323 60.8936C38.3463 60.9211 38.2623 60.9466 38.1778 60.9666C34.4618 61.9266 33.3278 56.9666 33.8573 56.0271C34.3538 55.1406 35.2253 55.6646 35.3573 55.7491C35.3628 55.7526 35.3683 55.7581 35.3738 55.7616C35.8469 56.1284 36.2512 56.5761 36.5678 57.0841C37.2387 58.0727 37.861 59.0934 38.4323 60.1426C38.4347 60.3879 38.4825 60.6307 38.5733 60.8586Z" fill="#FFC077"/>
<path d="M28.5916 38.3276C29.0951 39.1631 26.5771 41.6081 22.9671 43.7876C19.3571 45.9671 16.0201 47.0566 15.5171 46.2196C15.0141 45.3826 17.5301 42.9396 21.1396 40.7616C24.7491 38.5836 28.0861 37.4926 28.5916 38.3276Z" fill="#69D6F9"/>
<path d="M21.9651 27.3496L28.5916 38.3271C28.0861 37.4921 24.7511 38.5816 21.1416 40.7611C17.5321 42.9406 15.0111 45.3841 15.5166 46.2191L8.89014 35.2451C9.39564 36.0801 12.7311 34.9901 16.3401 32.8106C19.9491 30.6311 22.4691 28.1881 21.9651 27.3496Z" fill="#69D6F9"/>
<path d="M21.9651 27.3496C22.4691 28.1866 19.9526 30.6296 16.3406 32.8091C12.7286 34.9886 9.39557 36.0786 8.89057 35.2436C8.38557 34.4086 10.9056 31.9631 14.5151 29.7836C18.1246 27.6041 21.4616 26.5161 21.9651 27.3496Z" fill="#69D6F9"/>
<path d="M45.4961 56.4046L46.0766 56.4411C46.4024 55.9857 46.7825 55.5718 47.2086 55.2086C47.5137 55.0004 47.8618 54.8636 48.2271 54.8086" stroke="#0400BF" stroke-width="0.08796" stroke-linecap="round" stroke-linejoin="round"/>
<path d="M48.7671 54.5949C49.2913 54.4313 49.8279 54.3106 50.3716 54.2339C50.775 54.3064 51.1722 54.4094 51.5601 54.5419L51.8371 54.1094" stroke="#0400BF" stroke-width="0.08796" stroke-linecap="round" stroke-linejoin="round"/>
<path d="M47.7783 56.896C48.3464 56.8867 48.9105 56.7985 49.4543 56.634C49.9796 56.4187 50.4851 56.1582 50.9653 55.8555" stroke="#0400BF" stroke-width="0.08796" stroke-linecap="round" stroke-linejoin="round"/>
<path d="M45.6797 52.0841C45.6891 51.9311 45.7466 51.7849 45.8442 51.6666C45.9109 51.5809 46.0073 51.5231 46.1143 51.5046C46.2214 51.4861 46.3315 51.5082 46.4232 51.5666C46.7693 51.7371 47.1565 51.8064 47.5402 51.7666C47.9872 51.7166 48.2672 51.2756 48.4402 51.0121C48.4799 50.9546 48.5363 50.9107 48.6018 50.8861C48.6672 50.8616 48.7386 50.8576 48.8063 50.8747C48.8741 50.8919 48.935 50.9293 48.9809 50.982C49.0268 51.0347 49.0555 51.1001 49.0632 51.1696" stroke="#0400BF" stroke-width="0.08796" stroke-linecap="round" stroke-linejoin="round"/>
<path d="M44.7805 51.3076C44.524 51.8681 44.691 52.7871 45.376 52.6941" stroke="#0400BF" stroke-width="0.08796" stroke-linecap="round" stroke-linejoin="round"/>
<path d="M49.1797 49.918C49.1797 49.918 50.4852 50.718 49.6467 51.513" stroke="#0400BF" stroke-width="0.08796" stroke-linecap="round" stroke-linejoin="round"/>
<path d="M38.2998 49.5697C38.3288 49.4872 39.3343 46.8367 40.6238 46.2657C41.9353 45.6867 43.0543 45.9962 43.1093 46.6042C43.1643 47.2122 42.5193 46.6247 41.5248 46.8462C39.4253 47.3132 39.9268 47.7692 38.2998 49.5697Z" stroke="#0400BF" stroke-width="0.08796" stroke-linecap="round" stroke-linejoin="round"/>
<path d="M46.35 47.106C46.859 47.443 47.055 46.606 47.72 45.835C48.284 45.1523 49.0492 44.6652 49.9065 44.443C49.5024 44.3373 49.0794 44.3261 48.6703 44.4103C48.2612 44.4945 47.877 44.6718 47.5475 44.9285C46.4195 45.811 45.843 46.771 46.35 47.106Z" stroke="#0400BF" stroke-width="0.08796" stroke-linecap="round" stroke-linejoin="round"/>
<path d="M39.3428 50.8719C39.3428 50.8719 40.2528 49.4674 41.0278 49.1629C41.5469 48.981 42.1014 48.9233 42.6468 48.9944" stroke="#0400BF" stroke-width="0.08796" stroke-linecap="round" stroke-linejoin="round"/>
<path d="M41.8609 49.8937C41.8131 49.6211 41.6804 49.3705 41.4819 49.1777C41.2749 48.9852 41.0899 49.2177 40.8464 49.2657C40.3594 49.3572 40.0039 49.6007 40.1174 50.2217C40.1415 50.4277 40.2424 50.617 40.4 50.7518C40.5576 50.8865 40.7602 50.9569 40.9674 50.9487C41.0454 50.9482 41.1232 50.9409 41.1999 50.9267C41.3171 50.9145 41.4301 50.8761 41.5304 50.8142C41.6307 50.7524 41.7158 50.6687 41.7793 50.5694C41.8428 50.4702 41.8832 50.3579 41.8973 50.2409C41.9114 50.1239 41.899 50.0052 41.8609 49.8937Z" fill="#0400BF"/>
<path d="M47.0625 48.0786C47.0625 48.0786 47.7895 46.6736 48.566 46.3716C49.085 46.1885 49.6399 46.1308 50.1855 46.2031" stroke="#0400BF" stroke-width="0.08796" stroke-linecap="round" stroke-linejoin="round"/>
<path d="M49.2529 47.1423C49.243 47.0329 49.2103 46.9269 49.1569 46.831C49.1036 46.735 49.0308 46.6513 48.9433 46.5851C48.8557 46.5189 48.7553 46.4718 48.6484 46.4467C48.5416 46.4216 48.4307 46.4191 48.3228 46.4393C48.2149 46.4596 48.1124 46.5021 48.022 46.5643C47.9315 46.6264 47.855 46.7068 47.7974 46.8002C47.7398 46.8937 47.7024 46.9981 47.6875 47.1069C47.6726 47.2156 47.6806 47.3263 47.7109 47.4318C47.7253 47.5349 47.7604 47.634 47.8142 47.7231C47.868 47.8123 47.9393 47.8895 48.0239 47.9503C48.153 48.0357 48.3051 48.0796 48.4599 48.0763C48.5287 48.0758 48.5973 48.0691 48.6649 48.0563C48.7684 48.0448 48.868 48.0104 48.9565 47.9555C49.045 47.9007 49.1202 47.8268 49.1765 47.7392C49.2329 47.6517 49.2689 47.5526 49.2822 47.4494C49.2954 47.3461 49.2854 47.2412 49.2529 47.1423Z" fill="#0400BF"/>
<path d="M46.3496 47.1064C46.4291 47.3886 46.5658 47.6513 46.751 47.8785C46.9363 48.1056 47.1662 48.2923 47.4266 48.4269" stroke="#0400BF" stroke-width="0.08796" stroke-linecap="round" stroke-linejoin="round"/>
<path d="M35.3571 55.7501C35.2251 55.6656 34.3536 55.1416 33.8571 56.0281C33.3296 56.9661 34.4616 61.9281 38.1776 60.9676C38.2621 60.9476 38.3461 60.9221 38.4321 60.8946" stroke="#0400BF" stroke-width="0.08796" stroke-linecap="round" stroke-linejoin="round"/>
<path d="M35.6999 57.084C35.0169 57.084 34.7659 58.1975 35.4499 59.205C35.6499 59.4905 35.9342 59.7063 36.263 59.8222C36.5917 59.9381 36.9485 59.9484 37.2834 59.8515" stroke="#0400BF" stroke-width="0.08796" stroke-linecap="round" stroke-linejoin="round"/>
<path d="M39.5788 61.4409C39.5665 61.4485 39.5536 61.4551 39.5403 61.4609C39.1248 61.6789 38.7638 61.3329 38.5733 60.8609C38.4826 60.633 38.4348 60.3902 38.4323 60.1449C38.4323 60.1449 37.6823 58.7309 36.5678 57.0864C36.2512 56.5784 35.8469 56.1307 35.3738 55.7639C35.3683 55.7604 35.3628 55.7549 35.3573 55.7509C35.189 55.6063 34.9787 55.5197 34.7573 55.5039" stroke="#0400BF" stroke-width="0.08796" stroke-linecap="round" stroke-linejoin="round"/>
<path d="M32.6647 47.5566C32.389 50.3697 33.1319 53.1883 34.7582 55.5001" stroke="#0400BF" stroke-width="0.08796" stroke-linecap="round" stroke-linejoin="round"/>
<path d="M51.2345 45.5161C50.8755 44.4161 51.2385 44.0896 50.458 42.9211C49.081 40.8536 45.4965 38.6631 43.112 38.6631C40.462 38.6631 35.4015 39.8056 33.515 43.9926C33.2958 44.4907 33.1218 45.0074 32.995 45.5366C32.8321 46.1901 32.7224 46.8558 32.667 47.5271" stroke="#0400BF" stroke-width="0.08796" stroke-linecap="round" stroke-linejoin="round"/>
<path d="M52.7343 48.427C52.2088 47.3535 51.7253 46.6415 51.5643 46.3135C51.4361 46.0574 51.3264 45.7924 51.2363 45.5205" stroke="#0400BF" stroke-width="0.08796" stroke-linecap="round" stroke-linejoin="round"/>
<path d="M33.0589 45.2832C33.0319 45.366 33.0105 45.4505 32.9949 45.5362C32.6339 47.4117 35.1009 48.4187 35.6724 48.9647C36.2694 49.5342 35.4724 50.6827 35.6724 52.3692C35.7474 53.3122 36.0346 54.2261 36.5125 55.0425C36.9904 55.8589 37.6468 56.5567 38.4324 57.0837C40.2459 58.2337 41.9379 57.5212 43.8629 57.5472C43.4909 55.9717 44.0019 54.4332 46.0019 53.4317C47.4707 52.621 49.1064 52.1591 50.7824 52.0817C51.4198 52.05 52.0496 52.2321 52.5718 52.599C53.0939 52.966 53.4787 53.4968 53.6649 54.1072C53.6649 54.1072 54.1099 52.3767 53.9874 51.8767C53.6981 50.6845 53.2789 49.5276 52.7374 48.4267" stroke="#0400BF" stroke-width="0.08796" stroke-linecap="round" stroke-linejoin="round"/>
<path d="M55.2288 55.5072C55.3083 55.526 55.391 55.5264 55.4706 55.5084C55.5503 55.4905 55.6248 55.4546 55.6886 55.4036C55.7523 55.3526 55.8036 55.2877 55.8386 55.2139C55.8735 55.1402 55.8912 55.0594 55.8903 54.9777C55.9833 54.2927 55.0863 53.7727 55.0863 53.7727C55.2394 53.7687 55.3847 53.7046 55.4909 53.5943C55.5971 53.484 55.6556 53.3363 55.6538 53.1832C55.6538 52.6152 54.7803 51.9777 54.7803 51.9777C54.2982 50.6904 53.6076 49.491 52.7363 48.4277" stroke="#0400BF" stroke-width="0.08796" stroke-linecap="round" stroke-linejoin="round"/>
<path d="M55.2216 55.5055C55.216 55.5048 55.2105 55.5036 55.2051 55.502" stroke="#0400BF" stroke-width="0.08796" stroke-linecap="round" stroke-linejoin="round"/>
<path d="M55.2217 55.5049H55.2287" stroke="#0400BF" stroke-width="0.08796" stroke-linecap="round" stroke-linejoin="round"/>
<path d="M56.427 57.7393C56.4386 57.6259 56.4234 57.5113 56.3826 57.4047C56.3419 57.2982 56.2768 57.2027 56.1925 57.1258C56.1925 57.1258 56.6175 57.1258 56.6395 56.5123C56.6615 55.9443 55.414 55.5623 55.229 55.5068" stroke="#0400BF" stroke-width="0.08796" stroke-linecap="round" stroke-linejoin="round"/>
<path d="M54.6536 62.5357C55.2011 62.0742 55.8001 61.6357 56.6206 60.9937C56.9543 60.7228 57.2587 60.4178 57.5291 60.0837C58.134 59.345 58.663 58.5473 59.1081 57.7027C59.2474 57.496 59.3412 57.2621 59.3832 57.0164C59.4252 56.7707 59.4144 56.5189 59.3516 56.2777C59.1016 55.6937 58.2306 55.7666 57.6701 56.5581C57.3751 57.0581 57.0453 57.5366 56.6831 57.9902C56.3005 58.3966 55.8742 58.7596 55.4121 59.0727C54.2326 59.9042 53.0071 60.7997 52.0291 61.4627C49.7291 63.0267 47.4231 64.3181 45.8536 64.2171C44.2841 64.1161 43.7711 62.1312 42.3791 61.3127C41.0876 60.5542 40.0731 60.9627 39.5401 61.4627C39.4992 61.4999 39.4602 61.5391 39.4231 61.5802C39.2886 61.7013 39.2048 61.8689 39.1885 62.0492C39.1722 62.2295 39.2245 62.4093 39.3351 62.5527C39.5844 62.8672 39.901 63.1219 40.2616 63.2982C41.5116 63.9922 42.3716 64.8567 42.6281 66.0397C42.814 67.0836 43.1528 68.0945 43.6336 69.0397C44.1061 69.9592 44.4336 70.0946 45.4961 71.0306" stroke="#0400BF" stroke-width="0.08796" stroke-linecap="round" stroke-linejoin="round"/>
<path d="M57.9964 62.3711C58.2248 62.7937 58.3356 63.2699 58.3172 63.7499C58.2989 64.2299 58.152 64.6962 57.8919 65.1001C57.6641 65.5042 57.3873 65.8787 57.0679 66.2151" stroke="#0400BF" stroke-width="0.08796" stroke-linecap="round" stroke-linejoin="round"/>
<path d="M57.8916 65.0996C58.1665 65.4193 58.354 65.8049 58.4356 66.2186C58.4709 66.5154 58.4498 66.8161 58.3736 67.1051C58.2214 67.721 57.9092 68.2857 57.4686 68.7421C56.7336 69.5273 55.9469 70.2622 55.1136 70.9421C54.7189 71.2621 54.304 71.5564 53.8716 71.8231" stroke="#0400BF" stroke-width="0.08796" stroke-linecap="round" stroke-linejoin="round"/>
<path d="M55.1138 70.9414L51.2438 79.0914L50.4268 80.8129" stroke="#0400BF" stroke-width="0.08796" stroke-linecap="round" stroke-linejoin="round"/>
<path d="M45.4965 71.0293L43.7915 73.8458L42.387 76.1683L39.8795 80.3128C39.8795 80.3128 38.8295 80.5693 37.614 81.9813C36.2845 83.5253 30.7055 93.5858 29.314 95.6258" stroke="#0400BF" stroke-width="0.08796" stroke-linecap="round" stroke-linejoin="round"/>
<path d="M42.3867 76.168C42.3867 76.168 47.1247 79.668 50.3867 80.918C50.9379 81.1492 51.5208 81.2961 52.1157 81.354C52.4036 81.3845 52.6947 81.3595 52.9732 81.2805C54.0407 80.8755 51.2442 79.09 51.2442 79.09" stroke="#0400BF" stroke-width="0.08796" stroke-linecap="round" stroke-linejoin="round"/>
<path d="M52.9727 81.2812L50.6942 84.8288C51.2915 85.8664 51.456 87.0976 51.1522 88.2557C50.6777 90.3287 49.3022 93.3013 48.0127 95.6253" stroke="#0400BF" stroke-width="0.08796" stroke-linecap="round" stroke-linejoin="round"/>
<path d="M17.5999 95.626C17.5999 95.626 16.8949 84.6445 19.7134 77.921C22.5319 71.1975 37.2849 67.3115 37.2849 67.3115C37.2849 67.3115 38.1804 71.8225 43.7939 73.846" stroke="#0400BF" stroke-width="0.08796" stroke-linecap="round" stroke-linejoin="round"/>
<path d="M38.1777 60.9668L39.3827 67.3113L39.5787 68.3423" stroke="#0400BF" stroke-width="0.08796" stroke-linecap="round" stroke-linejoin="round"/>
<path d="M37.5498 67.936L38.1778 67.7215L39.3828 67.3115H39.3848" stroke="#0400BF" stroke-width="0.08796" stroke-linecap="round" stroke-linejoin="round"/>
<path d="M58.4541 66.2158C58.4541 66.2158 68.2651 66.5878 72.0951 70.5843C78.2981 77.0568 76.2836 95.6258 76.2836 95.6258" stroke="#0400BF" stroke-width="0.08796" stroke-linecap="round" stroke-linejoin="round"/>
<path d="M68.0149 92.8623C67.8024 93.7851 67.5833 94.7062 67.3574 95.6258" stroke="#0400BF" stroke-width="0.08796" stroke-linecap="round" stroke-linejoin="round"/>
<path d="M69.2891 86.1465C69.2416 87.3515 68.5566 90.518 68.0161 92.8605" stroke="#0400BF" stroke-width="0.08796" stroke-linecap="round" stroke-linejoin="round"/>
<path d="M45.2053 57.5419C45.5553 58.3419 46.7783 59.7009 48.0403 59.1734C49.3023 58.6459 48.8373 57.4189 49.9403 57.0309C51.2243 56.5764 51.3853 57.3859 52.3633 57.2809C53.4368 57.1674 53.4423 55.7809 52.8743 54.4114C51.5613 51.8234 49.1673 53.2169 47.2828 53.9259C45.3983 54.6349 44.3023 55.4429 45.2053 57.5419Z" stroke="#0400BF" stroke-width="0.08796" stroke-linecap="round" stroke-linejoin="round"/>
<path d="M72.2378 37.7949L72.2433 37.8004C72.3568 37.9744 75.0473 42.1304 71.2268 44.5624C67.3243 47.0479 64.4323 41.5534 64.4323 41.5534C64.4323 41.5534 63.8683 46.3034 59.4193 46.6534C58.631 46.6976 57.8441 46.5438 57.1304 46.206C56.4167 45.8682 55.7989 45.3571 55.3333 44.7194C54.7733 44.0271 54.3259 43.2509 54.0073 42.4194" stroke="#0400BF" stroke-width="0.08796" stroke-linecap="round" stroke-linejoin="round"/>
<path d="M60.0996 8.30361C60.1496 8.21561 61.8356 5.31111 65.1856 5.99061C68.8756 6.74061 68.3486 10.6171 68.3486 10.6171C68.3486 10.6171 76.1396 4.97611 81.6376 12.4961C87.5426 20.5726 79.9031 26.3751 79.9031 26.3751C79.9031 26.3751 87.0151 31.0966 82.3886 36.8786C77.8536 42.5471 72.4566 37.9786 72.2456 37.7996" stroke="#0400BF" stroke-width="0.08796" stroke-linecap="round" stroke-linejoin="round"/>
<path d="M18.4342 14.9001C18.3922 14.8001 17.0187 11.4716 19.4747 9.86358C22.1487 8.11358 24.7582 11.2556 24.7582 11.2556C24.7582 11.2556 25.8462 2.81158 34.2967 0.932582C42.7472 -0.946417 46.8807 6.42508 46.8807 6.42508C46.8807 6.42508 50.0532 1.02508 55.8042 2.68708C60.0787 3.92158 60.0972 8.23108 60.0972 8.30258" stroke="#0400BF" stroke-width="0.08796" stroke-linecap="round" stroke-linejoin="round"/>
<path d="M29.7803 49.018C29.7803 49.018 29.5168 51.496 26.2438 52.41C22.9708 53.324 21.2968 50.3805 21.2968 50.3805C21.2968 50.3805 13.3338 56.787 5.75329 52.7C-0.761206 49.1855 -0.942706 40.7165 4.30079 34.66C4.30079 34.66 -0.682705 34.129 0.141295 29.598C1.02779 24.728 6.83729 25.365 6.83729 25.365C6.83729 25.365 2.9728 20.077 7.47479 15.2545C11.9308 10.4815 18.3043 14.8075 18.4328 14.8955" stroke="#0400BF" stroke-width="0.08796" stroke-linecap="round" stroke-linejoin="round"/>
<path d="M28.48 57.5425C28.48 57.8962 28.6205 58.2353 28.8706 58.4854C29.1206 58.7355 29.4598 58.876 29.8135 58.876C30.1671 58.876 30.5063 58.7355 30.7564 58.4854C31.0065 58.2353 31.147 57.8962 31.147 57.5425C31.147 57.1888 31.0065 56.8496 30.7564 56.5996C30.5063 56.3495 30.1671 56.209 29.8135 56.209C29.4598 56.209 29.1206 56.3495 28.8706 56.5996C28.6205 56.8496 28.48 57.1888 28.48 57.5425Z" stroke="#0400BF" stroke-width="0.08796" stroke-linecap="round" stroke-linejoin="round"/>
<path d="M22.6655 58.1063C22.6655 58.7066 22.8654 59.2823 23.2213 59.7068C23.5771 60.1313 24.0598 60.3698 24.563 60.3698C25.0663 60.3698 25.5489 60.1313 25.9048 59.7068C26.2606 59.2823 26.4605 58.7066 26.4605 58.1063C26.4605 57.506 26.2606 56.9302 25.9048 56.5057C25.5489 56.0812 25.0663 55.8428 24.563 55.8428C24.0598 55.8428 23.5771 56.0812 23.2213 56.5057C22.8654 56.9302 22.6655 57.506 22.6655 58.1063Z" stroke="#0400BF" stroke-width="0.08796" stroke-linecap="round" stroke-linejoin="round"/>
<path d="M20.4068 57.324C19.9598 58.4705 18.5133 59.439 17.3668 58.994C16.2203 58.549 15.8078 56.855 16.2548 55.7085C16.7018 54.562 18.1488 53.593 19.2953 54.04C20.4418 54.487 20.8538 56.1775 20.4068 57.324Z" stroke="#0400BF" stroke-width="0.08796" stroke-linecap="round" stroke-linejoin="round"/>
<path d="M21.9651 27.3496C22.4691 28.1866 19.9526 30.6296 16.3406 32.8091C12.7286 34.9886 9.39557 36.0786 8.89057 35.2436C8.38557 34.4086 10.9056 31.9631 14.5151 29.7836C18.1246 27.6041 21.4616 26.5161 21.9651 27.3496Z" stroke="#0400BF" stroke-width="0.08796" stroke-linecap="round" stroke-linejoin="round" stroke-dasharray="0.53 0.53"/>
<path d="M28.5916 38.3276C29.0951 39.1631 26.5771 41.6081 22.9671 43.7876C19.3571 45.9671 16.0201 47.0566 15.5171 46.2196C15.0141 45.3826 17.5301 42.9396 21.1396 40.7616C24.7491 38.5836 28.0861 37.4926 28.5916 38.3276Z" stroke="#0400BF" stroke-width="0.08796" stroke-linecap="round" stroke-linejoin="round" stroke-dasharray="0.53 0.53"/>
<path d="M8.89014 35.2451L15.5166 46.2191" stroke="#0400BF" stroke-width="0.08796" stroke-linecap="round" stroke-linejoin="round" stroke-dasharray="0.53 0.53"/>
<path d="M21.9653 27.3516L28.5918 38.3276" stroke="#0400BF" stroke-width="0.08796" stroke-linecap="round" stroke-linejoin="round" stroke-dasharray="0.53 0.53"/>
<path d="M6.40527 31.1262L10.3943 28.7197" stroke="#0400BF" stroke-width="0.08796" stroke-linecap="round" stroke-linejoin="round"/>
<path d="M15.4912 25.6409L19.4802 23.2344" stroke="#0400BF" stroke-width="0.08796" stroke-linecap="round" stroke-linejoin="round"/>
<path d="M12.8207 28.1854C12.9218 28.2331 13.0332 28.2549 13.1449 28.2487C13.2565 28.2426 13.3649 28.2088 13.4602 28.1504C13.5376 28.1044 13.6052 28.0435 13.659 27.9713C13.7128 27.8991 13.7518 27.817 13.7738 27.7297C13.7957 27.6423 13.8001 27.5515 13.7868 27.4624C13.7734 27.3734 13.7426 27.2878 13.6961 27.2107C13.6495 27.1336 13.5882 27.0665 13.5156 27.0133C13.443 26.96 13.3605 26.9216 13.273 26.9003C13.1855 26.879 13.0947 26.8753 13.0057 26.8893C12.9168 26.9033 12.8314 26.9347 12.7547 26.9819L12.7347 26.9489C12.8856 26.8535 12.9932 26.7027 13.0342 26.529C13.0753 26.3552 13.0467 26.1723 12.9544 26.0194C12.8622 25.8665 12.7137 25.7559 12.5408 25.7112C12.368 25.6665 12.1845 25.6913 12.0297 25.7804C11.9334 25.8375 11.8528 25.9177 11.7952 26.0137C11.7376 26.1097 11.7048 26.2185 11.6997 26.3304" stroke="#0400BF" stroke-width="0.08796" stroke-linecap="round" stroke-linejoin="round"/>
<path d="M49.6448 19.3299C49.9775 21.46 49.4656 23.6358 48.218 25.3942C46.9704 27.1525 45.0858 28.3543 42.9653 28.7439C42.8938 28.7549 42.8223 28.7679 42.7508 28.7789C40.5865 29.1113 38.3787 28.5719 36.6115 27.279C34.8443 25.986 33.662 24.0449 33.3239 21.8815C32.9857 19.7181 33.5193 17.5089 34.8076 15.7383C36.0959 13.9677 38.0338 12.7803 40.1963 12.4364C40.2678 12.4254 40.3373 12.4144 40.4088 12.4069C42.547 12.129 44.7092 12.6972 46.4345 13.9904C48.1598 15.2837 49.3117 17.1996 49.6448 19.3299Z" stroke="#0400BF" stroke-width="0.08796" stroke-linecap="round" stroke-linejoin="round"/>
<path d="M40.1943 11.0332L40.4088 12.4067L41.6868 20.5752L42.9653 28.7437L43.1798 30.1157" stroke="#0400BF" stroke-width="0.08796" stroke-linecap="round" stroke-linejoin="round" stroke-dasharray="0.53 0.53"/>
<path d="M32.147 22.0665L33.3025 21.885L41.687 20.5755L49.645 19.33L51.2275 19.083" stroke="#0400BF" stroke-width="0.08796" stroke-linecap="round" stroke-linejoin="round" stroke-dasharray="0.53 0.53"/>
<path d="M25.5441 19.4746C24.1156 23.1356 25.6006 30.1336 31.2306 30.8661C36.8606 31.5986 36.2656 33.8956 38.1306 35.3571C39.9956 36.8186 42.2306 36.1941 43.9346 34.8351" stroke="#0400BF" stroke-width="0.08796" stroke-linecap="round" stroke-linejoin="round"/>
<path d="M56.2583 24.1594L48.2308 32.7964L48.1648 31.8459L47.3058 31.9374L47.2838 31.0274L46.3828 31.0784L54.4103 22.4414" stroke="#0400BF" stroke-width="0.08796" stroke-linecap="round" stroke-linejoin="round"/>
<path d="M45.6525 33.0789L45.2695 34.1304L46.2895 33.6704L48.231 32.7969" stroke="#0400BF" stroke-width="0.08796" stroke-linecap="round" stroke-linejoin="round"/>
<path d="M46.3828 31.0781L45.6538 33.0781" stroke="#0400BF" stroke-width="0.08796" stroke-linecap="round" stroke-linejoin="round"/>
<path d="M45.6523 33.0783C46.0773 32.9723 46.4988 33.2508 46.2878 33.6698" stroke="#0400BF" stroke-width="0.08796" stroke-linecap="round" stroke-linejoin="round"/>
<path d="M55.3331 23.3008L48.2891 30.8793" stroke="#0400BF" stroke-width="0.08796" stroke-linecap="round" stroke-linejoin="round"/>
<path d="M57.1997 23.1467L56.2582 24.1597L55.3332 23.3007L54.4102 22.4417L55.3517 21.4287" stroke="#0400BF" stroke-width="0.08796" stroke-linecap="round" stroke-linejoin="round"/>
<path d="M57.1996 23.1461L57.6191 22.6936C57.7319 22.5721 57.8197 22.4296 57.8774 22.2742C57.9352 22.1188 57.9617 21.9536 57.9556 21.7879C57.9495 21.6223 57.9108 21.4594 57.8417 21.3087C57.7726 21.158 57.6746 21.0224 57.5531 20.9096C57.4316 20.7968 57.2891 20.709 57.1337 20.6513C56.9783 20.5936 56.8131 20.567 56.6474 20.5731C56.4818 20.5793 56.319 20.618 56.1683 20.687C56.0175 20.7561 55.8819 20.8541 55.7691 20.9756L55.3496 21.4281L57.1996 23.1461Z" stroke="#0400BF" stroke-width="0.08796" stroke-linecap="round" stroke-linejoin="round"/>
<path d="M57.6065 60.1504C57.8495 60.4569 58.0084 60.8215 58.0675 61.2082C58.1266 61.5949 58.0838 61.9903 57.9435 62.3554C57.6705 63.0864 57.2257 63.741 56.6465 64.2639" stroke="#0400BF" stroke-width="0.08796" stroke-linecap="round" stroke-linejoin="round"/>
<path d="M39.3354 62.5504C39.3354 62.5504 39.916 61.7903 40.5075 62.0958C41.099 62.4013 41.365 62.5504 41.365 62.5504" stroke="#0400BF" stroke-width="0.08796" stroke-linecap="round" stroke-linejoin="round"/>
<path d="M37.2822 67.3107C37.4558 67.2718 37.6373 67.2909 37.799 67.3649C37.9607 67.4389 38.0938 67.5639 38.1777 67.7207" stroke="#0400BF" stroke-width="0.08796" stroke-linecap="round" stroke-linejoin="round"/>
<path d="M58.3936 57.3037C58.3936 57.3037 58.4411 56.1667 59.3516 56.2782" stroke="#0400BF" stroke-width="0.08796" stroke-linecap="round" stroke-linejoin="round"/>
<path d="M28.3062 46.9873C28.3062 46.9873 28.3462 48.7453 29.7857 48.9908C30.0235 49.0286 30.2658 49.0286 30.5037 48.9908C32.4487 48.7178 32.6447 47.7363 32.6647 47.5548V47.5253" stroke="#0400BF" stroke-width="0.08796" stroke-linecap="round" stroke-linejoin="round"/>
<path d="M51.2344 45.5162V45.5202C51.449 45.9117 51.7855 46.2223 52.1927 46.4051C52.6 46.5878 53.0558 46.6327 53.4909 46.5327C54.8409 46.3002 55.3314 44.7197 55.3314 44.7197" stroke="#0400BF" stroke-width="0.08796" stroke-linecap="round" stroke-linejoin="round"/>
<path d="M75.7178 24.4097L62.8643 13.5107L58.7163 36.3437L75.7178 24.4097Z" stroke="#0400BF" stroke-width="0.08796" stroke-linecap="round" stroke-linejoin="round"/>
<path d="M72.6023 24.2676L61.4233 32.1151L64.1503 17.1006L72.6023 24.2676Z" stroke="#0400BF" stroke-width="0.08796" stroke-linecap="round" stroke-linejoin="round"/>
<path d="M60.3643 37.81L77.3663 25.876" stroke="#0400BF" stroke-width="0.08796" stroke-linecap="round" stroke-linejoin="round" stroke-dasharray="0.53 0.53"/>
<path d="M70.6646 90.3818C69.8317 91.2601 68.9467 92.0876 68.0146 92.8598" stroke="#0400BF" stroke-width="0.08796" stroke-linecap="round" stroke-linejoin="round"/>
</svg>
